<?xml version="1.0" encoding="utf-8" standalone="no"?>
<!DOCTYPE svg PUBLIC "-//W3C//DTD SVG 1.1//EN"
  "http://www.w3.org/Graphics/SVG/1.1/DTD/svg11.dtd">
<!-- Created with matplotlib (https://matplotlib.org/) -->
<svg height="489.6pt" version="1.1" viewBox="0 0 504 489.6" width="504pt" xmlns="http://www.w3.org/2000/svg" xmlns:xlink="http://www.w3.org/1999/xlink">
 <defs>
  <style type="text/css">
*{stroke-linecap:butt;stroke-linejoin:round;}
  </style>
 </defs>
 <g id="figure_1">
  <g id="patch_1">
   <path d="M 0 489.6 
L 504 489.6 
L 504 0 
L 0 0 
z
" style="fill:#ffffff;"/>
  </g>
  <g id="axes_1">
   <g id="patch_2">
    <path d="M 50.4 284.58 
L 228.9 284.58 
L 228.9 180.54 
L 50.4 180.54 
z
" style="fill:#ffffff;"/>
   </g>
   <g id="PolyCollection_1">
    <defs>
     <path d="M 65.301979 -211.120582 
L 65.248021 -211.120582 
L 65.223856 -211.245932 
L 65.184631 -211.371281 
L 65.125518 -211.49663 
L 65.042537 -211.62198 
L 64.933878 -211.747329 
L 64.801334 -211.872678 
L 64.651438 -211.998028 
L 64.495492 -212.123377 
L 64.34752 -212.248726 
L 64.219793 -212.374075 
L 64.117094 -212.499425 
L 64.032456 -212.624774 
L 63.947188 -212.750123 
L 63.836104 -212.875473 
L 63.675921 -213.000822 
L 63.453019 -213.126171 
L 63.167311 -213.251521 
L 62.831235 -213.37687 
L 62.465049 -213.502219 
L 62.090621 -213.627568 
L 61.725728 -213.752918 
L 61.380421 -213.878267 
L 61.056318 -214.003616 
L 60.74892 -214.128966 
L 60.452029 -214.254315 
L 60.162701 -214.379664 
L 59.885001 -214.505014 
L 59.631132 -214.630363 
L 59.419026 -214.755712 
L 59.266448 -214.881061 
L 59.183318 -215.006411 
L 59.165682 -215.13176 
L 59.194963 -215.257109 
L 59.243461 -215.382459 
L 59.282956 -215.507808 
L 59.291179 -215.633157 
L 59.253347 -215.758507 
L 59.160848 -215.883856 
L 59.011463 -216.009205 
L 58.812548 -216.134554 
L 58.583547 -216.259904 
L 58.352951 -216.385253 
L 58.149334 -216.510602 
L 57.992017 -216.635952 
L 57.888113 -216.761301 
L 57.8375 -216.88665 
L 57.840398 -217.012 
L 57.900009 -217.137349 
L 58.017187 -217.262698 
L 58.181615 -217.388047 
L 58.367885 -217.513397 
L 58.542049 -217.638746 
L 58.676668 -217.764095 
L 58.765972 -217.889445 
L 58.831841 -218.014794 
L 58.916201 -218.140143 
L 59.062889 -218.265493 
L 59.297993 -218.390842 
L 59.618995 -218.516191 
L 59.998552 -218.64154 
L 60.400393 -218.76689 
L 60.797375 -218.892239 
L 61.180542 -219.017588 
L 61.55441 -219.142938 
L 61.923284 -219.268287 
L 62.279168 -219.393636 
L 62.599734 -219.518986 
L 62.857299 -219.644335 
L 63.032592 -219.769684 
L 63.125031 -219.895033 
L 63.154394 -220.020383 
L 63.154051 -220.145732 
L 63.159963 -220.271081 
L 63.200676 -220.396431 
L 63.291905 -220.52178 
L 63.436379 -220.647129 
L 63.627045 -220.772479 
L 63.850942 -220.897828 
L 64.091983 -221.023177 
L 64.332581 -221.148526 
L 64.555155 -221.273876 
L 64.744297 -221.399225 
L 64.889418 -221.524574 
L 64.986832 -221.649924 
L 65.040224 -221.775273 
L 65.059161 -221.900622 
L 65.056184 -222.025971 
L 65.043652 -222.151321 
L 65.031453 -222.27667 
L 65.026136 -222.402019 
L 65.031163 -222.527369 
L 65.047533 -222.652718 
L 65.074211 -222.778067 
L 65.108361 -222.903417 
L 65.145803 -223.028766 
L 65.181967 -223.154115 
L 65.213083 -223.279464 
L 65.237059 -223.404814 
L 65.253655 -223.530163 
L 65.296345 -223.530163 
L 65.296345 -223.530163 
L 65.312941 -223.404814 
L 65.336917 -223.279464 
L 65.368033 -223.154115 
L 65.404197 -223.028766 
L 65.441639 -222.903417 
L 65.475789 -222.778067 
L 65.502467 -222.652718 
L 65.518837 -222.527369 
L 65.523864 -222.402019 
L 65.518547 -222.27667 
L 65.506348 -222.151321 
L 65.493816 -222.025971 
L 65.490839 -221.900622 
L 65.509776 -221.775273 
L 65.563168 -221.649924 
L 65.660582 -221.524574 
L 65.805703 -221.399225 
L 65.994845 -221.273876 
L 66.217419 -221.148526 
L 66.458017 -221.023177 
L 66.699058 -220.897828 
L 66.922955 -220.772479 
L 67.113621 -220.647129 
L 67.258095 -220.52178 
L 67.349324 -220.396431 
L 67.390037 -220.271081 
L 67.395949 -220.145732 
L 67.395606 -220.020383 
L 67.424969 -219.895033 
L 67.517408 -219.769684 
L 67.692701 -219.644335 
L 67.950266 -219.518986 
L 68.270832 -219.393636 
L 68.626716 -219.268287 
L 68.99559 -219.142938 
L 69.369458 -219.017588 
L 69.752625 -218.892239 
L 70.149607 -218.76689 
L 70.551448 -218.64154 
L 70.931005 -218.516191 
L 71.252007 -218.390842 
L 71.487111 -218.265493 
L 71.633799 -218.140143 
L 71.718159 -218.014794 
L 71.784028 -217.889445 
L 71.873332 -217.764095 
L 72.007951 -217.638746 
L 72.182115 -217.513397 
L 72.368385 -217.388047 
L 72.532813 -217.262698 
L 72.649991 -217.137349 
L 72.709602 -217.012 
L 72.7125 -216.88665 
L 72.661887 -216.761301 
L 72.557983 -216.635952 
L 72.400666 -216.510602 
L 72.197049 -216.385253 
L 71.966453 -216.259904 
L 71.737452 -216.134554 
L 71.538537 -216.009205 
L 71.389152 -215.883856 
L 71.296653 -215.758507 
L 71.258821 -215.633157 
L 71.267044 -215.507808 
L 71.306539 -215.382459 
L 71.355037 -215.257109 
L 71.384318 -215.13176 
L 71.366682 -215.006411 
L 71.283552 -214.881061 
L 71.130974 -214.755712 
L 70.918868 -214.630363 
L 70.664999 -214.505014 
L 70.387299 -214.379664 
L 70.097971 -214.254315 
L 69.80108 -214.128966 
L 69.493682 -214.003616 
L 69.169579 -213.878267 
L 68.824272 -213.752918 
L 68.459379 -213.627568 
L 68.084951 -213.502219 
L 67.718765 -213.37687 
L 67.382689 -213.251521 
L 67.096981 -213.126171 
L 66.874079 -213.000822 
L 66.713896 -212.875473 
L 66.602812 -212.750123 
L 66.517544 -212.624774 
L 66.432906 -212.499425 
L 66.330207 -212.374075 
L 66.20248 -212.248726 
L 66.054508 -212.123377 
L 65.898562 -211.998028 
L 65.748666 -211.872678 
L 65.616122 -211.747329 
L 65.507463 -211.62198 
L 65.424482 -211.49663 
L 65.365369 -211.371281 
L 65.326144 -211.245932 
L 65.301979 -211.120582 
z
" id="maba7a2d9d4" style="stroke:#393939;stroke-width:0.4;"/>
    </defs>
    <g clip-path="url(#p7539fabff7)">
     <use style="fill:#a718a7;stroke:#393939;stroke-width:0.4;" x="0" xlink:href="#maba7a2d9d4" y="489.6"/>
    </g>
   </g>
   <g id="PolyCollection_2">
    <defs>
     <path d="M 95.056394 -207.778528 
L 94.993606 -207.778528 
L 94.967942 -207.830391 
L 94.931703 -207.882253 
L 94.887752 -207.934116 
L 94.843354 -207.985979 
L 94.808715 -208.037841 
L 94.793309 -208.089704 
L 94.801706 -208.141567 
L 94.831389 -208.193429 
L 94.873958 -208.245292 
L 94.91895 -208.297155 
L 94.957866 -208.349017 
L 94.986298 -208.40088 
L 95.003566 -208.452743 
L 95.010779 -208.504605 
L 95.008664 -208.556468 
L 94.996118 -208.608331 
L 94.969749 -208.660193 
L 94.924247 -208.712056 
L 94.853133 -208.763919 
L 94.749488 -208.815781 
L 94.606725 -208.867644 
L 94.420305 -208.919507 
L 94.191422 -208.971369 
L 93.932071 -209.023232 
L 93.668113 -209.075095 
L 93.435715 -209.126957 
L 93.26942 -209.17882 
L 93.186148 -209.230682 
L 93.173926 -209.282545 
L 93.192684 -209.334408 
L 93.187522 -209.38627 
L 93.107672 -209.438133 
L 92.922258 -209.489996 
L 92.627631 -209.541858 
L 92.246771 -209.593721 
L 91.82416 -209.645584 
L 91.418321 -209.697446 
L 91.091429 -209.749309 
L 90.895114 -209.801172 
L 90.854891 -209.853034 
L 90.959587 -209.904897 
L 91.162055 -209.95676 
L 91.392136 -210.008622 
L 91.576081 -210.060485 
L 91.653887 -210.112348 
L 91.589151 -210.16421 
L 91.371635 -210.216073 
L 91.015633 -210.267936 
L 90.555962 -210.319798 
L 90.040813 -210.371661 
L 89.520816 -210.423524 
L 89.037003 -210.475386 
L 88.613259 -210.527249 
L 88.257307 -210.579112 
L 87.969115 -210.630974 
L 87.751304 -210.682837 
L 87.616287 -210.7347 
L 87.5875 -210.786562 
L 87.693884 -210.838425 
L 87.957851 -210.890288 
L 88.380196 -210.94215 
L 88.929973 -210.994013 
L 89.547896 -211.045876 
L 90.164562 -211.097738 
L 90.724406 -211.149601 
L 91.201579 -211.201464 
L 91.599289 -211.253326 
L 91.935192 -211.305189 
L 92.223941 -211.357052 
L 92.468398 -211.408914 
L 92.663773 -211.460777 
L 92.809409 -211.51264 
L 92.917642 -211.564502 
L 93.012153 -211.616365 
L 93.116975 -211.668227 
L 93.244809 -211.72009 
L 93.393276 -211.771953 
L 93.550592 -211.823815 
L 93.704536 -211.875678 
L 93.847515 -211.927541 
L 93.975997 -211.979403 
L 94.088198 -212.031266 
L 94.183791 -212.083129 
L 94.264832 -212.134991 
L 94.334382 -212.186854 
L 94.392152 -212.238717 
L 94.431309 -212.290579 
L 94.441404 -212.342442 
L 94.41737 -212.394305 
L 94.36839 -212.446167 
L 94.318953 -212.49803 
L 94.299544 -212.549893 
L 94.33207 -212.601755 
L 94.419201 -212.653618 
L 94.544083 -212.705481 
L 94.679683 -212.757343 
L 94.80115 -212.809206 
L 94.894113 -212.861069 
L 94.956 -212.912931 
L 95.094 -212.912931 
L 95.094 -212.912931 
L 95.155887 -212.861069 
L 95.24885 -212.809206 
L 95.370317 -212.757343 
L 95.505917 -212.705481 
L 95.630799 -212.653618 
L 95.71793 -212.601755 
L 95.750456 -212.549893 
L 95.731047 -212.49803 
L 95.68161 -212.446167 
L 95.63263 -212.394305 
L 95.608596 -212.342442 
L 95.618691 -212.290579 
L 95.657848 -212.238717 
L 95.715618 -212.186854 
L 95.785168 -212.134991 
L 95.866209 -212.083129 
L 95.961802 -212.031266 
L 96.074003 -211.979403 
L 96.202485 -211.927541 
L 96.345464 -211.875678 
L 96.499408 -211.823815 
L 96.656724 -211.771953 
L 96.805191 -211.72009 
L 96.933025 -211.668227 
L 97.037847 -211.616365 
L 97.132358 -211.564502 
L 97.240591 -211.51264 
L 97.386227 -211.460777 
L 97.581602 -211.408914 
L 97.826059 -211.357052 
L 98.114808 -211.305189 
L 98.450711 -211.253326 
L 98.848421 -211.201464 
L 99.325594 -211.149601 
L 99.885438 -211.097738 
L 100.502104 -211.045876 
L 101.120027 -210.994013 
L 101.669804 -210.94215 
L 102.092149 -210.890288 
L 102.356116 -210.838425 
L 102.4625 -210.786562 
L 102.433713 -210.7347 
L 102.298696 -210.682837 
L 102.080885 -210.630974 
L 101.792693 -210.579112 
L 101.436741 -210.527249 
L 101.012997 -210.475386 
L 100.529184 -210.423524 
L 100.009187 -210.371661 
L 99.494038 -210.319798 
L 99.034367 -210.267936 
L 98.678365 -210.216073 
L 98.460849 -210.16421 
L 98.396113 -210.112348 
L 98.473919 -210.060485 
L 98.657864 -210.008622 
L 98.887945 -209.95676 
L 99.090413 -209.904897 
L 99.195109 -209.853034 
L 99.154886 -209.801172 
L 98.958571 -209.749309 
L 98.631679 -209.697446 
L 98.22584 -209.645584 
L 97.803229 -209.593721 
L 97.422369 -209.541858 
L 97.127742 -209.489996 
L 96.942328 -209.438133 
L 96.862478 -209.38627 
L 96.857316 -209.334408 
L 96.876074 -209.282545 
L 96.863852 -209.230682 
L 96.78058 -209.17882 
L 96.614285 -209.126957 
L 96.381887 -209.075095 
L 96.117929 -209.023232 
L 95.858578 -208.971369 
L 95.629695 -208.919507 
L 95.443275 -208.867644 
L 95.300512 -208.815781 
L 95.196867 -208.763919 
L 95.125753 -208.712056 
L 95.080251 -208.660193 
L 95.053882 -208.608331 
L 95.041336 -208.556468 
L 95.039221 -208.504605 
L 95.046434 -208.452743 
L 95.063702 -208.40088 
L 95.092134 -208.349017 
L 95.13105 -208.297155 
L 95.176042 -208.245292 
L 95.218611 -208.193429 
L 95.248294 -208.141567 
L 95.256691 -208.089704 
L 95.241285 -208.037841 
L 95.206646 -207.985979 
L 95.162248 -207.934116 
L 95.118297 -207.882253 
L 95.082058 -207.830391 
L 95.056394 -207.778528 
z
" id="m7756b48245" style="stroke:#393939;stroke-width:0.4;"/>
    </defs>
    <g clip-path="url(#p7539fabff7)">
     <use style="fill:#a718a7;stroke:#393939;stroke-width:0.4;" x="0" xlink:href="#m7756b48245" y="489.6"/>
    </g>
   </g>
   <g id="PolyCollection_3">
    <defs>
     <path d="M 124.824839 -206.700292 
L 124.725161 -206.700292 
L 124.688908 -206.73293 
L 124.638541 -206.765569 
L 124.576381 -206.798207 
L 124.509131 -206.830846 
L 124.446741 -206.863484 
L 124.399052 -206.896123 
L 124.371345 -206.928761 
L 124.361058 -206.961399 
L 124.357821 -206.994038 
L 124.347407 -207.026676 
L 124.318049 -207.059315 
L 124.266115 -207.091953 
L 124.198316 -207.124592 
L 124.129277 -207.15723 
L 124.075448 -207.189869 
L 124.048012 -207.222507 
L 124.047832 -207.255146 
L 124.06471 -207.287784 
L 124.08143 -207.320423 
L 124.081026 -207.353061 
L 124.054073 -207.385699 
L 124.00261 -207.418338 
L 123.93877 -207.450976 
L 123.878833 -207.483615 
L 123.835734 -207.516253 
L 123.813618 -207.548892 
L 123.806569 -207.58153 
L 123.801298 -207.614169 
L 123.781951 -207.646807 
L 123.735126 -207.679446 
L 123.653952 -207.712084 
L 123.54058 -207.744722 
L 123.40616 -207.777361 
L 123.267214 -207.809999 
L 123.138379 -207.842638 
L 123.023782 -207.875276 
L 122.911378 -207.907915 
L 122.774224 -207.940553 
L 122.579507 -207.973192 
L 122.301679 -208.00583 
L 121.933398 -208.038469 
L 121.488958 -208.071107 
L 120.998889 -208.103745 
L 120.498944 -208.136384 
L 120.019096 -208.169022 
L 119.577515 -208.201661 
L 119.181378 -208.234299 
L 118.832733 -208.266938 
L 118.535317 -208.299576 
L 118.298155 -208.332215 
L 118.133863 -208.364853 
L 118.052549 -208.397492 
L 118.054678 -208.43013 
L 118.126886 -208.462769 
L 118.243205 -208.495407 
L 118.371037 -208.528045 
L 118.478631 -208.560684 
L 118.540392 -208.593322 
L 118.53869 -208.625961 
L 118.463833 -208.658599 
L 118.315115 -208.691238 
L 118.104102 -208.723876 
L 117.857898 -208.756515 
L 117.617998 -208.789153 
L 117.43167 -208.821792 
L 117.3375 -208.85443 
L 117.351591 -208.887068 
L 117.461961 -208.919707 
L 117.634469 -208.952345 
L 117.826842 -208.984984 
L 118.003267 -209.017622 
L 118.143502 -209.050261 
L 118.245407 -209.082899 
L 118.3235 -209.115538 
L 118.40595 -209.148176 
L 118.529826 -209.180815 
L 118.733287 -209.213453 
L 119.045145 -209.246092 
L 119.475133 -209.27873 
L 120.009047 -209.311368 
L 120.61085 -209.344007 
L 121.230438 -209.376645 
L 121.813942 -209.409284 
L 122.313906 -209.441922 
L 122.698081 -209.474561 
L 122.956026 -209.507199 
L 123.101914 -209.539838 
L 123.171482 -209.572476 
L 123.212453 -209.605115 
L 123.27074 -209.637753 
L 123.377367 -209.670391 
L 123.541203 -209.70303 
L 123.749933 -209.735668 
L 123.977922 -209.768307 
L 124.196862 -209.800945 
L 124.384707 -209.833584 
L 124.530169 -209.866222 
L 124.632484 -209.898861 
L 124.698114 -209.931499 
L 124.851886 -209.931499 
L 124.851886 -209.931499 
L 124.917516 -209.898861 
L 125.019831 -209.866222 
L 125.165293 -209.833584 
L 125.353138 -209.800945 
L 125.572078 -209.768307 
L 125.800067 -209.735668 
L 126.008797 -209.70303 
L 126.172633 -209.670391 
L 126.27926 -209.637753 
L 126.337547 -209.605115 
L 126.378518 -209.572476 
L 126.448086 -209.539838 
L 126.593974 -209.507199 
L 126.851919 -209.474561 
L 127.236094 -209.441922 
L 127.736058 -209.409284 
L 128.319562 -209.376645 
L 128.93915 -209.344007 
L 129.540953 -209.311368 
L 130.074867 -209.27873 
L 130.504855 -209.246092 
L 130.816713 -209.213453 
L 131.020174 -209.180815 
L 131.14405 -209.148176 
L 131.2265 -209.115538 
L 131.304593 -209.082899 
L 131.406498 -209.050261 
L 131.546733 -209.017622 
L 131.723158 -208.984984 
L 131.915531 -208.952345 
L 132.088039 -208.919707 
L 132.198409 -208.887068 
L 132.2125 -208.85443 
L 132.11833 -208.821792 
L 131.932002 -208.789153 
L 131.692102 -208.756515 
L 131.445898 -208.723876 
L 131.234885 -208.691238 
L 131.086167 -208.658599 
L 131.01131 -208.625961 
L 131.009608 -208.593322 
L 131.071369 -208.560684 
L 131.178963 -208.528045 
L 131.306795 -208.495407 
L 131.423114 -208.462769 
L 131.495322 -208.43013 
L 131.497451 -208.397492 
L 131.416137 -208.364853 
L 131.251845 -208.332215 
L 131.014683 -208.299576 
L 130.717267 -208.266938 
L 130.368622 -208.234299 
L 129.972485 -208.201661 
L 129.530904 -208.169022 
L 129.051056 -208.136384 
L 128.551111 -208.103745 
L 128.061042 -208.071107 
L 127.616602 -208.038469 
L 127.248321 -208.00583 
L 126.970493 -207.973192 
L 126.775776 -207.940553 
L 126.638622 -207.907915 
L 126.526218 -207.875276 
L 126.411621 -207.842638 
L 126.282786 -207.809999 
L 126.14384 -207.777361 
L 126.00942 -207.744722 
L 125.896048 -207.712084 
L 125.814874 -207.679446 
L 125.768049 -207.646807 
L 125.748702 -207.614169 
L 125.743431 -207.58153 
L 125.736382 -207.548892 
L 125.714266 -207.516253 
L 125.671167 -207.483615 
L 125.61123 -207.450976 
L 125.54739 -207.418338 
L 125.495927 -207.385699 
L 125.468974 -207.353061 
L 125.46857 -207.320423 
L 125.48529 -207.287784 
L 125.502168 -207.255146 
L 125.501988 -207.222507 
L 125.474552 -207.189869 
L 125.420723 -207.15723 
L 125.351684 -207.124592 
L 125.283885 -207.091953 
L 125.231951 -207.059315 
L 125.202593 -207.026676 
L 125.192179 -206.994038 
L 125.188942 -206.961399 
L 125.178655 -206.928761 
L 125.150948 -206.896123 
L 125.103259 -206.863484 
L 125.040869 -206.830846 
L 124.973619 -206.798207 
L 124.911459 -206.765569 
L 124.861092 -206.73293 
L 124.824839 -206.700292 
z
" id="mdb7d7765fb" style="stroke:#393939;stroke-width:0.4;"/>
    </defs>
    <g clip-path="url(#p7539fabff7)">
     <use style="fill:#a718a7;stroke:#393939;stroke-width:0.4;" x="0" xlink:href="#mdb7d7765fb" y="489.6"/>
    </g>
   </g>
   <g id="PolyCollection_4">
    <defs>
     <path d="M 154.590326 -206.494911 
L 154.459674 -206.494911 
L 154.414671 -206.522853 
L 154.352764 -206.550795 
L 154.276324 -206.578737 
L 154.192573 -206.606679 
L 154.112675 -206.634621 
L 154.048479 -206.662563 
L 154.007712 -206.690505 
L 153.989521 -206.718446 
L 153.982473 -206.746388 
L 153.966047 -206.77433 
L 153.914937 -206.802272 
L 153.804203 -206.830214 
L 153.613488 -206.858156 
L 153.329869 -206.886098 
L 152.950449 -206.91404 
L 152.485897 -206.941982 
L 151.964467 -206.969924 
L 151.433501 -206.997866 
L 150.954447 -207.025808 
L 150.589588 -207.05375 
L 150.383486 -207.081692 
L 150.346633 -207.109634 
L 150.449547 -207.137576 
L 150.631347 -207.165518 
L 150.819818 -207.19346 
L 150.954426 -207.221402 
L 151.002853 -207.249344 
L 150.965623 -207.277286 
L 150.869327 -207.305228 
L 150.753344 -207.33317 
L 150.655645 -207.361112 
L 150.601343 -207.389053 
L 150.595237 -207.416995 
L 150.618692 -207.444937 
L 150.631565 -207.472879 
L 150.580112 -207.500821 
L 150.410708 -207.528763 
L 150.086983 -207.556705 
L 149.605665 -207.584647 
L 149.005328 -207.612589 
L 148.363078 -207.640531 
L 147.777385 -207.668473 
L 147.340519 -207.696415 
L 147.109545 -207.724357 
L 147.0875 -207.752299 
L 147.223469 -207.780241 
L 147.43214 -207.808183 
L 147.624206 -207.836125 
L 147.734374 -207.864067 
L 147.736539 -207.892009 
L 147.643674 -207.919951 
L 147.497431 -207.947893 
L 147.354769 -207.975835 
L 147.276111 -208.003777 
L 147.315234 -208.031719 
L 147.509444 -208.05966 
L 147.87032 -208.087602 
L 148.378115 -208.115544 
L 148.98374 -208.143486 
L 149.619931 -208.171428 
L 150.218974 -208.19937 
L 150.730819 -208.227312 
L 151.13463 -208.255254 
L 151.439349 -208.283196 
L 151.673487 -208.311138 
L 151.868821 -208.33908 
L 152.04498 -208.367022 
L 152.201165 -208.394964 
L 152.318314 -208.422906 
L 152.370886 -208.450848 
L 152.343561 -208.47879 
L 152.24549 -208.506732 
L 152.114829 -208.534674 
L 152.009907 -208.562616 
L 151.989553 -208.590558 
L 152.090996 -208.6185 
L 152.315532 -208.646442 
L 152.628612 -208.674384 
L 152.973803 -208.702326 
L 153.29358 -208.730268 
L 153.54754 -208.758209 
L 153.721122 -208.786151 
L 153.8232 -208.814093 
L 153.875872 -208.842035 
L 153.902361 -208.869977 
L 153.918463 -208.897919 
L 153.930351 -208.925861 
L 153.938072 -208.953803 
L 153.941436 -208.981745 
L 153.944334 -209.009687 
L 153.955044 -209.037629 
L 153.982764 -209.065571 
L 154.032893 -209.093513 
L 154.104016 -209.121455 
L 154.188234 -209.149397 
L 154.274347 -209.177339 
L 154.351942 -209.205281 
L 154.414358 -209.233223 
L 154.459564 -209.261165 
L 154.590436 -209.261165 
L 154.590436 -209.261165 
L 154.635642 -209.233223 
L 154.698058 -209.205281 
L 154.775653 -209.177339 
L 154.861766 -209.149397 
L 154.945984 -209.121455 
L 155.017107 -209.093513 
L 155.067236 -209.065571 
L 155.094956 -209.037629 
L 155.105666 -209.009687 
L 155.108564 -208.981745 
L 155.111928 -208.953803 
L 155.119649 -208.925861 
L 155.131537 -208.897919 
L 155.147639 -208.869977 
L 155.174128 -208.842035 
L 155.2268 -208.814093 
L 155.328878 -208.786151 
L 155.50246 -208.758209 
L 155.75642 -208.730268 
L 156.076197 -208.702326 
L 156.421388 -208.674384 
L 156.734468 -208.646442 
L 156.959004 -208.6185 
L 157.060447 -208.590558 
L 157.040093 -208.562616 
L 156.935171 -208.534674 
L 156.80451 -208.506732 
L 156.706439 -208.47879 
L 156.679114 -208.450848 
L 156.731686 -208.422906 
L 156.848835 -208.394964 
L 157.00502 -208.367022 
L 157.181179 -208.33908 
L 157.376513 -208.311138 
L 157.610651 -208.283196 
L 157.91537 -208.255254 
L 158.319181 -208.227312 
L 158.831026 -208.19937 
L 159.430069 -208.171428 
L 160.06626 -208.143486 
L 160.671885 -208.115544 
L 161.17968 -208.087602 
L 161.540556 -208.05966 
L 161.734766 -208.031719 
L 161.773889 -208.003777 
L 161.695231 -207.975835 
L 161.552569 -207.947893 
L 161.406326 -207.919951 
L 161.313461 -207.892009 
L 161.315626 -207.864067 
L 161.425794 -207.836125 
L 161.61786 -207.808183 
L 161.826531 -207.780241 
L 161.9625 -207.752299 
L 161.940455 -207.724357 
L 161.709481 -207.696415 
L 161.272615 -207.668473 
L 160.686922 -207.640531 
L 160.044672 -207.612589 
L 159.444335 -207.584647 
L 158.963017 -207.556705 
L 158.639292 -207.528763 
L 158.469888 -207.500821 
L 158.418435 -207.472879 
L 158.431308 -207.444937 
L 158.454763 -207.416995 
L 158.448657 -207.389053 
L 158.394355 -207.361112 
L 158.296656 -207.33317 
L 158.180673 -207.305228 
L 158.084377 -207.277286 
L 158.047147 -207.249344 
L 158.095574 -207.221402 
L 158.230182 -207.19346 
L 158.418653 -207.165518 
L 158.600453 -207.137576 
L 158.703367 -207.109634 
L 158.666514 -207.081692 
L 158.460412 -207.05375 
L 158.095553 -207.025808 
L 157.616499 -206.997866 
L 157.085533 -206.969924 
L 156.564103 -206.941982 
L 156.099551 -206.91404 
L 155.720131 -206.886098 
L 155.436512 -206.858156 
L 155.245797 -206.830214 
L 155.135063 -206.802272 
L 155.083953 -206.77433 
L 155.067527 -206.746388 
L 155.060479 -206.718446 
L 155.042288 -206.690505 
L 155.001521 -206.662563 
L 154.937325 -206.634621 
L 154.857427 -206.606679 
L 154.773676 -206.578737 
L 154.697236 -206.550795 
L 154.635329 -206.522853 
L 154.590326 -206.494911 
z
" id="m49f93dd9de" style="stroke:#393939;stroke-width:0.4;"/>
    </defs>
    <g clip-path="url(#p7539fabff7)">
     <use style="fill:#a718a7;stroke:#393939;stroke-width:0.4;" x="0" xlink:href="#m49f93dd9de" y="489.6"/>
    </g>
   </g>
   <g id="PolyCollection_5">
    <defs>
     <path d="M 184.353772 -205.909001 
L 184.196228 -205.909001 
L 184.141429 -205.934264 
L 184.066037 -205.959528 
L 183.973316 -205.984791 
L 183.872821 -206.010055 
L 183.779235 -206.035318 
L 183.708057 -206.060581 
L 183.669025 -206.085845 
L 183.659596 -206.111108 
L 183.661374 -206.136372 
L 183.641595 -206.161635 
L 183.560183 -206.186899 
L 183.38116 -206.212162 
L 183.085698 -206.237425 
L 182.682754 -206.262689 
L 182.212524 -206.287952 
L 181.739029 -206.313216 
L 181.331956 -206.338479 
L 181.043515 -206.363742 
L 180.890251 -206.389006 
L 180.848955 -206.414269 
L 180.869382 -206.439533 
L 180.897663 -206.464796 
L 180.89867 -206.49006 
L 180.866334 -206.515323 
L 180.817523 -206.540586 
L 180.773383 -206.56585 
L 180.738009 -206.591113 
L 180.685427 -206.616377 
L 180.562391 -206.64164 
L 180.307541 -206.666903 
L 179.879894 -206.692167 
L 179.284311 -206.71743 
L 178.581626 -206.742694 
L 177.877268 -206.767957 
L 177.292029 -206.793221 
L 176.927062 -206.818484 
L 176.8375 -206.843747 
L 177.023992 -206.869011 
L 177.441969 -206.894274 
L 178.020337 -206.919538 
L 178.678975 -206.944801 
L 179.338643 -206.970064 
L 179.924082 -206.995328 
L 180.366197 -207.020591 
L 180.608844 -207.045855 
L 180.62076 -207.071118 
L 180.407289 -207.096382 
L 180.014279 -207.121645 
L 179.519487 -207.146908 
L 179.013341 -207.172172 
L 178.576701 -207.197435 
L 178.264578 -207.222699 
L 178.100734 -207.247962 
L 178.08151 -207.273226 
L 178.182726 -207.298489 
L 178.364378 -207.323752 
L 178.573105 -207.349016 
L 178.747408 -207.374279 
L 178.830679 -207.399543 
L 178.791407 -207.424806 
L 178.642209 -207.450069 
L 178.445798 -207.475333 
L 178.300215 -207.500596 
L 178.306317 -207.52586 
L 178.531232 -207.551123 
L 178.985007 -207.576387 
L 179.620947 -207.60165 
L 180.357198 -207.626913 
L 181.106511 -207.652177 
L 181.799442 -207.67744 
L 182.39334 -207.702704 
L 182.869094 -207.727967 
L 183.223198 -207.75323 
L 183.461847 -207.778494 
L 183.599164 -207.803757 
L 183.657472 -207.829021 
L 183.666182 -207.854284 
L 183.657464 -207.879548 
L 183.659429 -207.904811 
L 183.689569 -207.930074 
L 183.751339 -207.955338 
L 183.835281 -207.980601 
L 183.923872 -208.005865 
L 183.997775 -208.031128 
L 184.041181 -208.056391 
L 184.04511 -208.081655 
L 184.00885 -208.106918 
L 183.940149 -208.132182 
L 183.854262 -208.157445 
L 183.771384 -208.182709 
L 183.712179 -208.207972 
L 183.692245 -208.233235 
L 183.71753 -208.258499 
L 183.782804 -208.283762 
L 183.874064 -208.309026 
L 183.973715 -208.334289 
L 184.066155 -208.359552 
L 184.141461 -208.384816 
L 184.196236 -208.410079 
L 184.353764 -208.410079 
L 184.353764 -208.410079 
L 184.408539 -208.384816 
L 184.483845 -208.359552 
L 184.576285 -208.334289 
L 184.675936 -208.309026 
L 184.767196 -208.283762 
L 184.83247 -208.258499 
L 184.857755 -208.233235 
L 184.837821 -208.207972 
L 184.778616 -208.182709 
L 184.695738 -208.157445 
L 184.609851 -208.132182 
L 184.54115 -208.106918 
L 184.50489 -208.081655 
L 184.508819 -208.056391 
L 184.552225 -208.031128 
L 184.626128 -208.005865 
L 184.714719 -207.980601 
L 184.798661 -207.955338 
L 184.860431 -207.930074 
L 184.890571 -207.904811 
L 184.892536 -207.879548 
L 184.883818 -207.854284 
L 184.892528 -207.829021 
L 184.950836 -207.803757 
L 185.088153 -207.778494 
L 185.326802 -207.75323 
L 185.680906 -207.727967 
L 186.15666 -207.702704 
L 186.750558 -207.67744 
L 187.443489 -207.652177 
L 188.192802 -207.626913 
L 188.929053 -207.60165 
L 189.564993 -207.576387 
L 190.018768 -207.551123 
L 190.243683 -207.52586 
L 190.249785 -207.500596 
L 190.104202 -207.475333 
L 189.907791 -207.450069 
L 189.758593 -207.424806 
L 189.719321 -207.399543 
L 189.802592 -207.374279 
L 189.976895 -207.349016 
L 190.185622 -207.323752 
L 190.367274 -207.298489 
L 190.46849 -207.273226 
L 190.449266 -207.247962 
L 190.285422 -207.222699 
L 189.973299 -207.197435 
L 189.536659 -207.172172 
L 189.030513 -207.146908 
L 188.535721 -207.121645 
L 188.142711 -207.096382 
L 187.92924 -207.071118 
L 187.941156 -207.045855 
L 188.183803 -207.020591 
L 188.625918 -206.995328 
L 189.211357 -206.970064 
L 189.871025 -206.944801 
L 190.529663 -206.919538 
L 191.108031 -206.894274 
L 191.526008 -206.869011 
L 191.7125 -206.843747 
L 191.622938 -206.818484 
L 191.257971 -206.793221 
L 190.672732 -206.767957 
L 189.968374 -206.742694 
L 189.265689 -206.71743 
L 188.670106 -206.692167 
L 188.242459 -206.666903 
L 187.987609 -206.64164 
L 187.864573 -206.616377 
L 187.811991 -206.591113 
L 187.776617 -206.56585 
L 187.732477 -206.540586 
L 187.683666 -206.515323 
L 187.65133 -206.49006 
L 187.652337 -206.464796 
L 187.680618 -206.439533 
L 187.701045 -206.414269 
L 187.659749 -206.389006 
L 187.506485 -206.363742 
L 187.218044 -206.338479 
L 186.810971 -206.313216 
L 186.337476 -206.287952 
L 185.867246 -206.262689 
L 185.464302 -206.237425 
L 185.16884 -206.212162 
L 184.989817 -206.186899 
L 184.908405 -206.161635 
L 184.888626 -206.136372 
L 184.890404 -206.111108 
L 184.880975 -206.085845 
L 184.841943 -206.060581 
L 184.770765 -206.035318 
L 184.677179 -206.010055 
L 184.576684 -205.984791 
L 184.483963 -205.959528 
L 184.408571 -205.934264 
L 184.353772 -205.909001 
z
" id="md425506e5c" style="stroke:#393939;stroke-width:0.4;"/>
    </defs>
    <g clip-path="url(#p7539fabff7)">
     <use style="fill:#a718a7;stroke:#393939;stroke-width:0.4;" x="0" xlink:href="#md425506e5c" y="489.6"/>
    </g>
   </g>
   <g id="PolyCollection_6">
    <defs>
     <path d="M 214.126396 -205.598303 
L 213.923604 -205.598303 
L 213.854418 -205.618299 
L 213.755846 -205.638294 
L 213.626 -205.65829 
L 213.46812 -205.678286 
L 213.291379 -205.698281 
L 213.109969 -205.718277 
L 212.940471 -205.738272 
L 212.798238 -205.758268 
L 212.694046 -205.778264 
L 212.632201 -205.798259 
L 212.610661 -205.818255 
L 212.622841 -205.83825 
L 212.659967 -205.858246 
L 212.712612 -205.878242 
L 212.770539 -205.898237 
L 212.821143 -205.918233 
L 212.848032 -205.938228 
L 212.831766 -205.958224 
L 212.753877 -205.97822 
L 212.603241 -205.998215 
L 212.381739 -206.018211 
L 212.105439 -206.038207 
L 211.799224 -206.058202 
L 211.486219 -206.078198 
L 211.176776 -206.098193 
L 210.862859 -206.118189 
L 210.521372 -206.138185 
L 210.125365 -206.15818 
L 209.657888 -206.178176 
L 209.122101 -206.198171 
L 208.543649 -206.218167 
L 207.965486 -206.238163 
L 207.43839 -206.258158 
L 207.01084 -206.278154 
L 206.720442 -206.298149 
L 206.5875 -206.318145 
L 206.611087 -206.338141 
L 206.768477 -206.358136 
L 207.018926 -206.378132 
L 207.31162 -206.398128 
L 207.595937 -206.418123 
L 207.831236 -206.438119 
L 207.993955 -206.458114 
L 208.081137 -206.47811 
L 208.110445 -206.498106 
L 208.11669 -206.518101 
L 208.144609 -206.538097 
L 208.23823 -206.558092 
L 208.428985 -206.578088 
L 208.726493 -206.598084 
L 209.11594 -206.618079 
L 209.563454 -206.638075 
L 210.027131 -206.65807 
L 210.468799 -206.678066 
L 210.861823 -206.698062 
L 211.19294 -206.718057 
L 211.459321 -206.738053 
L 211.663879 -206.758049 
L 211.811608 -206.778044 
L 211.90818 -206.79804 
L 211.960466 -206.818035 
L 211.977803 -206.838031 
L 211.972824 -206.858027 
L 211.961059 -206.878022 
L 211.959064 -206.898018 
L 211.981276 -206.918013 
L 212.03633 -206.938009 
L 212.123995 -206.958005 
L 212.234129 -206.978 
L 212.348714 -206.997996 
L 212.447046 -207.017991 
L 212.512732 -207.037987 
L 212.539943 -207.057983 
L 212.536155 -207.077978 
L 212.519776 -207.097974 
L 212.513254 -207.11797 
L 212.53444 -207.137965 
L 212.589946 -207.157961 
L 212.673401 -207.177956 
L 212.769187 -207.197952 
L 212.859607 -207.217948 
L 212.93189 -207.237943 
L 212.981827 -207.257939 
L 213.012862 -207.277934 
L 213.032038 -207.29793 
L 213.045734 -207.317926 
L 213.057765 -207.337921 
L 213.070474 -207.357917 
L 213.087303 -207.377912 
L 213.11437 -207.397908 
L 213.159459 -207.417904 
L 213.228787 -207.437899 
L 213.323497 -207.457895 
L 213.438068 -207.47789 
L 213.561603 -207.497886 
L 213.681284 -207.517882 
L 213.786197 -207.537877 
L 213.869894 -207.557873 
L 213.930936 -207.577869 
L 214.119064 -207.577869 
L 214.119064 -207.577869 
L 214.180106 -207.557873 
L 214.263803 -207.537877 
L 214.368716 -207.517882 
L 214.488397 -207.497886 
L 214.611932 -207.47789 
L 214.726503 -207.457895 
L 214.821213 -207.437899 
L 214.890541 -207.417904 
L 214.93563 -207.397908 
L 214.962697 -207.377912 
L 214.979526 -207.357917 
L 214.992235 -207.337921 
L 215.004266 -207.317926 
L 215.017962 -207.29793 
L 215.037138 -207.277934 
L 215.068173 -207.257939 
L 215.11811 -207.237943 
L 215.190393 -207.217948 
L 215.280813 -207.197952 
L 215.376599 -207.177956 
L 215.460054 -207.157961 
L 215.51556 -207.137965 
L 215.536746 -207.11797 
L 215.530224 -207.097974 
L 215.513845 -207.077978 
L 215.510057 -207.057983 
L 215.537268 -207.037987 
L 215.602954 -207.017991 
L 215.701286 -206.997996 
L 215.815871 -206.978 
L 215.926005 -206.958005 
L 216.01367 -206.938009 
L 216.068724 -206.918013 
L 216.090936 -206.898018 
L 216.088941 -206.878022 
L 216.077176 -206.858027 
L 216.072197 -206.838031 
L 216.089534 -206.818035 
L 216.14182 -206.79804 
L 216.238392 -206.778044 
L 216.386121 -206.758049 
L 216.590679 -206.738053 
L 216.85706 -206.718057 
L 217.188177 -206.698062 
L 217.581201 -206.678066 
L 218.022869 -206.65807 
L 218.486546 -206.638075 
L 218.93406 -206.618079 
L 219.323507 -206.598084 
L 219.621015 -206.578088 
L 219.81177 -206.558092 
L 219.905391 -206.538097 
L 219.93331 -206.518101 
L 219.939555 -206.498106 
L 219.968863 -206.47811 
L 220.056045 -206.458114 
L 220.218764 -206.438119 
L 220.454063 -206.418123 
L 220.73838 -206.398128 
L 221.031074 -206.378132 
L 221.281523 -206.358136 
L 221.438913 -206.338141 
L 221.4625 -206.318145 
L 221.329558 -206.298149 
L 221.03916 -206.278154 
L 220.61161 -206.258158 
L 220.084514 -206.238163 
L 219.506351 -206.218167 
L 218.927899 -206.198171 
L 218.392112 -206.178176 
L 217.924635 -206.15818 
L 217.528628 -206.138185 
L 217.187141 -206.118189 
L 216.873224 -206.098193 
L 216.563781 -206.078198 
L 216.250776 -206.058202 
L 215.944561 -206.038207 
L 215.668261 -206.018211 
L 215.446759 -205.998215 
L 215.296123 -205.97822 
L 215.218234 -205.958224 
L 215.201968 -205.938228 
L 215.228857 -205.918233 
L 215.279461 -205.898237 
L 215.337388 -205.878242 
L 215.390033 -205.858246 
L 215.427159 -205.83825 
L 215.439339 -205.818255 
L 215.417799 -205.798259 
L 215.355954 -205.778264 
L 215.251762 -205.758268 
L 215.109529 -205.738272 
L 214.940031 -205.718277 
L 214.758621 -205.698281 
L 214.58188 -205.678286 
L 214.424 -205.65829 
L 214.294154 -205.638294 
L 214.195582 -205.618299 
L 214.126396 -205.598303 
z
" id="mfe8e706a52" style="stroke:#393939;stroke-width:0.4;"/>
    </defs>
    <g clip-path="url(#p7539fabff7)">
     <use style="fill:#a718a7;stroke:#393939;stroke-width:0.4;" x="0" xlink:href="#mfe8e706a52" y="489.6"/>
    </g>
   </g>
   <g id="PolyCollection_7">
    <defs>
     <path d="M 65.301312 -296.979236 
L 65.248688 -296.979236 
L 65.224693 -296.979236 
L 65.190247 -296.979236 
L 65.149182 -296.979236 
L 65.110417 -296.979236 
L 65.085293 -296.979236 
L 65.082319 -296.979236 
L 65.102555 -296.979236 
L 65.139006 -296.979236 
L 65.180497 -296.979236 
L 65.217133 -296.979236 
L 65.243778 -296.979236 
L 65.260156 -296.979236 
L 65.268781 -296.979236 
L 65.272704 -296.979236 
L 65.274253 -296.979236 
L 65.274786 -296.979236 
L 65.274946 -296.979236 
L 65.274988 -296.979236 
L 65.274998 -296.979236 
L 65.275 -296.979236 
L 65.275 -296.979236 
L 65.275 -296.979236 
L 65.275 -296.979236 
L 65.275 -296.979236 
L 65.275 -296.979236 
L 65.275 -296.979236 
L 65.275 -296.979236 
L 65.275 -296.979236 
L 65.275 -296.979236 
L 65.275 -296.979236 
L 65.275 -296.979236 
L 65.275 -296.979236 
L 65.275 -296.979236 
L 65.275 -296.979236 
L 65.275 -296.979236 
L 65.275 -296.979236 
L 65.274998 -296.979236 
L 65.274991 -296.979236 
L 65.274964 -296.979236 
L 65.274871 -296.979236 
L 65.274597 -296.979236 
L 65.273892 -296.979236 
L 65.272314 -296.979236 
L 65.269262 -296.979237 
L 65.264199 -296.979237 
L 65.257084 -296.979237 
L 65.248814 -296.979237 
L 65.241274 -296.979237 
L 65.236726 -296.979237 
L 65.236726 -296.979237 
L 65.241274 -296.979237 
L 65.248813 -296.979237 
L 65.257084 -296.979237 
L 65.264199 -296.979237 
L 65.269262 -296.979237 
L 65.272314 -296.979237 
L 65.273892 -296.979237 
L 65.274597 -296.979237 
L 65.274871 -296.979237 
L 65.274964 -296.979237 
L 65.274991 -296.979237 
L 65.274998 -296.979237 
L 65.275 -296.979237 
L 65.275 -296.979237 
L 65.275 -296.979237 
L 65.275 -296.979237 
L 65.275 -296.979237 
L 65.275 -296.979237 
L 65.275 -296.979237 
L 65.275 -296.979237 
L 65.275 -296.979237 
L 65.275 -296.979237 
L 65.275 -296.979237 
L 65.275 -296.979237 
L 65.275 -296.979237 
L 65.275 -296.979237 
L 65.275 -296.979237 
L 65.274998 -296.979237 
L 65.274984 -296.979237 
L 65.274909 -296.979237 
L 65.274536 -296.979237 
L 65.272913 -296.979237 
L 65.266738 -296.979237 
L 65.246175 -296.979237 
L 65.186384 -296.979237 
L 65.03495 -296.979237 
L 64.702007 -296.979237 
L 64.069814 -296.979237 
L 63.041347 -296.979237 
L 61.62718 -296.979237 
L 60.025617 -296.979237 
L 58.618601 -296.979237 
L 57.8375 -296.979237 
L 57.9523 -296.979237 
L 58.922097 -296.979237 
L 60.418428 -296.979237 
L 62.003525 -296.979237 
L 63.333157 -296.979237 
L 64.259356 -296.979237 
L 66.290644 -296.979237 
L 66.290644 -296.979237 
L 67.216843 -296.979237 
L 68.546475 -296.979237 
L 70.131572 -296.979237 
L 71.627903 -296.979237 
L 72.5977 -296.979237 
L 72.7125 -296.979237 
L 71.931399 -296.979237 
L 70.524383 -296.979237 
L 68.92282 -296.979237 
L 67.508653 -296.979237 
L 66.480186 -296.979237 
L 65.847993 -296.979237 
L 65.51505 -296.979237 
L 65.363616 -296.979237 
L 65.303825 -296.979237 
L 65.283262 -296.979237 
L 65.277087 -296.979237 
L 65.275464 -296.979237 
L 65.275091 -296.979237 
L 65.275016 -296.979237 
L 65.275002 -296.979237 
L 65.275 -296.979237 
L 65.275 -296.979237 
L 65.275 -296.979237 
L 65.275 -296.979237 
L 65.275 -296.979237 
L 65.275 -296.979237 
L 65.275 -296.979237 
L 65.275 -296.979237 
L 65.275 -296.979237 
L 65.275 -296.979237 
L 65.275 -296.979237 
L 65.275 -296.979237 
L 65.275 -296.979237 
L 65.275 -296.979237 
L 65.275 -296.979237 
L 65.275002 -296.979237 
L 65.275009 -296.979237 
L 65.275036 -296.979237 
L 65.275129 -296.979237 
L 65.275403 -296.979237 
L 65.276108 -296.979237 
L 65.277686 -296.979237 
L 65.280738 -296.979237 
L 65.285801 -296.979237 
L 65.292916 -296.979237 
L 65.301187 -296.979237 
L 65.308726 -296.979237 
L 65.313274 -296.979237 
L 65.313274 -296.979237 
L 65.308726 -296.979237 
L 65.301186 -296.979237 
L 65.292916 -296.979237 
L 65.285801 -296.979237 
L 65.280738 -296.979237 
L 65.277686 -296.979236 
L 65.276108 -296.979236 
L 65.275403 -296.979236 
L 65.275129 -296.979236 
L 65.275036 -296.979236 
L 65.275009 -296.979236 
L 65.275002 -296.979236 
L 65.275 -296.979236 
L 65.275 -296.979236 
L 65.275 -296.979236 
L 65.275 -296.979236 
L 65.275 -296.979236 
L 65.275 -296.979236 
L 65.275 -296.979236 
L 65.275 -296.979236 
L 65.275 -296.979236 
L 65.275 -296.979236 
L 65.275 -296.979236 
L 65.275 -296.979236 
L 65.275 -296.979236 
L 65.275 -296.979236 
L 65.275 -296.979236 
L 65.275 -296.979236 
L 65.275 -296.979236 
L 65.275002 -296.979236 
L 65.275012 -296.979236 
L 65.275054 -296.979236 
L 65.275214 -296.979236 
L 65.275747 -296.979236 
L 65.277296 -296.979236 
L 65.281219 -296.979236 
L 65.289844 -296.979236 
L 65.306222 -296.979236 
L 65.332867 -296.979236 
L 65.369503 -296.979236 
L 65.410994 -296.979236 
L 65.447445 -296.979236 
L 65.467681 -296.979236 
L 65.464707 -296.979236 
L 65.439583 -296.979236 
L 65.400818 -296.979236 
L 65.359753 -296.979236 
L 65.325307 -296.979236 
L 65.301312 -296.979236 
z
" id="ma629df2367" style="stroke:#4c4c4c;stroke-width:0.4;"/>
    </defs>
    <g clip-path="url(#p7539fabff7)">
     <use style="fill:#2020df;stroke:#4c4c4c;stroke-width:0.4;" x="0" xlink:href="#ma629df2367" y="489.6"/>
    </g>
   </g>
   <g id="PolyCollection_8">
    <defs>
     <path d="M 95.579663 -230.170316 
L 94.470337 -230.170316 
L 94.208771 -230.730284 
L 93.872591 -231.290252 
L 93.463964 -231.850221 
L 92.996234 -232.410189 
L 92.49532 -232.970157 
L 91.998653 -233.530125 
L 91.551229 -234.090093 
L 91.199093 -234.650061 
L 90.981428 -235.21003 
L 90.92301 -235.769998 
L 91.028853 -236.329966 
L 91.282361 -236.889934 
L 91.647343 -237.449902 
L 92.073184 -238.00987 
L 92.501709 -238.569839 
L 92.874119 -239.129807 
L 93.136777 -239.689775 
L 93.245433 -240.249743 
L 93.168252 -240.809711 
L 92.888397 -241.36968 
L 92.40676 -241.929648 
L 91.74473 -242.489616 
L 90.946059 -243.049584 
L 90.076298 -243.609552 
L 89.218346 -244.16952 
L 88.463528 -244.729489 
L 87.899022 -245.289457 
L 87.593971 -245.849425 
L 87.5875 -246.409393 
L 87.881796 -246.969361 
L 88.442197 -247.529329 
L 89.204356 -248.089298 
L 90.086588 -248.649266 
L 91.004226 -249.209234 
L 91.882563 -249.769202 
L 92.665757 -250.32917 
L 93.320543 -250.889138 
L 93.835093 -251.449107 
L 94.2145 -252.009075 
L 94.474795 -252.569043 
L 94.637206 -253.129011 
L 94.723773 -253.688979 
L 94.75473 -254.248948 
L 94.747454 -254.808916 
L 94.716464 -255.368884 
L 94.673882 -255.928852 
L 94.629846 -256.48882 
L 94.592653 -257.048788 
L 94.568577 -257.608757 
L 94.561534 -258.168725 
L 94.572797 -258.728693 
L 94.600966 -259.288661 
L 94.642245 -259.848629 
L 94.690997 -260.408597 
L 94.740381 -260.968566 
L 94.782885 -261.528534 
L 94.810599 -262.088502 
L 94.815216 -262.64847 
L 94.787879 -263.208438 
L 94.719169 -263.768406 
L 94.599548 -264.328375 
L 94.420546 -264.888343 
L 94.176741 -265.448311 
L 93.868323 -266.008279 
L 93.503623 -266.568247 
L 93.10082 -267.128216 
L 92.687935 -267.688184 
L 92.300558 -268.248152 
L 91.977307 -268.80812 
L 91.753712 -269.368088 
L 91.655859 -269.928056 
L 91.695348 -270.488025 
L 91.866907 -271.047993 
L 92.149304 -271.607961 
L 92.50929 -272.167929 
L 92.907517 -272.727897 
L 93.304919 -273.287865 
L 93.668135 -273.847834 
L 93.973011 -274.407802 
L 94.205915 -274.96777 
L 94.363194 -275.527738 
L 94.449453 -276.087706 
L 94.475357 -276.647675 
L 94.455466 -277.207643 
L 94.406317 -277.767611 
L 94.344752 -278.327579 
L 94.286392 -278.887547 
L 94.24423 -279.447515 
L 94.227452 -280.007484 
L 94.240662 -280.567452 
L 94.283725 -281.12742 
L 94.352319 -281.687388 
L 94.439114 -282.247356 
L 94.535328 -282.807324 
L 94.632314 -283.367293 
L 94.722856 -283.927261 
L 94.80195 -284.487229 
L 94.867019 -285.047197 
L 94.917646 -285.607165 
L 95.132354 -285.607165 
L 95.132354 -285.607165 
L 95.182981 -285.047197 
L 95.24805 -284.487229 
L 95.327144 -283.927261 
L 95.417686 -283.367293 
L 95.514672 -282.807324 
L 95.610886 -282.247356 
L 95.697681 -281.687388 
L 95.766275 -281.12742 
L 95.809338 -280.567452 
L 95.822548 -280.007484 
L 95.80577 -279.447515 
L 95.763608 -278.887547 
L 95.705248 -278.327579 
L 95.643683 -277.767611 
L 95.594534 -277.207643 
L 95.574643 -276.647675 
L 95.600547 -276.087706 
L 95.686806 -275.527738 
L 95.844085 -274.96777 
L 96.076989 -274.407802 
L 96.381865 -273.847834 
L 96.745081 -273.287865 
L 97.142483 -272.727897 
L 97.54071 -272.167929 
L 97.900696 -271.607961 
L 98.183093 -271.047993 
L 98.354652 -270.488025 
L 98.394141 -269.928056 
L 98.296288 -269.368088 
L 98.072693 -268.80812 
L 97.749442 -268.248152 
L 97.362065 -267.688184 
L 96.94918 -267.128216 
L 96.546377 -266.568247 
L 96.181677 -266.008279 
L 95.873259 -265.448311 
L 95.629454 -264.888343 
L 95.450452 -264.328375 
L 95.330831 -263.768406 
L 95.262121 -263.208438 
L 95.234784 -262.64847 
L 95.239401 -262.088502 
L 95.267115 -261.528534 
L 95.309619 -260.968566 
L 95.359003 -260.408597 
L 95.407755 -259.848629 
L 95.449034 -259.288661 
L 95.477203 -258.728693 
L 95.488466 -258.168725 
L 95.481423 -257.608757 
L 95.457347 -257.048788 
L 95.420154 -256.48882 
L 95.376118 -255.928852 
L 95.333536 -255.368884 
L 95.302546 -254.808916 
L 95.29527 -254.248948 
L 95.326227 -253.688979 
L 95.412794 -253.129011 
L 95.575205 -252.569043 
L 95.8355 -252.009075 
L 96.214907 -251.449107 
L 96.729457 -250.889138 
L 97.384243 -250.32917 
L 98.167437 -249.769202 
L 99.045774 -249.209234 
L 99.963412 -248.649266 
L 100.845644 -248.089298 
L 101.607803 -247.529329 
L 102.168204 -246.969361 
L 102.4625 -246.409393 
L 102.456029 -245.849425 
L 102.150978 -245.289457 
L 101.586472 -244.729489 
L 100.831654 -244.16952 
L 99.973702 -243.609552 
L 99.103941 -243.049584 
L 98.30527 -242.489616 
L 97.64324 -241.929648 
L 97.161603 -241.36968 
L 96.881748 -240.809711 
L 96.804567 -240.249743 
L 96.913223 -239.689775 
L 97.175881 -239.129807 
L 97.548291 -238.569839 
L 97.976816 -238.00987 
L 98.402657 -237.449902 
L 98.767639 -236.889934 
L 99.021147 -236.329966 
L 99.12699 -235.769998 
L 99.068572 -235.21003 
L 98.850907 -234.650061 
L 98.498771 -234.090093 
L 98.051347 -233.530125 
L 97.55468 -232.970157 
L 97.053766 -232.410189 
L 96.586036 -231.850221 
L 96.177409 -231.290252 
L 95.841229 -230.730284 
L 95.579663 -230.170316 
z
" id="m5eba4b5ba8" style="stroke:#4c4c4c;stroke-width:0.4;"/>
    </defs>
    <g clip-path="url(#p7539fabff7)">
     <use style="fill:#2020df;stroke:#4c4c4c;stroke-width:0.4;" x="0" xlink:href="#m5eba4b5ba8" y="489.6"/>
    </g>
   </g>
   <g id="PolyCollection_9">
    <defs>
     <path d="M 125.296145 -218.14948 
L 124.253855 -218.14948 
L 123.849635 -218.635919 
L 123.283075 -219.122357 
L 122.590312 -219.608796 
L 121.867619 -220.095234 
L 121.25442 -220.581673 
L 120.886412 -221.068112 
L 120.838156 -221.55455 
L 121.087323 -222.040989 
L 121.524163 -222.527427 
L 122.002648 -223.013866 
L 122.403528 -223.500304 
L 122.673523 -223.986743 
L 122.822525 -224.473181 
L 122.887442 -224.95962 
L 122.888399 -225.446059 
L 122.802039 -225.932497 
L 122.563403 -226.418936 
L 122.094049 -226.905374 
L 121.346051 -227.391813 
L 120.346929 -227.878251 
L 119.225645 -228.36469 
L 118.198907 -228.851129 
L 117.509747 -229.337567 
L 117.3375 -229.824006 
L 117.722815 -230.310444 
L 118.550253 -230.796883 
L 119.599294 -231.283321 
L 120.634108 -231.76976 
L 121.483645 -232.256198 
L 122.07786 -232.742637 
L 122.437178 -233.229076 
L 122.635196 -233.715514 
L 122.757365 -234.201953 
L 122.868561 -234.688391 
L 122.993803 -235.17483 
L 123.114378 -235.661268 
L 123.181355 -236.147707 
L 123.14403 -236.634146 
L 122.98273 -237.120584 
L 122.730007 -237.607023 
L 122.467269 -238.093461 
L 122.295541 -238.5799 
L 122.293283 -239.066338 
L 122.482187 -239.552777 
L 122.817791 -240.039215 
L 123.207787 -240.525654 
L 123.546584 -241.012093 
L 123.749406 -241.498531 
L 123.774469 -241.98497 
L 123.630655 -242.471408 
L 123.372978 -242.957847 
L 123.087751 -243.444285 
L 122.868842 -243.930724 
L 122.789672 -244.417163 
L 122.880609 -244.903601 
L 123.12201 -245.39004 
L 123.456398 -245.876478 
L 123.813158 -246.362917 
L 124.133202 -246.849355 
L 124.383129 -247.335794 
L 124.556 -247.822232 
L 124.662965 -248.308671 
L 124.722536 -248.79511 
L 124.752514 -249.281548 
L 124.766182 -249.767987 
L 124.771837 -250.254425 
L 124.773963 -250.740864 
L 124.774689 -251.227302 
L 124.774915 -251.713741 
L 124.774979 -252.20018 
L 124.774995 -252.686618 
L 124.774999 -253.173057 
L 124.775 -253.659495 
L 124.775 -254.145934 
L 124.775 -254.632372 
L 124.775 -255.118811 
L 124.774998 -255.605249 
L 124.774992 -256.091688 
L 124.77497 -256.578127 
L 124.774892 -257.064565 
L 124.774653 -257.551004 
L 124.773988 -258.037442 
L 124.772316 -258.523881 
L 124.76854 -259.010319 
L 124.760887 -259.496758 
L 124.747012 -259.983197 
L 124.724618 -260.469635 
L 124.692675 -260.956074 
L 124.652893 -261.442512 
L 124.610599 -261.928951 
L 124.574079 -262.415389 
L 124.552104 -262.901828 
L 124.550542 -263.388266 
L 124.569826 -263.874705 
L 124.604758 -264.361144 
L 124.646777 -264.847582 
L 124.687336 -265.334021 
L 124.720596 -265.820459 
L 124.744353 -266.306898 
L 124.805647 -266.306898 
L 124.805647 -266.306898 
L 124.829404 -265.820459 
L 124.862664 -265.334021 
L 124.903223 -264.847582 
L 124.945242 -264.361144 
L 124.980174 -263.874705 
L 124.999458 -263.388266 
L 124.997896 -262.901828 
L 124.975921 -262.415389 
L 124.939401 -261.928951 
L 124.897107 -261.442512 
L 124.857325 -260.956074 
L 124.825382 -260.469635 
L 124.802988 -259.983197 
L 124.789113 -259.496758 
L 124.78146 -259.010319 
L 124.777684 -258.523881 
L 124.776012 -258.037442 
L 124.775347 -257.551004 
L 124.775108 -257.064565 
L 124.77503 -256.578127 
L 124.775008 -256.091688 
L 124.775002 -255.605249 
L 124.775 -255.118811 
L 124.775 -254.632372 
L 124.775 -254.145934 
L 124.775 -253.659495 
L 124.775001 -253.173057 
L 124.775005 -252.686618 
L 124.775021 -252.20018 
L 124.775085 -251.713741 
L 124.775311 -251.227302 
L 124.776037 -250.740864 
L 124.778163 -250.254425 
L 124.783818 -249.767987 
L 124.797486 -249.281548 
L 124.827464 -248.79511 
L 124.887035 -248.308671 
L 124.994 -247.822232 
L 125.166871 -247.335794 
L 125.416798 -246.849355 
L 125.736842 -246.362917 
L 126.093602 -245.876478 
L 126.42799 -245.39004 
L 126.669391 -244.903601 
L 126.760328 -244.417163 
L 126.681158 -243.930724 
L 126.462249 -243.444285 
L 126.177022 -242.957847 
L 125.919345 -242.471408 
L 125.775531 -241.98497 
L 125.800594 -241.498531 
L 126.003416 -241.012093 
L 126.342213 -240.525654 
L 126.732209 -240.039215 
L 127.067813 -239.552777 
L 127.256717 -239.066338 
L 127.254459 -238.5799 
L 127.082731 -238.093461 
L 126.819993 -237.607023 
L 126.56727 -237.120584 
L 126.40597 -236.634146 
L 126.368645 -236.147707 
L 126.435622 -235.661268 
L 126.556197 -235.17483 
L 126.681439 -234.688391 
L 126.792635 -234.201953 
L 126.914804 -233.715514 
L 127.112822 -233.229076 
L 127.47214 -232.742637 
L 128.066355 -232.256198 
L 128.915892 -231.76976 
L 129.950706 -231.283321 
L 130.999747 -230.796883 
L 131.827185 -230.310444 
L 132.2125 -229.824006 
L 132.040253 -229.337567 
L 131.351093 -228.851129 
L 130.324355 -228.36469 
L 129.203071 -227.878251 
L 128.203949 -227.391813 
L 127.455951 -226.905374 
L 126.986597 -226.418936 
L 126.747961 -225.932497 
L 126.661601 -225.446059 
L 126.662558 -224.95962 
L 126.727475 -224.473181 
L 126.876477 -223.986743 
L 127.146472 -223.500304 
L 127.547352 -223.013866 
L 128.025837 -222.527427 
L 128.462677 -222.040989 
L 128.711844 -221.55455 
L 128.663588 -221.068112 
L 128.29558 -220.581673 
L 127.682381 -220.095234 
L 126.959688 -219.608796 
L 126.266925 -219.122357 
L 125.700365 -218.635919 
L 125.296145 -218.14948 
z
" id="ma4c1cc56b8" style="stroke:#4c4c4c;stroke-width:0.4;"/>
    </defs>
    <g clip-path="url(#p7539fabff7)">
     <use style="fill:#2020df;stroke:#4c4c4c;stroke-width:0.4;" x="0" xlink:href="#ma4c1cc56b8" y="489.6"/>
    </g>
   </g>
   <g id="PolyCollection_10">
    <defs>
     <path d="M 155.457576 -212.026846 
L 153.592424 -212.026846 
L 153.198055 -212.341553 
L 152.700207 -212.65626 
L 152.099616 -212.970966 
L 151.409153 -213.285673 
L 150.65568 -213.60038 
L 149.879756 -213.915086 
L 149.132652 -214.229793 
L 148.470683 -214.5445 
L 147.947563 -214.859207 
L 147.606129 -215.173913 
L 147.471143 -215.48862 
L 147.544829 -215.803327 
L 147.806278 -216.118034 
L 148.215017 -216.43274 
L 148.718033 -216.747447 
L 149.258768 -217.062154 
L 149.786146 -217.37686 
L 150.261781 -217.691567 
L 150.664001 -218.006274 
L 150.988181 -218.320981 
L 151.243651 -218.635687 
L 151.448249 -218.950394 
L 151.621885 -219.265101 
L 151.780607 -219.579807 
L 151.932314 -219.894514 
L 152.074841 -220.209221 
L 152.196545 -220.523928 
L 152.279065 -220.838634 
L 152.301546 -221.153341 
L 152.245443 -221.468048 
L 152.098985 -221.782755 
L 151.86047 -222.097461 
L 151.539758 -222.412168 
L 151.157604 -222.726875 
L 150.742811 -223.041581 
L 150.327567 -223.356288 
L 149.941759 -223.670995 
L 149.607333 -223.985702 
L 149.333985 -224.300408 
L 149.117266 -224.615115 
L 148.939857 -224.929822 
L 148.776004 -225.244528 
L 148.5984 -225.559235 
L 148.386033 -225.873942 
L 148.13117 -226.188649 
L 147.843664 -226.503355 
L 147.55133 -226.818062 
L 147.29604 -227.132769 
L 147.126236 -227.447475 
L 147.0875 -227.762182 
L 147.213308 -228.076889 
L 147.518047 -228.391596 
L 147.993782 -228.706302 
L 148.611301 -229.021009 
L 149.324926 -229.335716 
L 150.079777 -229.650423 
L 150.819784 -229.965129 
L 151.494849 -230.279836 
L 152.06604 -230.594543 
L 152.50836 -230.909249 
L 152.811264 -231.223956 
L 152.97747 -231.538663 
L 153.020743 -231.85337 
L 152.963199 -232.168076 
L 152.832452 -232.482783 
L 152.658695 -232.79749 
L 152.471727 -233.112196 
L 152.297957 -233.426903 
L 152.157602 -233.74161 
L 152.06242 -234.056317 
L 152.014421 -234.371023 
L 152.005939 -234.68573 
L 152.021217 -235.000437 
L 152.039354 -235.315144 
L 152.038172 -235.62985 
L 151.998306 -235.944557 
L 151.906781 -236.259264 
L 151.759426 -236.57397 
L 151.561769 -236.888677 
L 151.32831 -237.203384 
L 151.080455 -237.518091 
L 150.843526 -237.832797 
L 150.643435 -238.147504 
L 150.503509 -238.462211 
L 150.441886 -238.776917 
L 150.469711 -239.091624 
L 150.590248 -239.406331 
L 150.798891 -239.721038 
L 151.083988 -240.035744 
L 151.428353 -240.350451 
L 151.81127 -240.665158 
L 152.210752 -240.979865 
L 152.605782 -241.294571 
L 152.978252 -241.609278 
L 153.314354 -241.923985 
L 153.605282 -242.238691 
L 153.84722 -242.553398 
L 154.040719 -242.868105 
L 154.189662 -243.182812 
L 154.860338 -243.182812 
L 154.860338 -243.182812 
L 155.009281 -242.868105 
L 155.20278 -242.553398 
L 155.444718 -242.238691 
L 155.735646 -241.923985 
L 156.071748 -241.609278 
L 156.444218 -241.294571 
L 156.839248 -240.979865 
L 157.23873 -240.665158 
L 157.621647 -240.350451 
L 157.966012 -240.035744 
L 158.251109 -239.721038 
L 158.459752 -239.406331 
L 158.580289 -239.091624 
L 158.608114 -238.776917 
L 158.546491 -238.462211 
L 158.406565 -238.147504 
L 158.206474 -237.832797 
L 157.969545 -237.518091 
L 157.72169 -237.203384 
L 157.488231 -236.888677 
L 157.290574 -236.57397 
L 157.143219 -236.259264 
L 157.051694 -235.944557 
L 157.011828 -235.62985 
L 157.010646 -235.315144 
L 157.028783 -235.000437 
L 157.044061 -234.68573 
L 157.035579 -234.371023 
L 156.98758 -234.056317 
L 156.892398 -233.74161 
L 156.752043 -233.426903 
L 156.578273 -233.112196 
L 156.391305 -232.79749 
L 156.217548 -232.482783 
L 156.086801 -232.168076 
L 156.029257 -231.85337 
L 156.07253 -231.538663 
L 156.238736 -231.223956 
L 156.54164 -230.909249 
L 156.98396 -230.594543 
L 157.555151 -230.279836 
L 158.230216 -229.965129 
L 158.970223 -229.650423 
L 159.725074 -229.335716 
L 160.438699 -229.021009 
L 161.056218 -228.706302 
L 161.531953 -228.391596 
L 161.836692 -228.076889 
L 161.9625 -227.762182 
L 161.923764 -227.447475 
L 161.75396 -227.132769 
L 161.49867 -226.818062 
L 161.206336 -226.503355 
L 160.91883 -226.188649 
L 160.663967 -225.873942 
L 160.4516 -225.559235 
L 160.273996 -225.244528 
L 160.110143 -224.929822 
L 159.932734 -224.615115 
L 159.716015 -224.300408 
L 159.442667 -223.985702 
L 159.108241 -223.670995 
L 158.722433 -223.356288 
L 158.307189 -223.041581 
L 157.892396 -222.726875 
L 157.510242 -222.412168 
L 157.18953 -222.097461 
L 156.951015 -221.782755 
L 156.804557 -221.468048 
L 156.748454 -221.153341 
L 156.770935 -220.838634 
L 156.853455 -220.523928 
L 156.975159 -220.209221 
L 157.117686 -219.894514 
L 157.269393 -219.579807 
L 157.428115 -219.265101 
L 157.601751 -218.950394 
L 157.806349 -218.635687 
L 158.061819 -218.320981 
L 158.385999 -218.006274 
L 158.788219 -217.691567 
L 159.263854 -217.37686 
L 159.791232 -217.062154 
L 160.331967 -216.747447 
L 160.834983 -216.43274 
L 161.243722 -216.118034 
L 161.505171 -215.803327 
L 161.578857 -215.48862 
L 161.443871 -215.173913 
L 161.102437 -214.859207 
L 160.579317 -214.5445 
L 159.917348 -214.229793 
L 159.170244 -213.915086 
L 158.39432 -213.60038 
L 157.640847 -213.285673 
L 156.950384 -212.970966 
L 156.349793 -212.65626 
L 155.851945 -212.341553 
L 155.457576 -212.026846 
z
" id="me5324e886f" style="stroke:#4c4c4c;stroke-width:0.4;"/>
    </defs>
    <g clip-path="url(#p7539fabff7)">
     <use style="fill:#2020df;stroke:#4c4c4c;stroke-width:0.4;" x="0" xlink:href="#me5324e886f" y="489.6"/>
    </g>
   </g>
   <g id="PolyCollection_11">
    <defs>
     <path d="M 185.28164 -216.127768 
L 183.26836 -216.127768 
L 183.0239 -216.157081 
L 182.739398 -216.186395 
L 182.413623 -216.215709 
L 182.046777 -216.245022 
L 181.640782 -216.274336 
L 181.199514 -216.303649 
L 180.728952 -216.332963 
L 180.237205 -216.362277 
L 179.734405 -216.39159 
L 179.232451 -216.420904 
L 178.744603 -216.450217 
L 178.284938 -216.479531 
L 177.867698 -216.508845 
L 177.506571 -216.538158 
L 177.213948 -216.567472 
L 177.000222 -216.596785 
L 176.873173 -216.626099 
L 176.8375 -216.655413 
L 176.894533 -216.684726 
L 177.042149 -216.71404 
L 177.274903 -216.743354 
L 177.584363 -216.772667 
L 177.959617 -216.801981 
L 178.387909 -216.831294 
L 178.855358 -216.860608 
L 179.347696 -216.889922 
L 179.850982 -216.919235 
L 180.352226 -216.948549 
L 180.839907 -216.977862 
L 181.304342 -217.007176 
L 181.737911 -217.03649 
L 182.135129 -217.065803 
L 182.492586 -217.095117 
L 182.80878 -217.12443 
L 183.083868 -217.153744 
L 183.319364 -217.183058 
L 183.517818 -217.212371 
L 183.682495 -217.241685 
L 183.817086 -217.270998 
L 183.925444 -217.300312 
L 184.011383 -217.329626 
L 184.078509 -217.358939 
L 184.130111 -217.388253 
L 184.169086 -217.417566 
L 184.197906 -217.44688 
L 184.218598 -217.476194 
L 184.232757 -217.505507 
L 184.241556 -217.534821 
L 184.245765 -217.564134 
L 184.245765 -217.593448 
L 184.241556 -217.622762 
L 184.232757 -217.652075 
L 184.218598 -217.681389 
L 184.197906 -217.710702 
L 184.169086 -217.740016 
L 184.130111 -217.76933 
L 184.078509 -217.798643 
L 184.011383 -217.827957 
L 183.925444 -217.85727 
L 183.817086 -217.886584 
L 183.682495 -217.915898 
L 183.517818 -217.945211 
L 183.319364 -217.974525 
L 183.083868 -218.003838 
L 182.80878 -218.033152 
L 182.492586 -218.062466 
L 182.135129 -218.091779 
L 181.737911 -218.121093 
L 181.304342 -218.150406 
L 180.839907 -218.17972 
L 180.352226 -218.209034 
L 179.850982 -218.238347 
L 179.347696 -218.267661 
L 178.855358 -218.296974 
L 178.387909 -218.326288 
L 177.959617 -218.355602 
L 177.584363 -218.384915 
L 177.274903 -218.414229 
L 177.042149 -218.443543 
L 176.894533 -218.472856 
L 176.8375 -218.50217 
L 176.873173 -218.531483 
L 177.000222 -218.560797 
L 177.213948 -218.590111 
L 177.506571 -218.619424 
L 177.867698 -218.648738 
L 178.284938 -218.678051 
L 178.744603 -218.707365 
L 179.232451 -218.736679 
L 179.734405 -218.765992 
L 180.237205 -218.795306 
L 180.728952 -218.824619 
L 181.199514 -218.853933 
L 181.640782 -218.883247 
L 182.046777 -218.91256 
L 182.413623 -218.941874 
L 182.739398 -218.971187 
L 183.0239 -219.000501 
L 183.26836 -219.029815 
L 185.28164 -219.029815 
L 185.28164 -219.029815 
L 185.5261 -219.000501 
L 185.810602 -218.971187 
L 186.136377 -218.941874 
L 186.503223 -218.91256 
L 186.909218 -218.883247 
L 187.350486 -218.853933 
L 187.821048 -218.824619 
L 188.312795 -218.795306 
L 188.815595 -218.765992 
L 189.317549 -218.736679 
L 189.805397 -218.707365 
L 190.265062 -218.678051 
L 190.682302 -218.648738 
L 191.043429 -218.619424 
L 191.336052 -218.590111 
L 191.549778 -218.560797 
L 191.676827 -218.531483 
L 191.7125 -218.50217 
L 191.655467 -218.472856 
L 191.507851 -218.443543 
L 191.275097 -218.414229 
L 190.965637 -218.384915 
L 190.590383 -218.355602 
L 190.162091 -218.326288 
L 189.694642 -218.296974 
L 189.202304 -218.267661 
L 188.699018 -218.238347 
L 188.197774 -218.209034 
L 187.710093 -218.17972 
L 187.245658 -218.150406 
L 186.812089 -218.121093 
L 186.414871 -218.091779 
L 186.057414 -218.062466 
L 185.74122 -218.033152 
L 185.466132 -218.003838 
L 185.230636 -217.974525 
L 185.032182 -217.945211 
L 184.867505 -217.915898 
L 184.732914 -217.886584 
L 184.624556 -217.85727 
L 184.538617 -217.827957 
L 184.471491 -217.798643 
L 184.419889 -217.76933 
L 184.380914 -217.740016 
L 184.352094 -217.710702 
L 184.331402 -217.681389 
L 184.317243 -217.652075 
L 184.308444 -217.622762 
L 184.304235 -217.593448 
L 184.304235 -217.564134 
L 184.308444 -217.534821 
L 184.317243 -217.505507 
L 184.331402 -217.476194 
L 184.352094 -217.44688 
L 184.380914 -217.417566 
L 184.419889 -217.388253 
L 184.471491 -217.358939 
L 184.538617 -217.329626 
L 184.624556 -217.300312 
L 184.732914 -217.270998 
L 184.867505 -217.241685 
L 185.032182 -217.212371 
L 185.230636 -217.183058 
L 185.466132 -217.153744 
L 185.74122 -217.12443 
L 186.057414 -217.095117 
L 186.414871 -217.065803 
L 186.812089 -217.03649 
L 187.245658 -217.007176 
L 187.710093 -216.977862 
L 188.197774 -216.948549 
L 188.699018 -216.919235 
L 189.202304 -216.889922 
L 189.694642 -216.860608 
L 190.162091 -216.831294 
L 190.590383 -216.801981 
L 190.965637 -216.772667 
L 191.275097 -216.743354 
L 191.507851 -216.71404 
L 191.655467 -216.684726 
L 191.7125 -216.655413 
L 191.676827 -216.626099 
L 191.549778 -216.596785 
L 191.336052 -216.567472 
L 191.043429 -216.538158 
L 190.682302 -216.508845 
L 190.265062 -216.479531 
L 189.805397 -216.450217 
L 189.317549 -216.420904 
L 188.815595 -216.39159 
L 188.312795 -216.362277 
L 187.821048 -216.332963 
L 187.350486 -216.303649 
L 186.909218 -216.274336 
L 186.503223 -216.245022 
L 186.136377 -216.215709 
L 185.810602 -216.186395 
L 185.5261 -216.157081 
L 185.28164 -216.127768 
z
" id="mee427d19d1" style="stroke:#4c4c4c;stroke-width:0.4;"/>
    </defs>
    <g clip-path="url(#p7539fabff7)">
     <use style="fill:#2020df;stroke:#4c4c4c;stroke-width:0.4;" x="0" xlink:href="#mee427d19d1" y="489.6"/>
    </g>
   </g>
   <g id="matplotlib.axis_1">
    <g id="xtick_1">
     <g id="line2d_1">
      <defs>
       <path d="M 0 0 
L 0 3.5 
" id="m4524b95ef7" style="stroke:#000000;stroke-width:0.8;"/>
      </defs>
      <g>
       <use style="stroke:#000000;stroke-width:0.8;" x="65.275" xlink:href="#m4524b95ef7" y="284.58"/>
      </g>
     </g>
     <g id="text_1">
      <text style="font-family:DejaVu Sans;font-size:12px;font-style:normal;font-weight:normal;text-anchor:middle;" transform="rotate(-0, 65.275, 300.698125)" x="65.275" y="300.698125">1</text>
     </g>
    </g>
    <g id="xtick_2">
     <g id="line2d_2">
      <g>
       <use style="stroke:#000000;stroke-width:0.8;" x="95.025" xlink:href="#m4524b95ef7" y="284.58"/>
      </g>
     </g>
     <g id="text_2">
      <text style="font-family:DejaVu Sans;font-size:12px;font-style:normal;font-weight:normal;text-anchor:middle;" transform="rotate(-0, 95.025, 300.698125)" x="95.025" y="300.698125">2</text>
     </g>
    </g>
    <g id="xtick_3">
     <g id="line2d_3">
      <g>
       <use style="stroke:#000000;stroke-width:0.8;" x="124.775" xlink:href="#m4524b95ef7" y="284.58"/>
      </g>
     </g>
     <g id="text_3">
      <text style="font-family:DejaVu Sans;font-size:12px;font-style:normal;font-weight:normal;text-anchor:middle;" transform="rotate(-0, 124.775, 300.698125)" x="124.775" y="300.698125">3</text>
     </g>
    </g>
    <g id="xtick_4">
     <g id="line2d_4">
      <g>
       <use style="stroke:#000000;stroke-width:0.8;" x="154.525" xlink:href="#m4524b95ef7" y="284.58"/>
      </g>
     </g>
     <g id="text_4">
      <text style="font-family:DejaVu Sans;font-size:12px;font-style:normal;font-weight:normal;text-anchor:middle;" transform="rotate(-0, 154.525, 300.698125)" x="154.525" y="300.698125">4</text>
     </g>
    </g>
    <g id="xtick_5">
     <g id="line2d_5">
      <g>
       <use style="stroke:#000000;stroke-width:0.8;" x="184.275" xlink:href="#m4524b95ef7" y="284.58"/>
      </g>
     </g>
     <g id="text_5">
      <text style="font-family:DejaVu Sans;font-size:12px;font-style:normal;font-weight:normal;text-anchor:middle;" transform="rotate(-0, 184.275, 300.698125)" x="184.275" y="300.698125">5</text>
     </g>
    </g>
    <g id="text_6">
     <!-- number of fields ($K$) -->
     <g transform="translate(80.01 316.311875)">
      <text>
       <tspan style="font-family:DejaVu Sans;font-size:12px;font-style:book;font-weight:book;" x="0 7.605469 15.210938 26.900391 34.517578 41.900391 46.833984 50.648438 57.990234 62.214844 66.029297 70.253906 73.587891 80.970703 84.304688 91.921875 98.173828 101.988281 114.539062" y="-0.875">numberoffields()</tspan>
       <tspan style="font-family:DejaVu Sans;font-size:12px;font-style:oblique;font-weight:oblique;" x="106.669922" y="-0.875">K</tspan>
      </text>
     </g>
    </g>
   </g>
   <g id="matplotlib.axis_2">
    <g id="ytick_1">
     <g id="line2d_6">
      <defs>
       <path d="M 0 0 
L -3.5 0 
" id="m7e6e27a738" style="stroke:#000000;stroke-width:0.8;"/>
      </defs>
      <g>
       <use style="stroke:#000000;stroke-width:0.8;" x="50.4" xlink:href="#m7e6e27a738" y="284.58"/>
      </g>
     </g>
     <g id="text_7">
      <text style="font-family:DejaVu Sans;font-size:12px;font-style:normal;font-weight:normal;text-anchor:end;" transform="rotate(-0, 43.4, 289.139063)" x="43.4" y="289.139063">0.0</text>
     </g>
    </g>
    <g id="ytick_2">
     <g id="line2d_7">
      <g>
       <use style="stroke:#000000;stroke-width:0.8;" x="50.4" xlink:href="#m7e6e27a738" y="232.56"/>
      </g>
     </g>
     <g id="text_8">
      <text style="font-family:DejaVu Sans;font-size:12px;font-style:normal;font-weight:normal;text-anchor:end;" transform="rotate(-0, 43.4, 237.119063)" x="43.4" y="237.119063">0.2</text>
     </g>
    </g>
    <g id="ytick_3">
     <g id="line2d_8">
      <g>
       <use style="stroke:#000000;stroke-width:0.8;" x="50.4" xlink:href="#m7e6e27a738" y="180.54"/>
      </g>
     </g>
     <g id="text_9">
      <text style="font-family:DejaVu Sans;font-size:12px;font-style:normal;font-weight:normal;text-anchor:end;" transform="rotate(-0, 43.4, 185.099063)" x="43.4" y="185.099063">0.4</text>
     </g>
    </g>
    <g id="text_10">
     <text style="font-family:DejaVu Sans;font-size:12px;font-style:normal;font-weight:normal;text-anchor:middle;" transform="rotate(-90, 17.820625, 232.56)" x="17.820625" y="232.56">margin</text>
    </g>
   </g>
   <g id="line2d_9">
    <path clip-path="url(#p7539fabff7)" d="M 56.35 192.620764 
L 74.2 192.620764 
" style="fill:none;stroke:#000000;stroke-linecap:square;stroke-width:1.5;"/>
   </g>
   <g id="line2d_10">
    <path clip-path="url(#p7539fabff7)" d="M 86.1 209.495598 
L 103.95 209.495598 
" style="fill:none;stroke:#000000;stroke-linecap:square;stroke-width:1.5;"/>
   </g>
   <g id="line2d_11">
    <path clip-path="url(#p7539fabff7)" d="M 86.1 209.495598 
L 103.95 209.495598 
" style="fill:none;stroke:#000000;stroke-linecap:square;stroke-width:1.5;"/>
   </g>
   <g id="line2d_12">
    <path clip-path="url(#p7539fabff7)" d="M 115.85 219.555 
L 133.7 219.555 
" style="fill:none;stroke:#000000;stroke-linecap:square;stroke-width:1.5;"/>
   </g>
   <g id="line2d_13">
    <path clip-path="url(#p7539fabff7)" d="M 115.85 243.454579 
L 133.7 243.454579 
" style="fill:none;stroke:#000000;stroke-linecap:square;stroke-width:1.5;"/>
   </g>
   <g id="line2d_14">
    <path clip-path="url(#p7539fabff7)" d="M 115.85 219.555 
L 133.7 219.555 
" style="fill:none;stroke:#000000;stroke-linecap:square;stroke-width:1.5;"/>
   </g>
   <g id="line2d_15">
    <path clip-path="url(#p7539fabff7)" d="M 145.6 226.419872 
L 163.45 226.419872 
" style="fill:none;stroke:#000000;stroke-linecap:square;stroke-width:1.5;"/>
   </g>
   <g id="line2d_16">
    <path clip-path="url(#p7539fabff7)" d="M 145.6 245.36845 
L 163.45 245.36845 
" style="fill:none;stroke:#000000;stroke-linecap:square;stroke-width:1.5;"/>
   </g>
   <g id="line2d_17">
    <path clip-path="url(#p7539fabff7)" d="M 145.6 245.36845 
L 163.45 245.36845 
" style="fill:none;stroke:#000000;stroke-linecap:square;stroke-width:1.5;"/>
   </g>
   <g id="line2d_18">
    <path clip-path="url(#p7539fabff7)" d="M 145.6 226.419872 
L 163.45 226.419872 
" style="fill:none;stroke:#000000;stroke-linecap:square;stroke-width:1.5;"/>
   </g>
   <g id="line2d_19">
    <path clip-path="url(#p7539fabff7)" d="M 145.6 219.555001 
L 163.45 219.555001 
" style="fill:none;stroke:#000000;stroke-linecap:square;stroke-width:1.5;"/>
   </g>
   <g id="line2d_20">
    <path clip-path="url(#p7539fabff7)" d="M 175.35 231.48731 
L 193.2 231.48731 
" style="fill:none;stroke:#000000;stroke-linecap:square;stroke-width:1.5;"/>
   </g>
   <g id="line2d_21">
    <path clip-path="url(#p7539fabff7)" d="M 175.35 247.037799 
L 193.2 247.037799 
" style="fill:none;stroke:#000000;stroke-linecap:square;stroke-width:1.5;"/>
   </g>
   <g id="line2d_22">
    <path clip-path="url(#p7539fabff7)" d="M 175.35 247.037799 
L 193.2 247.037799 
" style="fill:none;stroke:#000000;stroke-linecap:square;stroke-width:1.5;"/>
   </g>
   <g id="line2d_23">
    <path clip-path="url(#p7539fabff7)" d="M 175.35 247.037799 
L 193.2 247.037799 
" style="fill:none;stroke:#000000;stroke-linecap:square;stroke-width:1.5;"/>
   </g>
   <g id="line2d_24">
    <path clip-path="url(#p7539fabff7)" d="M 175.35 231.48731 
L 193.2 231.48731 
" style="fill:none;stroke:#000000;stroke-linecap:square;stroke-width:1.5;"/>
   </g>
   <g id="line2d_25">
    <path clip-path="url(#p7539fabff7)" d="M 175.35 249.822675 
L 193.2 249.822675 
" style="fill:none;stroke:#000000;stroke-linecap:square;stroke-width:1.5;"/>
   </g>
   <g id="line2d_26">
    <path clip-path="url(#p7539fabff7)" d="M 175.35 249.822675 
L 193.2 249.822675 
" style="fill:none;stroke:#000000;stroke-linecap:square;stroke-width:1.5;"/>
   </g>
   <g id="line2d_27">
    <path clip-path="url(#p7539fabff7)" d="M 205.1 235.42572 
L 222.95 235.42572 
" style="fill:none;stroke:#000000;stroke-linecap:square;stroke-width:1.5;"/>
   </g>
   <g id="line2d_28">
    <path clip-path="url(#p7539fabff7)" d="M 205.1 248.51062 
L 222.95 248.51062 
" style="fill:none;stroke:#000000;stroke-linecap:square;stroke-width:1.5;"/>
   </g>
   <g id="line2d_29">
    <path clip-path="url(#p7539fabff7)" d="M 205.1 248.51062 
L 222.95 248.51062 
" style="fill:none;stroke:#000000;stroke-linecap:square;stroke-width:1.5;"/>
   </g>
   <g id="line2d_30">
    <path clip-path="url(#p7539fabff7)" d="M 205.1 248.51062 
L 222.95 248.51062 
" style="fill:none;stroke:#000000;stroke-linecap:square;stroke-width:1.5;"/>
   </g>
   <g id="line2d_31">
    <path clip-path="url(#p7539fabff7)" d="M 205.1 248.51062 
L 222.95 248.51062 
" style="fill:none;stroke:#000000;stroke-linecap:square;stroke-width:1.5;"/>
   </g>
   <g id="line2d_32">
    <path clip-path="url(#p7539fabff7)" d="M 205.1 235.42572 
L 222.95 235.42572 
" style="fill:none;stroke:#000000;stroke-linecap:square;stroke-width:1.5;"/>
   </g>
   <g id="line2d_33">
    <path clip-path="url(#p7539fabff7)" d="M 205.1 251.001234 
L 222.95 251.001234 
" style="fill:none;stroke:#000000;stroke-linecap:square;stroke-width:1.5;"/>
   </g>
   <g id="line2d_34">
    <path clip-path="url(#p7539fabff7)" d="M 205.1 260.00286 
L 222.95 260.00286 
" style="fill:none;stroke:#000000;stroke-linecap:square;stroke-width:1.5;"/>
   </g>
   <g id="line2d_35">
    <path clip-path="url(#p7539fabff7)" d="M 205.1 251.001234 
L 222.95 251.001234 
" style="fill:none;stroke:#000000;stroke-linecap:square;stroke-width:1.5;"/>
   </g>
   <g id="line2d_36">
    <path clip-path="url(#p7539fabff7)" d="M 205.1 226.419872 
L 222.95 226.419872 
" style="fill:none;stroke:#000000;stroke-linecap:square;stroke-width:1.5;"/>
   </g>
   <g id="line2d_37">
    <path clip-path="url(#p7539fabff7)" d="M 205.1 226.419872 
L 222.95 226.419872 
" style="fill:none;stroke:#000000;stroke-linecap:square;stroke-width:1.5;"/>
   </g>
   <g id="patch_3">
    <path d="M 50.4 284.58 
L 50.4 180.54 
" style="fill:none;stroke:#000000;stroke-linecap:square;stroke-linejoin:miter;stroke-width:0.8;"/>
   </g>
   <g id="patch_4">
    <path d="M 50.4 284.58 
L 228.9 284.58 
" style="fill:none;stroke:#000000;stroke-linecap:square;stroke-linejoin:miter;stroke-width:0.8;"/>
   </g>
  </g>
  <g id="axes_2">
   <g id="patch_5">
    <path d="M 300.3 284.58 
L 478.8 284.58 
L 478.8 180.54 
L 300.3 180.54 
z
" style="fill:#ffffff;"/>
   </g>
   <g id="matplotlib.axis_3">
    <g id="xtick_6">
     <g id="line2d_38">
      <g>
       <use style="stroke:#000000;stroke-width:0.8;" x="300.3" xlink:href="#m4524b95ef7" y="284.58"/>
      </g>
     </g>
     <g id="text_11">
      <text style="font-family:DejaVu Sans;font-size:12px;font-style:normal;font-weight:normal;text-anchor:middle;" transform="rotate(-0, 300.3, 300.698125)" x="300.3" y="300.698125">0.0</text>
     </g>
    </g>
    <g id="xtick_7">
     <g id="line2d_39">
      <g>
       <use style="stroke:#000000;stroke-width:0.8;" x="344.925" xlink:href="#m4524b95ef7" y="284.58"/>
      </g>
     </g>
     <g id="text_12">
      <text style="font-family:DejaVu Sans;font-size:12px;font-style:normal;font-weight:normal;text-anchor:middle;" transform="rotate(-0, 344.925, 300.698125)" x="344.925" y="300.698125">0.1</text>
     </g>
    </g>
    <g id="xtick_8">
     <g id="line2d_40">
      <g>
       <use style="stroke:#000000;stroke-width:0.8;" x="389.55" xlink:href="#m4524b95ef7" y="284.58"/>
      </g>
     </g>
     <g id="text_13">
      <text style="font-family:DejaVu Sans;font-size:12px;font-style:normal;font-weight:normal;text-anchor:middle;" transform="rotate(-0, 389.55, 300.698125)" x="389.55" y="300.698125">0.2</text>
     </g>
    </g>
    <g id="xtick_9">
     <g id="line2d_41">
      <g>
       <use style="stroke:#000000;stroke-width:0.8;" x="434.175" xlink:href="#m4524b95ef7" y="284.58"/>
      </g>
     </g>
     <g id="text_14">
      <text style="font-family:DejaVu Sans;font-size:12px;font-style:normal;font-weight:normal;text-anchor:middle;" transform="rotate(-0, 434.175, 300.698125)" x="434.175" y="300.698125">0.3</text>
     </g>
    </g>
    <g id="xtick_10">
     <g id="line2d_42">
      <g>
       <use style="stroke:#000000;stroke-width:0.8;" x="478.8" xlink:href="#m4524b95ef7" y="284.58"/>
      </g>
     </g>
     <g id="text_15">
      <text style="font-family:DejaVu Sans;font-size:12px;font-style:normal;font-weight:normal;text-anchor:middle;" transform="rotate(-0, 478.8, 300.698125)" x="478.8" y="300.698125">0.4</text>
     </g>
    </g>
    <g id="text_16">
     <!-- margin $\kappa$ -->
     <g transform="translate(362.79 316.31375)">
      <text>
       <tspan style="font-family:DejaVu Sans;font-size:12px;font-style:book;font-weight:book;" x="0 11.689453 19.042969 23.976562 31.59375 34.927734 42.533203" y="-0.875">margin</tspan>
       <tspan style="font-family:DejaVu Sans;font-size:12px;font-style:oblique;font-weight:oblique;" x="46.347656" y="-0.875"></tspan>
      </text>
     </g>
    </g>
   </g>
   <g id="matplotlib.axis_4">
    <g id="ytick_4">
     <g id="line2d_43">
      <g>
       <use style="stroke:#000000;stroke-width:0.8;" x="300.3" xlink:href="#m7e6e27a738" y="284.58"/>
      </g>
     </g>
     <g id="text_17">
      <text style="font-family:DejaVu Sans;font-size:12px;font-style:normal;font-weight:normal;text-anchor:end;" transform="rotate(-0, 293.3, 289.139063)" x="293.3" y="289.139063">0.00</text>
     </g>
    </g>
    <g id="ytick_5">
     <g id="line2d_44">
      <g>
       <use style="stroke:#000000;stroke-width:0.8;" x="300.3" xlink:href="#m7e6e27a738" y="258.57"/>
      </g>
     </g>
     <g id="text_18">
      <text style="font-family:DejaVu Sans;font-size:12px;font-style:normal;font-weight:normal;text-anchor:end;" transform="rotate(-0, 293.3, 263.129063)" x="293.3" y="263.129063">0.25</text>
     </g>
    </g>
    <g id="ytick_6">
     <g id="line2d_45">
      <g>
       <use style="stroke:#000000;stroke-width:0.8;" x="300.3" xlink:href="#m7e6e27a738" y="232.56"/>
      </g>
     </g>
     <g id="text_19">
      <text style="font-family:DejaVu Sans;font-size:12px;font-style:normal;font-weight:normal;text-anchor:end;" transform="rotate(-0, 293.3, 237.119063)" x="293.3" y="237.119063">0.50</text>
     </g>
    </g>
    <g id="ytick_7">
     <g id="line2d_46">
      <g>
       <use style="stroke:#000000;stroke-width:0.8;" x="300.3" xlink:href="#m7e6e27a738" y="206.55"/>
      </g>
     </g>
     <g id="text_20">
      <text style="font-family:DejaVu Sans;font-size:12px;font-style:normal;font-weight:normal;text-anchor:end;" transform="rotate(-0, 293.3, 211.109062)" x="293.3" y="211.109062">0.75</text>
     </g>
    </g>
    <g id="ytick_8">
     <g id="line2d_47">
      <g>
       <use style="stroke:#000000;stroke-width:0.8;" x="300.3" xlink:href="#m7e6e27a738" y="180.54"/>
      </g>
     </g>
     <g id="text_21">
      <text style="font-family:DejaVu Sans;font-size:12px;font-style:normal;font-weight:normal;text-anchor:end;" transform="rotate(-0, 293.3, 185.099063)" x="293.3" y="185.099063">1.00</text>
     </g>
    </g>
    <g id="text_22">
     <text style="font-family:DejaVu Sans;font-size:12px;font-style:normal;font-weight:normal;text-anchor:middle;" transform="rotate(-90, 260.085625, 232.56)" x="260.085625" y="232.56">CDF</text>
    </g>
   </g>
   <g id="line2d_48">
    <path clip-path="url(#pb7f9ef86be)" d="M 300.3 266.33832 
L 304.7625 266.33832 
L 309.225 266.33832 
L 313.6875 266.33832 
L 318.15 266.33832 
L 322.6125 266.33832 
L 327.075 266.33832 
L 331.5375 266.33832 
L 336 266.33832 
L 340.4625 266.33832 
L 344.925 266.33832 
L 349.3875 266.33832 
L 353.85 266.33832 
L 358.3125 266.33832 
L 362.775 266.33832 
L 367.2375 266.33832 
L 371.7 266.42502 
L 376.1625 266.42502 
L 380.625 266.42502 
L 385.0875 266.42502 
L 389.55 266.42502 
L 394.0125 266.42502 
L 398.475 266.42502 
L 402.9375 266.42502 
L 407.4 266.42502 
L 411.8625 266.42502 
L 416.325 266.42502 
L 420.7875 266.42502 
L 425.25 266.42502 
L 429.7125 267.24 
L 434.175 267.24 
L 438.6375 267.24 
L 443.1 267.24 
L 447.5625 267.24 
L 452.025 267.24 
L 456.4875 267.24 
L 460.95 284.58 
L 465.4125 284.58 
L 469.875 284.58 
L 474.3375 284.58 
L 478.8 284.58 
L 483.2625 284.58 
L 487.725 284.58 
L 492.1875 284.58 
L 496.65 284.58 
L 501.1125 284.58 
L 505 284.58 
" style="fill:none;stroke:#000000;stroke-linecap:square;stroke-width:1.5;"/>
   </g>
   <g id="line2d_49">
    <path clip-path="url(#pb7f9ef86be)" d="M 300.3 273.34368 
L 304.7625 275.44182 
L 309.225 278.5977 
L 313.6875 280.26234 
L 318.15 281.47614 
L 322.6125 283.40088 
L 327.075 284.44128 
L 331.5375 284.58 
L 336 284.58 
L 340.4625 284.58 
L 344.925 284.58 
L 349.3875 284.58 
L 353.85 284.58 
L 358.3125 284.58 
L 362.775 284.58 
L 367.2375 284.58 
L 371.7 284.58 
L 376.1625 284.58 
L 380.625 284.58 
L 385.0875 284.58 
L 389.55 284.58 
L 394.0125 284.58 
L 398.475 284.58 
L 402.9375 284.58 
L 407.4 284.58 
L 411.8625 284.58 
L 416.325 284.58 
L 420.7875 284.58 
L 425.25 284.58 
L 429.7125 284.58 
L 434.175 284.58 
L 438.6375 284.58 
L 443.1 284.58 
L 447.5625 284.58 
L 452.025 284.58 
L 456.4875 284.58 
L 460.95 284.58 
L 465.4125 284.58 
L 469.875 284.58 
L 474.3375 284.58 
L 478.8 284.58 
L 483.2625 284.58 
L 487.725 284.58 
L 492.1875 284.58 
L 496.65 284.58 
L 501.1125 284.58 
L 505 284.58 
" style="fill:none;stroke:#bf00bf;stroke-linecap:square;stroke-width:1.5;"/>
   </g>
   <g id="line2d_50">
    <path clip-path="url(#pb7f9ef86be)" d="M 300.3 268.1937 
L 304.7625 268.1937 
L 309.225 268.1937 
L 313.6875 268.1937 
L 318.15 268.1937 
L 322.6125 268.26306 
L 327.075 268.29774 
L 331.5375 268.59252 
L 336 268.73124 
L 340.4625 268.83528 
L 344.925 269.39016 
L 349.3875 269.45952 
L 353.85 270.65598 
L 358.3125 270.76002 
L 362.775 270.8814 
L 367.2375 270.8814 
L 371.7 272.99688 
L 376.1625 272.99688 
L 380.625 272.99688 
L 385.0875 272.99688 
L 389.55 272.99688 
L 394.0125 273.11826 
L 398.475 273.11826 
L 402.9375 273.1356 
L 407.4 273.1356 
L 411.8625 273.29166 
L 416.325 274.01994 
L 420.7875 274.01994 
L 425.25 274.01994 
L 429.7125 274.22802 
L 434.175 274.22802 
L 438.6375 274.22802 
L 443.1 274.22802 
L 447.5625 274.22802 
L 452.025 274.22802 
L 456.4875 274.22802 
L 460.95 284.58 
L 465.4125 284.58 
L 469.875 284.58 
L 474.3375 284.58 
L 478.8 284.58 
L 483.2625 284.58 
L 487.725 284.58 
L 492.1875 284.58 
L 496.65 284.58 
L 501.1125 284.58 
L 505 284.58 
" style="fill:none;stroke:#0000ff;stroke-linecap:square;stroke-width:1.5;"/>
   </g>
   <g id="line2d_51">
    <path clip-path="url(#pb7f9ef86be)" d="M 300.3 180.54 
L 505 180.54 
" style="fill:none;stroke:#000000;stroke-dasharray:3.7,1.6;stroke-dashoffset:0;"/>
   </g>
   <g id="patch_6">
    <path d="M 300.3 284.58 
L 300.3 180.54 
" style="fill:none;stroke:#000000;stroke-linecap:square;stroke-linejoin:miter;stroke-width:0.8;"/>
   </g>
   <g id="patch_7">
    <path d="M 300.3 284.58 
L 478.8 284.58 
" style="fill:none;stroke:#000000;stroke-linecap:square;stroke-linejoin:miter;stroke-width:0.8;"/>
   </g>
  </g>
  <g id="text_23">
   <text style="font-family:DejaVu Sans;font-size:16px;font-style:normal;font-weight:normal;text-anchor:start;" transform="rotate(-0, 10.08, 171.36)" x="10.08" y="171.36">A</text>
  </g>
  <g id="text_24">
   <text style="font-family:DejaVu Sans;font-size:16px;font-style:normal;font-weight:normal;text-anchor:start;" transform="rotate(-0, 241.92, 171.36)" x="241.92" y="171.36">B</text>
  </g>
  <g id="text_25">
   <text style="font-family:DejaVu Sans;font-size:16px;font-style:normal;font-weight:normal;text-anchor:start;" transform="rotate(-0, 10.08, 342.72)" x="10.08" y="342.72">C</text>
  </g>
  <g id="text_26">
   <text style="font-family:DejaVu Sans;font-size:16px;font-style:normal;font-weight:normal;text-anchor:start;" transform="rotate(-0, 241.92, 342.72)" x="241.92" y="342.72">D</text>
  </g>
 </g>
 <defs>
  <clipPath id="p7539fabff7">
   <rect height="104.04" width="178.5" x="50.4" y="180.54"/>
  </clipPath>
  <clipPath id="pb7f9ef86be">
   <rect height="104.04" width="178.5" x="300.3" y="180.54"/>
  </clipPath>
 </defs>
</svg>
