<?xml version="1.0" encoding="utf-8" standalone="no"?>
<!DOCTYPE svg PUBLIC "-//W3C//DTD SVG 1.1//EN"
  "http://www.w3.org/Graphics/SVG/1.1/DTD/svg11.dtd">
<!-- Created with matplotlib (https://matplotlib.org/) -->
<svg height="489.6pt" version="1.1" viewBox="0 0 504 489.6" width="504pt" xmlns="http://www.w3.org/2000/svg" xmlns:xlink="http://www.w3.org/1999/xlink">
 <defs>
  <style type="text/css">
*{stroke-linecap:butt;stroke-linejoin:round;}
  </style>
 </defs>
 <g id="figure_1">
  <g id="patch_1">
   <path d="M 0 489.6 
L 504 489.6 
L 504 0 
L 0 0 
z
" style="fill:#ffffff;"/>
  </g>
  <g id="axes_1">
   <g id="patch_2">
    <path d="M 63 302.688 
L 240.545455 302.688 
L 240.545455 191.808 
L 63 191.808 
z
" style="fill:#ffffff;"/>
   </g>
   <g id="PolyCollection_1">
    <defs>
     <path d="M 77.795986 -194.368501 
L 77.794923 -194.368501 
L 77.794182 -194.508664 
L 77.792864 -194.648826 
L 77.790844 -194.788989 
L 77.788033 -194.929151 
L 77.784255 -195.069314 
L 77.779136 -195.209476 
L 77.772028 -195.349639 
L 77.761856 -195.489802 
L 77.746945 -195.629964 
L 77.724999 -195.770127 
L 77.693414 -195.910289 
L 77.649926 -196.050452 
L 77.593311 -196.190615 
L 77.523372 -196.330777 
L 77.43936 -196.47094 
L 77.337458 -196.611102 
L 77.209873 -196.751265 
L 77.047841 -196.891428 
L 76.84753 -197.03159 
L 76.614527 -197.171753 
L 76.362382 -197.311915 
L 76.104978 -197.452078 
L 75.848672 -197.59224 
L 75.591178 -197.732403 
L 75.32619 -197.872566 
L 75.046136 -198.012728 
L 74.741245 -198.152891 
L 74.401641 -198.293053 
L 74.024743 -198.433216 
L 73.620047 -198.573379 
L 73.204261 -198.713541 
L 72.789694 -198.853704 
L 72.375846 -198.993866 
L 71.954006 -199.134029 
L 71.524892 -199.274192 
L 71.113982 -199.414354 
L 70.766628 -199.554517 
L 70.52452 -199.694679 
L 70.404705 -199.834842 
L 70.397727 -199.975004 
L 70.480601 -200.115167 
L 70.630223 -200.25533 
L 70.830422 -200.395492 
L 71.073809 -200.535655 
L 71.357958 -200.675817 
L 71.675091 -200.81598 
L 72.003891 -200.956143 
L 72.316904 -201.096305 
L 72.60158 -201.236468 
L 72.872983 -201.37663 
L 73.161462 -201.516793 
L 73.486671 -201.656956 
L 73.844399 -201.797118 
L 74.216034 -201.937281 
L 74.584874 -202.077443 
L 74.940733 -202.217606 
L 75.273539 -202.357769 
L 75.570564 -202.497931 
L 75.824059 -202.638094 
L 76.039738 -202.778256 
L 76.234019 -202.918419 
L 76.421681 -203.058581 
L 76.606633 -203.198744 
L 76.783558 -203.338907 
L 76.945904 -203.479069 
L 77.090929 -203.619232 
L 77.218433 -203.759394 
L 77.327661 -203.899557 
L 77.417105 -204.03972 
L 77.486311 -204.179882 
L 77.536945 -204.320045 
L 77.573246 -204.460207 
L 77.601881 -204.60037 
L 77.629538 -204.740533 
L 77.659279 -204.880695 
L 77.68968 -205.020858 
L 77.71762 -205.16102 
L 77.741065 -205.301183 
L 77.759338 -205.441345 
L 77.772237 -205.581508 
L 77.779919 -205.721671 
L 77.783376 -205.861833 
L 77.784451 -206.001996 
L 77.785092 -206.142158 
L 77.786464 -206.282321 
L 77.788564 -206.422484 
L 77.790603 -206.562646 
L 77.791794 -206.702809 
L 77.791938 -206.842971 
L 77.791432 -206.983134 
L 77.790845 -207.123297 
L 77.790502 -207.263459 
L 77.790444 -207.403622 
L 77.79068 -207.543784 
L 77.791292 -207.683947 
L 77.79227 -207.82411 
L 77.79339 -207.964272 
L 77.794343 -208.104435 
L 77.794964 -208.244597 
L 77.795946 -208.244597 
L 77.795946 -208.244597 
L 77.796566 -208.104435 
L 77.797519 -207.964272 
L 77.798639 -207.82411 
L 77.799617 -207.683947 
L 77.800229 -207.543784 
L 77.800465 -207.403622 
L 77.800408 -207.263459 
L 77.800064 -207.123297 
L 77.799477 -206.983134 
L 77.798971 -206.842971 
L 77.799115 -206.702809 
L 77.800306 -206.562646 
L 77.802345 -206.422484 
L 77.804445 -206.282321 
L 77.805817 -206.142158 
L 77.806458 -206.001996 
L 77.807533 -205.861833 
L 77.810991 -205.721671 
L 77.818672 -205.581508 
L 77.831571 -205.441345 
L 77.849844 -205.301183 
L 77.87329 -205.16102 
L 77.901229 -205.020858 
L 77.93163 -204.880695 
L 77.961371 -204.740533 
L 77.989028 -204.60037 
L 78.017663 -204.460207 
L 78.053964 -204.320045 
L 78.104598 -204.179882 
L 78.173804 -204.03972 
L 78.263248 -203.899557 
L 78.372476 -203.759394 
L 78.49998 -203.619232 
L 78.645005 -203.479069 
L 78.807351 -203.338907 
L 78.984276 -203.198744 
L 79.169228 -203.058581 
L 79.35689 -202.918419 
L 79.551171 -202.778256 
L 79.76685 -202.638094 
L 80.020346 -202.497931 
L 80.31737 -202.357769 
L 80.650176 -202.217606 
L 81.006035 -202.077443 
L 81.374876 -201.937281 
L 81.74651 -201.797118 
L 82.104238 -201.656956 
L 82.429447 -201.516793 
L 82.717926 -201.37663 
L 82.989329 -201.236468 
L 83.274005 -201.096305 
L 83.587018 -200.956143 
L 83.915818 -200.81598 
L 84.232951 -200.675817 
L 84.5171 -200.535655 
L 84.760487 -200.395492 
L 84.960686 -200.25533 
L 85.110308 -200.115167 
L 85.193182 -199.975004 
L 85.186204 -199.834842 
L 85.066389 -199.694679 
L 84.824281 -199.554517 
L 84.476927 -199.414354 
L 84.066017 -199.274192 
L 83.636903 -199.134029 
L 83.215063 -198.993866 
L 82.801215 -198.853704 
L 82.386648 -198.713541 
L 81.970862 -198.573379 
L 81.566167 -198.433216 
L 81.189268 -198.293053 
L 80.849664 -198.152891 
L 80.544773 -198.012728 
L 80.264719 -197.872566 
L 79.999731 -197.732403 
L 79.742237 -197.59224 
L 79.485931 -197.452078 
L 79.228527 -197.311915 
L 78.976382 -197.171753 
L 78.743379 -197.03159 
L 78.543068 -196.891428 
L 78.381036 -196.751265 
L 78.253452 -196.611102 
L 78.151549 -196.47094 
L 78.067537 -196.330777 
L 77.997598 -196.190615 
L 77.940983 -196.050452 
L 77.897495 -195.910289 
L 77.86591 -195.770127 
L 77.843964 -195.629964 
L 77.829053 -195.489802 
L 77.818881 -195.349639 
L 77.811773 -195.209476 
L 77.806654 -195.069314 
L 77.802876 -194.929151 
L 77.800065 -194.788989 
L 77.798045 -194.648826 
L 77.796727 -194.508664 
L 77.795986 -194.368501 
z
" id="m7fac18ae03" style="stroke:#393939;stroke-width:0.4;"/>
    </defs>
    <g clip-path="url(#p03b965fbcb)">
     <use style="fill:#a718a7;stroke:#393939;stroke-width:0.4;" x="0" xlink:href="#m7fac18ae03" y="489.6"/>
    </g>
   </g>
   <g id="PolyCollection_2">
    <defs>
     <path d="M 107.387322 -190.958503 
L 107.385405 -190.958503 
L 107.384182 -191.046378 
L 107.381974 -191.134252 
L 107.378382 -191.222127 
L 107.372933 -191.310001 
L 107.365051 -191.397876 
L 107.354173 -191.48575 
L 107.339922 -191.573625 
L 107.321932 -191.661499 
L 107.29921 -191.749374 
L 107.269778 -191.837248 
L 107.231436 -191.925123 
L 107.183129 -192.012997 
L 107.125278 -192.100872 
L 107.058377 -192.188747 
L 106.981226 -192.276621 
L 106.890633 -192.364496 
L 106.782927 -192.45237 
L 106.656135 -192.540245 
L 106.511442 -192.628119 
L 106.352833 -192.715994 
L 106.184383 -192.803868 
L 106.00603 -192.891743 
L 105.810539 -192.979617 
L 105.584655 -193.067492 
L 105.315145 -193.155366 
L 104.997056 -193.243241 
L 104.639487 -193.331115 
L 104.264737 -193.41899 
L 103.899451 -193.506864 
L 103.561337 -193.594739 
L 103.24993 -193.682614 
L 102.949319 -193.770488 
L 102.642119 -193.858363 
L 102.323518 -193.946237 
L 102.003336 -194.034112 
L 101.695146 -194.121986 
L 101.403789 -194.209861 
L 101.123321 -194.297735 
L 100.84672 -194.38561 
L 100.577946 -194.473484 
L 100.335676 -194.561359 
L 100.145683 -194.649233 
L 100.028014 -194.737108 
L 99.988636 -194.824982 
L 100.020604 -194.912857 
L 100.111676 -195.000731 
L 100.251487 -195.088606 
L 100.434296 -195.17648 
L 100.657739 -195.264355 
L 100.919205 -195.35223 
L 101.211682 -195.440104 
L 101.522281 -195.527979 
L 101.836077 -195.615853 
L 102.143193 -195.703728 
L 102.44321 -195.791602 
L 102.743304 -195.879477 
L 103.051876 -195.967351 
L 103.372315 -196.055226 
L 103.700701 -196.1431 
L 104.028565 -196.230975 
L 104.348244 -196.318849 
L 104.656275 -196.406724 
L 104.952143 -196.494598 
L 105.234274 -196.582473 
L 105.497688 -196.670347 
L 105.73582 -196.758222 
L 105.944855 -196.846096 
L 106.126595 -196.933971 
L 106.287248 -197.021846 
L 106.433255 -197.10972 
L 106.567722 -197.197595 
L 106.689933 -197.285469 
L 106.797355 -197.373344 
L 106.88813 -197.461218 
L 106.962721 -197.549093 
L 107.024267 -197.636967 
L 107.077518 -197.724842 
L 107.126745 -197.812716 
L 107.173943 -197.900591 
L 107.21854 -197.988465 
L 107.258615 -198.07634 
L 107.292476 -198.164214 
L 107.31943 -198.252089 
L 107.339605 -198.339963 
L 107.353516 -198.427838 
L 107.361934 -198.515712 
L 107.366052 -198.603587 
L 107.367479 -198.691462 
L 107.367887 -198.779336 
L 107.368501 -198.867211 
L 107.369845 -198.955085 
L 107.371883 -199.04296 
L 107.374357 -199.130834 
L 107.377012 -199.218709 
L 107.379619 -199.306583 
L 107.381942 -199.394458 
L 107.383775 -199.482332 
L 107.385031 -199.570207 
L 107.385767 -199.658081 
L 107.386961 -199.658081 
L 107.386961 -199.658081 
L 107.387697 -199.570207 
L 107.388952 -199.482332 
L 107.390786 -199.394458 
L 107.393108 -199.306583 
L 107.395715 -199.218709 
L 107.39837 -199.130834 
L 107.400844 -199.04296 
L 107.402882 -198.955085 
L 107.404226 -198.867211 
L 107.404841 -198.779336 
L 107.405249 -198.691462 
L 107.406676 -198.603587 
L 107.410793 -198.515712 
L 107.419212 -198.427838 
L 107.433122 -198.339963 
L 107.453298 -198.252089 
L 107.480251 -198.164214 
L 107.514112 -198.07634 
L 107.554187 -197.988465 
L 107.598784 -197.900591 
L 107.645982 -197.812716 
L 107.695209 -197.724842 
L 107.74846 -197.636967 
L 107.810007 -197.549093 
L 107.884597 -197.461218 
L 107.975372 -197.373344 
L 108.082794 -197.285469 
L 108.205005 -197.197595 
L 108.339473 -197.10972 
L 108.485479 -197.021846 
L 108.646133 -196.933971 
L 108.827873 -196.846096 
L 109.036907 -196.758222 
L 109.275039 -196.670347 
L 109.538454 -196.582473 
L 109.820584 -196.494598 
L 110.116452 -196.406724 
L 110.424483 -196.318849 
L 110.744162 -196.230975 
L 111.072026 -196.1431 
L 111.400413 -196.055226 
L 111.720851 -195.967351 
L 112.029423 -195.879477 
L 112.329517 -195.791602 
L 112.629534 -195.703728 
L 112.93665 -195.615853 
L 113.250447 -195.527979 
L 113.561045 -195.440104 
L 113.853522 -195.35223 
L 114.114988 -195.264355 
L 114.338431 -195.17648 
L 114.521241 -195.088606 
L 114.661051 -195.000731 
L 114.752123 -194.912857 
L 114.784091 -194.824982 
L 114.744713 -194.737108 
L 114.627044 -194.649233 
L 114.437052 -194.561359 
L 114.194782 -194.473484 
L 113.926007 -194.38561 
L 113.649406 -194.297735 
L 113.368938 -194.209861 
L 113.077581 -194.121986 
L 112.769392 -194.034112 
L 112.449209 -193.946237 
L 112.130608 -193.858363 
L 111.823408 -193.770488 
L 111.522798 -193.682614 
L 111.21139 -193.594739 
L 110.873276 -193.506864 
L 110.50799 -193.41899 
L 110.13324 -193.331115 
L 109.775671 -193.243241 
L 109.457582 -193.155366 
L 109.188073 -193.067492 
L 108.962188 -192.979617 
L 108.766697 -192.891743 
L 108.588344 -192.803868 
L 108.419894 -192.715994 
L 108.261286 -192.628119 
L 108.116592 -192.540245 
L 107.9898 -192.45237 
L 107.882094 -192.364496 
L 107.791502 -192.276621 
L 107.71435 -192.188747 
L 107.647449 -192.100872 
L 107.589598 -192.012997 
L 107.541292 -191.925123 
L 107.502949 -191.837248 
L 107.473518 -191.749374 
L 107.450796 -191.661499 
L 107.432805 -191.573625 
L 107.418554 -191.48575 
L 107.407676 -191.397876 
L 107.399795 -191.310001 
L 107.394345 -191.222127 
L 107.390753 -191.134252 
L 107.388545 -191.046378 
L 107.387322 -190.958503 
z
" id="me09f2d0556" style="stroke:#393939;stroke-width:0.4;"/>
    </defs>
    <g clip-path="url(#p03b965fbcb)">
     <use style="fill:#a718a7;stroke:#393939;stroke-width:0.4;" x="0" xlink:href="#me09f2d0556" y="489.6"/>
    </g>
   </g>
   <g id="PolyCollection_3">
    <defs>
     <path d="M 136.978231 -189.121522 
L 136.976314 -189.121522 
L 136.975137 -189.197783 
L 136.973348 -189.274044 
L 136.971279 -189.350304 
L 136.969502 -189.426565 
L 136.968218 -189.502826 
L 136.966623 -189.579087 
L 136.963083 -189.655348 
L 136.95633 -189.731608 
L 136.946685 -189.807869 
L 136.935744 -189.88413 
L 136.924182 -189.960391 
L 136.909569 -190.036652 
L 136.886809 -190.112912 
L 136.851376 -190.189173 
L 136.80233 -190.265434 
L 136.742036 -190.341695 
L 136.67275 -190.417956 
L 136.593117 -190.494216 
L 136.497431 -190.570477 
L 136.378004 -190.646738 
L 136.228393 -190.722999 
L 136.04497 -190.79926 
L 135.826999 -190.87552 
L 135.577593 -190.951781 
L 135.305609 -191.028042 
L 135.024103 -191.104303 
L 134.742325 -191.180564 
L 134.456337 -191.256824 
L 134.14819 -191.333085 
L 133.797249 -191.409346 
L 133.395924 -191.485607 
L 132.957699 -191.561868 
L 132.5115 -191.638128 
L 132.086995 -191.714389 
L 131.701563 -191.79065 
L 131.35671 -191.866911 
L 131.043333 -191.943172 
L 130.750208 -192.019432 
L 130.470913 -192.095693 
L 130.207214 -192.171954 
L 129.969171 -192.248215 
L 129.773258 -192.324476 
L 129.63855 -192.400736 
L 129.579545 -192.476997 
L 129.598388 -192.553258 
L 129.685171 -192.629519 
L 129.829184 -192.70578 
L 130.028978 -192.78204 
L 130.287303 -192.858301 
L 130.595042 -192.934562 
L 130.923759 -193.010823 
L 131.239063 -193.087084 
L 131.523925 -193.163344 
L 131.789328 -193.239605 
L 132.063135 -193.315866 
L 132.369399 -193.392127 
L 132.714621 -193.468388 
L 133.086579 -193.544648 
L 133.462714 -193.620909 
L 133.82306 -193.69717 
L 134.160534 -193.773431 
L 134.480505 -193.849692 
L 134.789326 -193.925952 
L 135.083276 -194.002213 
L 135.349584 -194.078474 
L 135.577493 -194.154735 
L 135.766881 -194.230996 
L 135.92682 -194.307256 
L 136.068159 -194.383517 
L 136.198219 -194.459778 
L 136.32013 -194.536039 
L 136.434021 -194.6123 
L 136.537983 -194.68856 
L 136.629279 -194.764821 
L 136.705896 -194.841082 
L 136.76734 -194.917343 
L 136.814484 -194.993604 
L 136.849293 -195.069864 
L 136.874616 -195.146125 
L 136.893584 -195.222386 
L 136.908756 -195.298647 
L 136.921615 -195.374908 
L 136.932634 -195.451168 
L 136.941655 -195.527429 
L 136.948366 -195.60369 
L 136.952752 -195.679951 
L 136.955372 -195.756212 
L 136.957209 -195.832472 
L 136.959132 -195.908733 
L 136.961402 -195.984994 
L 136.9637 -196.061255 
L 136.965642 -196.137515 
L 136.967229 -196.213776 
L 136.968808 -196.290037 
L 136.970653 -196.366298 
L 136.972675 -196.442559 
L 136.974516 -196.518819 
L 136.975869 -196.59508 
L 136.976672 -196.671341 
L 136.977874 -196.671341 
L 136.977874 -196.671341 
L 136.978677 -196.59508 
L 136.98003 -196.518819 
L 136.98187 -196.442559 
L 136.983892 -196.366298 
L 136.985738 -196.290037 
L 136.987316 -196.213776 
L 136.988903 -196.137515 
L 136.990845 -196.061255 
L 136.993144 -195.984994 
L 136.995414 -195.908733 
L 136.997337 -195.832472 
L 136.999174 -195.756212 
L 137.001793 -195.679951 
L 137.006179 -195.60369 
L 137.01289 -195.527429 
L 137.021912 -195.451168 
L 137.03293 -195.374908 
L 137.045789 -195.298647 
L 137.060961 -195.222386 
L 137.07993 -195.146125 
L 137.105253 -195.069864 
L 137.140061 -194.993604 
L 137.187205 -194.917343 
L 137.248649 -194.841082 
L 137.325267 -194.764821 
L 137.416563 -194.68856 
L 137.520524 -194.6123 
L 137.634415 -194.536039 
L 137.756326 -194.459778 
L 137.886386 -194.383517 
L 138.027726 -194.307256 
L 138.187664 -194.230996 
L 138.377052 -194.154735 
L 138.604961 -194.078474 
L 138.871269 -194.002213 
L 139.165219 -193.925952 
L 139.47404 -193.849692 
L 139.794012 -193.773431 
L 140.131485 -193.69717 
L 140.491832 -193.620909 
L 140.867967 -193.544648 
L 141.239925 -193.468388 
L 141.585147 -193.392127 
L 141.891411 -193.315866 
L 142.165218 -193.239605 
L 142.43062 -193.163344 
L 142.715483 -193.087084 
L 143.030787 -193.010823 
L 143.359504 -192.934562 
L 143.667242 -192.858301 
L 143.925568 -192.78204 
L 144.125361 -192.70578 
L 144.269375 -192.629519 
L 144.356158 -192.553258 
L 144.375 -192.476997 
L 144.315996 -192.400736 
L 144.181287 -192.324476 
L 143.985375 -192.248215 
L 143.747331 -192.171954 
L 143.483632 -192.095693 
L 143.204337 -192.019432 
L 142.911213 -191.943172 
L 142.597836 -191.866911 
L 142.252982 -191.79065 
L 141.86755 -191.714389 
L 141.443046 -191.638128 
L 140.996847 -191.561868 
L 140.558621 -191.485607 
L 140.157297 -191.409346 
L 139.806355 -191.333085 
L 139.498208 -191.256824 
L 139.212221 -191.180564 
L 138.930442 -191.104303 
L 138.648936 -191.028042 
L 138.376953 -190.951781 
L 138.127547 -190.87552 
L 137.909575 -190.79926 
L 137.726153 -190.722999 
L 137.576542 -190.646738 
L 137.457115 -190.570477 
L 137.361429 -190.494216 
L 137.281796 -190.417956 
L 137.21251 -190.341695 
L 137.152215 -190.265434 
L 137.103169 -190.189173 
L 137.067737 -190.112912 
L 137.044977 -190.036652 
L 137.030364 -189.960391 
L 137.018802 -189.88413 
L 137.00786 -189.807869 
L 136.998216 -189.731608 
L 136.991463 -189.655348 
L 136.987922 -189.579087 
L 136.986327 -189.502826 
L 136.985043 -189.426565 
L 136.983267 -189.350304 
L 136.981197 -189.274044 
L 136.979408 -189.197783 
L 136.978231 -189.121522 
z
" id="m1e0e50b066" style="stroke:#393939;stroke-width:0.4;"/>
    </defs>
    <g clip-path="url(#p03b965fbcb)">
     <use style="fill:#a718a7;stroke:#393939;stroke-width:0.4;" x="0" xlink:href="#m1e0e50b066" y="489.6"/>
    </g>
   </g>
   <g id="PolyCollection_4">
    <defs>
     <path d="M 166.569943 -188.688741 
L 166.56642 -188.688741 
L 166.563944 -188.745118 
L 166.559086 -188.801495 
L 166.550643 -188.857873 
L 166.537501 -188.91425 
L 166.518841 -188.970628 
L 166.494078 -189.027005 
L 166.462569 -189.083382 
L 166.423522 -189.13976 
L 166.376354 -189.196137 
L 166.321142 -189.252514 
L 166.258481 -189.308892 
L 166.188641 -189.365269 
L 166.11088 -189.421646 
L 166.02364 -189.478024 
L 165.925183 -189.534401 
L 165.813562 -189.590778 
L 165.685688 -189.647156 
L 165.536691 -189.703533 
L 165.360843 -189.759911 
L 165.153776 -189.816288 
L 164.914392 -189.872665 
L 164.64518 -189.929043 
L 164.351252 -189.98542 
L 164.039179 -190.041797 
L 163.716093 -190.098175 
L 163.388484 -190.154552 
L 163.060356 -190.210929 
L 162.731636 -190.267307 
L 162.398464 -190.323684 
L 162.056217 -190.380062 
L 161.704007 -190.436439 
L 161.347752 -190.492816 
L 160.99933 -190.549194 
L 160.672157 -190.605571 
L 160.376425 -190.661948 
L 160.117243 -190.718326 
L 159.895949 -190.774703 
L 159.711993 -190.83108 
L 159.563009 -190.887458 
L 159.443686 -190.943835 
L 159.346469 -191.000213 
L 159.265807 -191.05659 
L 159.203506 -191.112967 
L 159.170455 -191.169345 
L 159.182524 -191.225722 
L 159.253343 -191.282099 
L 159.388639 -191.338477 
L 159.584447 -191.394854 
L 159.828497 -191.451231 
L 160.103273 -191.507609 
L 160.390005 -191.563986 
L 160.673064 -191.620363 
L 160.943817 -191.676741 
L 161.202724 -191.733118 
L 161.458431 -191.789496 
L 161.723347 -191.845873 
L 162.006996 -191.90225 
L 162.310486 -191.958628 
L 162.625653 -192.015005 
L 162.939703 -192.071382 
L 163.242093 -192.12776 
L 163.528657 -192.184137 
L 163.800439 -192.240514 
L 164.059349 -192.296892 
L 164.305112 -192.353269 
L 164.535854 -192.409647 
L 164.750812 -192.466024 
L 164.951931 -192.522401 
L 165.142646 -192.578779 
L 165.324924 -192.635156 
L 165.497165 -192.691533 
L 165.654758 -192.747911 
L 165.792828 -192.804288 
L 165.908923 -192.860665 
L 166.003806 -192.917043 
L 166.080461 -192.97342 
L 166.142729 -193.029798 
L 166.194591 -193.086175 
L 166.239903 -193.142552 
L 166.281955 -193.19893 
L 166.32274 -193.255307 
L 166.362486 -193.311684 
L 166.39992 -193.368062 
L 166.433123 -193.424439 
L 166.460482 -193.480816 
L 166.481389 -193.537194 
L 166.496553 -193.593571 
L 166.507802 -193.649948 
L 166.517321 -193.706326 
L 166.526647 -193.762703 
L 166.536085 -193.819081 
L 166.544952 -193.875458 
L 166.552373 -193.931835 
L 166.55793 -193.988213 
L 166.561772 -194.04459 
L 166.564322 -194.100967 
L 166.565981 -194.157345 
L 166.567023 -194.213722 
L 166.56763 -194.270099 
L 166.568733 -194.270099 
L 166.568733 -194.270099 
L 166.569341 -194.213722 
L 166.570382 -194.157345 
L 166.572041 -194.100967 
L 166.574592 -194.04459 
L 166.578434 -193.988213 
L 166.583991 -193.931835 
L 166.591412 -193.875458 
L 166.600279 -193.819081 
L 166.609716 -193.762703 
L 166.619042 -193.706326 
L 166.628562 -193.649948 
L 166.639811 -193.593571 
L 166.654975 -193.537194 
L 166.675882 -193.480816 
L 166.703241 -193.424439 
L 166.736444 -193.368062 
L 166.773878 -193.311684 
L 166.813624 -193.255307 
L 166.854408 -193.19893 
L 166.89646 -193.142552 
L 166.941773 -193.086175 
L 166.993635 -193.029798 
L 167.055903 -192.97342 
L 167.132557 -192.917043 
L 167.227441 -192.860665 
L 167.343536 -192.804288 
L 167.481606 -192.747911 
L 167.639199 -192.691533 
L 167.81144 -192.635156 
L 167.993718 -192.578779 
L 168.184432 -192.522401 
L 168.385552 -192.466024 
L 168.60051 -192.409647 
L 168.831252 -192.353269 
L 169.077015 -192.296892 
L 169.335925 -192.240514 
L 169.607706 -192.184137 
L 169.894271 -192.12776 
L 170.196661 -192.071382 
L 170.51071 -192.015005 
L 170.825878 -191.958628 
L 171.129367 -191.90225 
L 171.413017 -191.845873 
L 171.677933 -191.789496 
L 171.93364 -191.733118 
L 172.192547 -191.676741 
L 172.4633 -191.620363 
L 172.746359 -191.563986 
L 173.033091 -191.507609 
L 173.307866 -191.451231 
L 173.551916 -191.394854 
L 173.747725 -191.338477 
L 173.88302 -191.282099 
L 173.95384 -191.225722 
L 173.965909 -191.169345 
L 173.932858 -191.112967 
L 173.870556 -191.05659 
L 173.789894 -191.000213 
L 173.692678 -190.943835 
L 173.573354 -190.887458 
L 173.42437 -190.83108 
L 173.240414 -190.774703 
L 173.01912 -190.718326 
L 172.759939 -190.661948 
L 172.464207 -190.605571 
L 172.137033 -190.549194 
L 171.788611 -190.492816 
L 171.432357 -190.436439 
L 171.080147 -190.380062 
L 170.737899 -190.323684 
L 170.404728 -190.267307 
L 170.076007 -190.210929 
L 169.74788 -190.154552 
L 169.420271 -190.098175 
L 169.097185 -190.041797 
L 168.785112 -189.98542 
L 168.491183 -189.929043 
L 168.221972 -189.872665 
L 167.982588 -189.816288 
L 167.775521 -189.759911 
L 167.599672 -189.703533 
L 167.450676 -189.647156 
L 167.322801 -189.590778 
L 167.211181 -189.534401 
L 167.112724 -189.478024 
L 167.025484 -189.421646 
L 166.947723 -189.365269 
L 166.877883 -189.308892 
L 166.815222 -189.252514 
L 166.76001 -189.196137 
L 166.712841 -189.13976 
L 166.673795 -189.083382 
L 166.642286 -189.027005 
L 166.617522 -188.970628 
L 166.598863 -188.91425 
L 166.58572 -188.857873 
L 166.577278 -188.801495 
L 166.57242 -188.745118 
L 166.569943 -188.688741 
z
" id="m56971a5cbd" style="stroke:#393939;stroke-width:0.4;"/>
    </defs>
    <g clip-path="url(#p03b965fbcb)">
     <use style="fill:#a718a7;stroke:#393939;stroke-width:0.4;" x="0" xlink:href="#m56971a5cbd" y="489.6"/>
    </g>
   </g>
   <g id="PolyCollection_5">
    <defs>
     <path d="M 196.170292 -188.53951 
L 196.14789 -188.53951 
L 196.131989 -188.587141 
L 196.100452 -188.634772 
L 196.044889 -188.682404 
L 195.957288 -188.730035 
L 195.832471 -188.777667 
L 195.669766 -188.825298 
L 195.473034 -188.872929 
L 195.249327 -188.920561 
L 195.007175 -188.968192 
L 194.755094 -189.015823 
L 194.500135 -189.063455 
L 194.246168 -189.111086 
L 193.992316 -189.158717 
L 193.732713 -189.206349 
L 193.458595 -189.25398 
L 193.162251 -189.301612 
L 192.840823 -189.349243 
L 192.497923 -189.396874 
L 192.142596 -189.444506 
L 191.786491 -189.492137 
L 191.440172 -189.539768 
L 191.109427 -189.5874 
L 190.793249 -189.635031 
L 190.485488 -189.682662 
L 190.180206 -189.730294 
L 189.877609 -189.777925 
L 189.586439 -189.825556 
L 189.321419 -189.873188 
L 189.098112 -189.920819 
L 188.928551 -189.968451 
L 188.818591 -190.016082 
L 188.766238 -190.063713 
L 188.761364 -190.111345 
L 188.78882 -190.158976 
L 188.83507 -190.206607 
L 188.894411 -190.254239 
L 188.969962 -190.30187 
L 189.068757 -190.349501 
L 189.195204 -190.397133 
L 189.347923 -190.444764 
L 189.521577 -190.492395 
L 189.71143 -190.540027 
L 189.916658 -190.587658 
L 190.139634 -190.63529 
L 190.381664 -190.682921 
L 190.639075 -190.730552 
L 190.903907 -190.778184 
L 191.169529 -190.825815 
L 191.436255 -190.873446 
L 191.711175 -190.921078 
L 192.001849 -190.968709 
L 192.309656 -191.01634 
L 192.628525 -191.063972 
L 192.948791 -191.111603 
L 193.261409 -191.159235 
L 193.559201 -191.206866 
L 193.836204 -191.254497 
L 194.087787 -191.302129 
L 194.312143 -191.34976 
L 194.511259 -191.397391 
L 194.689765 -191.445023 
L 194.852474 -191.492654 
L 195.002797 -191.540285 
L 195.142933 -191.587917 
L 195.274683 -191.635548 
L 195.39939 -191.683179 
L 195.516991 -191.730811 
L 195.625408 -191.778442 
L 195.721191 -191.826074 
L 195.801145 -191.873705 
L 195.864008 -191.921336 
L 195.911255 -191.968968 
L 195.946623 -192.016599 
L 195.974651 -192.06423 
L 195.999037 -192.111862 
L 196.021679 -192.159493 
L 196.042733 -192.207124 
L 196.061448 -192.254756 
L 196.077194 -192.302387 
L 196.090154 -192.350018 
L 196.101291 -192.39765 
L 196.111694 -192.445281 
L 196.121843 -192.492913 
L 196.131412 -192.540544 
L 196.139684 -192.588175 
L 196.14614 -192.635807 
L 196.150721 -192.683438 
L 196.153685 -192.731069 
L 196.155358 -192.778701 
L 196.156017 -192.826332 
L 196.155946 -192.873963 
L 196.155511 -192.921595 
L 196.155123 -192.969226 
L 196.155107 -193.016858 
L 196.155567 -193.064489 
L 196.156372 -193.11212 
L 196.157268 -193.159752 
L 196.158029 -193.207383 
L 196.158554 -193.255014 
L 196.159628 -193.255014 
L 196.159628 -193.255014 
L 196.160153 -193.207383 
L 196.160914 -193.159752 
L 196.161809 -193.11212 
L 196.162615 -193.064489 
L 196.163075 -193.016858 
L 196.163059 -192.969226 
L 196.162671 -192.921595 
L 196.162236 -192.873963 
L 196.162165 -192.826332 
L 196.162824 -192.778701 
L 196.164496 -192.731069 
L 196.167461 -192.683438 
L 196.172042 -192.635807 
L 196.178498 -192.588175 
L 196.186769 -192.540544 
L 196.196339 -192.492913 
L 196.206488 -192.445281 
L 196.216891 -192.39765 
L 196.228028 -192.350018 
L 196.240988 -192.302387 
L 196.256734 -192.254756 
L 196.275448 -192.207124 
L 196.296503 -192.159493 
L 196.319145 -192.111862 
L 196.343531 -192.06423 
L 196.371559 -192.016599 
L 196.406927 -191.968968 
L 196.454174 -191.921336 
L 196.517037 -191.873705 
L 196.596991 -191.826074 
L 196.692773 -191.778442 
L 196.801191 -191.730811 
L 196.918791 -191.683179 
L 197.043499 -191.635548 
L 197.175249 -191.587917 
L 197.315385 -191.540285 
L 197.465707 -191.492654 
L 197.628417 -191.445023 
L 197.806923 -191.397391 
L 198.006039 -191.34976 
L 198.230395 -191.302129 
L 198.481977 -191.254497 
L 198.75898 -191.206866 
L 199.056773 -191.159235 
L 199.36939 -191.111603 
L 199.689657 -191.063972 
L 200.008525 -191.01634 
L 200.316333 -190.968709 
L 200.607007 -190.921078 
L 200.881927 -190.873446 
L 201.148653 -190.825815 
L 201.414275 -190.778184 
L 201.679107 -190.730552 
L 201.936518 -190.682921 
L 202.178548 -190.63529 
L 202.401524 -190.587658 
L 202.606752 -190.540027 
L 202.796605 -190.492395 
L 202.970259 -190.444764 
L 203.122977 -190.397133 
L 203.249424 -190.349501 
L 203.34822 -190.30187 
L 203.423771 -190.254239 
L 203.483112 -190.206607 
L 203.529362 -190.158976 
L 203.556818 -190.111345 
L 203.551943 -190.063713 
L 203.499591 -190.016082 
L 203.389631 -189.968451 
L 203.22007 -189.920819 
L 202.996763 -189.873188 
L 202.731742 -189.825556 
L 202.440573 -189.777925 
L 202.137975 -189.730294 
L 201.832694 -189.682662 
L 201.524933 -189.635031 
L 201.208755 -189.5874 
L 200.87801 -189.539768 
L 200.531691 -189.492137 
L 200.175585 -189.444506 
L 199.820258 -189.396874 
L 199.477359 -189.349243 
L 199.155931 -189.301612 
L 198.859587 -189.25398 
L 198.585469 -189.206349 
L 198.325866 -189.158717 
L 198.072014 -189.111086 
L 197.818047 -189.063455 
L 197.563088 -189.015823 
L 197.311006 -188.968192 
L 197.068854 -188.920561 
L 196.845148 -188.872929 
L 196.648416 -188.825298 
L 196.485711 -188.777667 
L 196.360894 -188.730035 
L 196.273293 -188.682404 
L 196.21773 -188.634772 
L 196.186193 -188.587141 
L 196.170292 -188.53951 
z
" id="m2d921f2081" style="stroke:#393939;stroke-width:0.4;"/>
    </defs>
    <g clip-path="url(#p03b965fbcb)">
     <use style="fill:#a718a7;stroke:#393939;stroke-width:0.4;" x="0" xlink:href="#m2d921f2081" y="489.6"/>
    </g>
   </g>
   <g id="PolyCollection_6">
    <defs>
     <path d="M 225.758235 -188.381557 
L 225.741765 -188.381557 
L 225.72957 -188.418596 
L 225.70335 -188.455635 
L 225.651544 -188.492674 
L 225.55725 -188.529713 
L 225.399001 -188.566752 
L 225.154224 -188.603791 
L 224.805746 -188.64083 
L 224.349864 -188.677869 
L 223.802491 -188.714907 
L 223.199266 -188.751946 
L 222.587737 -188.788985 
L 222.013981 -188.826024 
L 221.509564 -188.863063 
L 221.08487 -188.900102 
L 220.73127 -188.937141 
L 220.429892 -188.97418 
L 220.161813 -189.011218 
L 219.914898 -189.048257 
L 219.685389 -189.085296 
L 219.475401 -189.122335 
L 219.28886 -189.159374 
L 219.127871 -189.196413 
L 218.990601 -189.233452 
L 218.871328 -189.270491 
L 218.762851 -189.30753 
L 218.660134 -189.344568 
L 218.562984 -189.381607 
L 218.476139 -189.418646 
L 218.407103 -189.455685 
L 218.363622 -189.492724 
L 218.352273 -189.529763 
L 218.378183 -189.566802 
L 218.444853 -189.603841 
L 218.553367 -189.640879 
L 218.701195 -189.677918 
L 218.881437 -189.714957 
L 219.083435 -189.751996 
L 219.295242 -189.789035 
L 219.50743 -189.826074 
L 219.716415 -189.863113 
L 219.925256 -189.900152 
L 220.141298 -189.937191 
L 220.372117 -189.974229 
L 220.621996 -190.011268 
L 220.890137 -190.048307 
L 221.170629 -190.085346 
L 221.453877 -190.122385 
L 221.729415 -190.159424 
L 221.989435 -190.196463 
L 222.231335 -190.233502 
L 222.457576 -190.27054 
L 222.672865 -190.307579 
L 222.880825 -190.344618 
L 223.082618 -190.381657 
L 223.278084 -190.418696 
L 223.467682 -190.455735 
L 223.6532 -190.492774 
L 223.836644 -190.529813 
L 224.018442 -190.566852 
L 224.196412 -190.60389 
L 224.366137 -190.640929 
L 224.522402 -190.677968 
L 224.660936 -190.715007 
L 224.779767 -190.752046 
L 224.879782 -190.789085 
L 224.96439 -190.826124 
L 225.038444 -190.863163 
L 225.106755 -190.900201 
L 225.172696 -190.93724 
L 225.237418 -190.974279 
L 225.299987 -191.011318 
L 225.358319 -191.048357 
L 225.410445 -191.085396 
L 225.455481 -191.122435 
L 225.493938 -191.159474 
L 225.527318 -191.196512 
L 225.557299 -191.233551 
L 225.58495 -191.27059 
L 225.6104 -191.307629 
L 225.6331 -191.344668 
L 225.65244 -191.381707 
L 225.668285 -191.418746 
L 225.681102 -191.455785 
L 225.691674 -191.492824 
L 225.70069 -191.529862 
L 225.708481 -191.566901 
L 225.715071 -191.60394 
L 225.720407 -191.640979 
L 225.724594 -191.678018 
L 225.727949 -191.715057 
L 225.73089 -191.752096 
L 225.733767 -191.789135 
L 225.736744 -191.826173 
L 225.739772 -191.863212 
L 225.742652 -191.900251 
L 225.745142 -191.93729 
L 225.747073 -191.974329 
L 225.748404 -192.011368 
L 225.749217 -192.048407 
L 225.750783 -192.048407 
L 225.750783 -192.048407 
L 225.751596 -192.011368 
L 225.752927 -191.974329 
L 225.754858 -191.93729 
L 225.757348 -191.900251 
L 225.760228 -191.863212 
L 225.763256 -191.826173 
L 225.766233 -191.789135 
L 225.76911 -191.752096 
L 225.772051 -191.715057 
L 225.775406 -191.678018 
L 225.779593 -191.640979 
L 225.784929 -191.60394 
L 225.791519 -191.566901 
L 225.79931 -191.529862 
L 225.808326 -191.492824 
L 225.818898 -191.455785 
L 225.831715 -191.418746 
L 225.84756 -191.381707 
L 225.8669 -191.344668 
L 225.8896 -191.307629 
L 225.91505 -191.27059 
L 225.942701 -191.233551 
L 225.972682 -191.196512 
L 226.006062 -191.159474 
L 226.044519 -191.122435 
L 226.089555 -191.085396 
L 226.141681 -191.048357 
L 226.200013 -191.011318 
L 226.262582 -190.974279 
L 226.327304 -190.93724 
L 226.393245 -190.900201 
L 226.461556 -190.863163 
L 226.53561 -190.826124 
L 226.620218 -190.789085 
L 226.720233 -190.752046 
L 226.839064 -190.715007 
L 226.977598 -190.677968 
L 227.133863 -190.640929 
L 227.303588 -190.60389 
L 227.481558 -190.566852 
L 227.663356 -190.529813 
L 227.8468 -190.492774 
L 228.032318 -190.455735 
L 228.221916 -190.418696 
L 228.417382 -190.381657 
L 228.619175 -190.344618 
L 228.827135 -190.307579 
L 229.042424 -190.27054 
L 229.268665 -190.233502 
L 229.510565 -190.196463 
L 229.770585 -190.159424 
L 230.046123 -190.122385 
L 230.329371 -190.085346 
L 230.609863 -190.048307 
L 230.878004 -190.011268 
L 231.127883 -189.974229 
L 231.358702 -189.937191 
L 231.574744 -189.900152 
L 231.783585 -189.863113 
L 231.99257 -189.826074 
L 232.204758 -189.789035 
L 232.416565 -189.751996 
L 232.618563 -189.714957 
L 232.798805 -189.677918 
L 232.946633 -189.640879 
L 233.055147 -189.603841 
L 233.121817 -189.566802 
L 233.147727 -189.529763 
L 233.136378 -189.492724 
L 233.092897 -189.455685 
L 233.023861 -189.418646 
L 232.937016 -189.381607 
L 232.839866 -189.344568 
L 232.737149 -189.30753 
L 232.628672 -189.270491 
L 232.509399 -189.233452 
L 232.372129 -189.196413 
L 232.21114 -189.159374 
L 232.024599 -189.122335 
L 231.814611 -189.085296 
L 231.585102 -189.048257 
L 231.338187 -189.011218 
L 231.070108 -188.97418 
L 230.76873 -188.937141 
L 230.41513 -188.900102 
L 229.990436 -188.863063 
L 229.486019 -188.826024 
L 228.912263 -188.788985 
L 228.300734 -188.751946 
L 227.697509 -188.714907 
L 227.150136 -188.677869 
L 226.694254 -188.64083 
L 226.345776 -188.603791 
L 226.100999 -188.566752 
L 225.94275 -188.529713 
L 225.848456 -188.492674 
L 225.79665 -188.455635 
L 225.77043 -188.418596 
L 225.758235 -188.381557 
z
" id="m01d6a0ed28" style="stroke:#393939;stroke-width:0.4;"/>
    </defs>
    <g clip-path="url(#p03b965fbcb)">
     <use style="fill:#a718a7;stroke:#393939;stroke-width:0.4;" x="0" xlink:href="#m01d6a0ed28" y="489.6"/>
    </g>
   </g>
   <g id="PolyCollection_7">
    <defs>
     <path d="M 77.795955 -204.777294 
L 77.794954 -204.777294 
L 77.794312 -204.818437 
L 77.793332 -204.85958 
L 77.792207 -204.900723 
L 77.791258 -204.941866 
L 77.790635 -204.983009 
L 77.79009 -205.024152 
L 77.789099 -205.065295 
L 77.787171 -205.106438 
L 77.784113 -205.147581 
L 77.78019 -205.188724 
L 77.775996 -205.229867 
L 77.771831 -205.27101 
L 77.767192 -205.312153 
L 77.761245 -205.353296 
L 77.753791 -205.394439 
L 77.745453 -205.435581 
L 77.737048 -205.476724 
L 77.729052 -205.517867 
L 77.721388 -205.55901 
L 77.713234 -205.600153 
L 77.702922 -205.641296 
L 77.688159 -205.682439 
L 77.66661 -205.723582 
L 77.636629 -205.764725 
L 77.597338 -205.805868 
L 77.547837 -205.847011 
L 77.486988 -205.888154 
L 77.415098 -205.929297 
L 77.335634 -205.97044 
L 77.25336 -206.011583 
L 77.168768 -206.052725 
L 77.074393 -206.093868 
L 76.9586 -206.135011 
L 76.81459 -206.176154 
L 76.64556 -206.217297 
L 76.460763 -206.25844 
L 76.267169 -206.299583 
L 76.064448 -206.340726 
L 75.845234 -206.381869 
L 75.598571 -206.423012 
L 75.315921 -206.464155 
L 74.998403 -206.505298 
L 74.658391 -206.546441 
L 74.309552 -206.587584 
L 73.952849 -206.628727 
L 73.575711 -206.669869 
L 73.169309 -206.711012 
L 72.745826 -206.752155 
L 72.334687 -206.793298 
L 71.960088 -206.834441 
L 71.623314 -206.875584 
L 71.308212 -206.916727 
L 71.005134 -206.95787 
L 70.730946 -206.999013 
L 70.52388 -207.040156 
L 70.413946 -207.081299 
L 70.397727 -207.122442 
L 70.446402 -207.163585 
L 70.536777 -207.204728 
L 70.666087 -207.245871 
L 70.837483 -207.287013 
L 71.045953 -207.328156 
L 71.288787 -207.369299 
L 71.582992 -207.410442 
L 71.958738 -207.451585 
L 72.428892 -207.492728 
L 72.966205 -207.533871 
L 73.513971 -207.575014 
L 74.020815 -207.616157 
L 74.466631 -207.6573 
L 74.860196 -207.698443 
L 75.218428 -207.739586 
L 75.549018 -207.780729 
L 75.848984 -207.821872 
L 76.116078 -207.863015 
L 76.358177 -207.904158 
L 76.588292 -207.9453 
L 76.811137 -207.986443 
L 77.01889 -208.027586 
L 77.200744 -208.068729 
L 77.352342 -208.109872 
L 77.474758 -208.151015 
L 77.569362 -208.192158 
L 77.637625 -208.233301 
L 77.684111 -208.274444 
L 77.716228 -208.315587 
L 77.740537 -208.35673 
L 77.760101 -208.397873 
L 77.775101 -208.439016 
L 77.785068 -208.480159 
L 77.790369 -208.521302 
L 77.792261 -208.562444 
L 77.7923 -208.603587 
L 77.791848 -208.64473 
L 77.791795 -208.685873 
L 77.792399 -208.727016 
L 77.793388 -208.768159 
L 77.794325 -208.809302 
L 77.794957 -208.850445 
L 77.795952 -208.850445 
L 77.795952 -208.850445 
L 77.796584 -208.809302 
L 77.797521 -208.768159 
L 77.79851 -208.727016 
L 77.799114 -208.685873 
L 77.799061 -208.64473 
L 77.798609 -208.603587 
L 77.798648 -208.562444 
L 77.80054 -208.521302 
L 77.805841 -208.480159 
L 77.815808 -208.439016 
L 77.830808 -208.397873 
L 77.850372 -208.35673 
L 77.874681 -208.315587 
L 77.906798 -208.274444 
L 77.953284 -208.233301 
L 78.021547 -208.192158 
L 78.116151 -208.151015 
L 78.238568 -208.109872 
L 78.390165 -208.068729 
L 78.572019 -208.027586 
L 78.779772 -207.986443 
L 79.002617 -207.9453 
L 79.232732 -207.904158 
L 79.474831 -207.863015 
L 79.741925 -207.821872 
L 80.041891 -207.780729 
L 80.372481 -207.739586 
L 80.730714 -207.698443 
L 81.124278 -207.6573 
L 81.570094 -207.616157 
L 82.076938 -207.575014 
L 82.624704 -207.533871 
L 83.162017 -207.492728 
L 83.632171 -207.451585 
L 84.007917 -207.410442 
L 84.302122 -207.369299 
L 84.544956 -207.328156 
L 84.753426 -207.287013 
L 84.924822 -207.245871 
L 85.054133 -207.204728 
L 85.144507 -207.163585 
L 85.193182 -207.122442 
L 85.176963 -207.081299 
L 85.067029 -207.040156 
L 84.859963 -206.999013 
L 84.585775 -206.95787 
L 84.282697 -206.916727 
L 83.967595 -206.875584 
L 83.630821 -206.834441 
L 83.256222 -206.793298 
L 82.845083 -206.752155 
L 82.4216 -206.711012 
L 82.015198 -206.669869 
L 81.63806 -206.628727 
L 81.281357 -206.587584 
L 80.932519 -206.546441 
L 80.592506 -206.505298 
L 80.274988 -206.464155 
L 79.992338 -206.423012 
L 79.745675 -206.381869 
L 79.526461 -206.340726 
L 79.32374 -206.299583 
L 79.130146 -206.25844 
L 78.945349 -206.217297 
L 78.776319 -206.176154 
L 78.632309 -206.135011 
L 78.516516 -206.093868 
L 78.422141 -206.052725 
L 78.337549 -206.011583 
L 78.255275 -205.97044 
L 78.175811 -205.929297 
L 78.103921 -205.888154 
L 78.043072 -205.847011 
L 77.993571 -205.805868 
L 77.954281 -205.764725 
L 77.924299 -205.723582 
L 77.90275 -205.682439 
L 77.887987 -205.641296 
L 77.877676 -205.600153 
L 77.869521 -205.55901 
L 77.861857 -205.517867 
L 77.853861 -205.476724 
L 77.845456 -205.435581 
L 77.837118 -205.394439 
L 77.829664 -205.353296 
L 77.823717 -205.312153 
L 77.819078 -205.27101 
L 77.814913 -205.229867 
L 77.810719 -205.188724 
L 77.806796 -205.147581 
L 77.803738 -205.106438 
L 77.80181 -205.065295 
L 77.800819 -205.024152 
L 77.800274 -204.983009 
L 77.799651 -204.941866 
L 77.798702 -204.900723 
L 77.797577 -204.85958 
L 77.796597 -204.818437 
L 77.795955 -204.777294 
z
" id="m86778cfce8" style="stroke:#4c4c4c;stroke-width:0.4;"/>
    </defs>
    <g clip-path="url(#p03b965fbcb)">
     <use style="fill:#2020df;stroke:#4c4c4c;stroke-width:0.4;" x="0" xlink:href="#m86778cfce8" y="489.6"/>
    </g>
   </g>
   <g id="PolyCollection_8">
    <defs>
     <path d="M 107.387193 -194.115671 
L 107.385534 -194.115671 
L 107.384483 -194.209972 
L 107.382679 -194.304273 
L 107.38008 -194.398574 
L 107.376925 -194.492876 
L 107.373632 -194.587177 
L 107.370471 -194.681478 
L 107.367263 -194.775779 
L 107.363415 -194.87008 
L 107.358374 -194.964381 
L 107.352133 -195.058682 
L 107.345246 -195.152983 
L 107.338151 -195.247284 
L 107.330264 -195.341585 
L 107.319692 -195.435887 
L 107.303943 -195.530188 
L 107.281078 -195.624489 
L 107.250313 -195.71879 
L 107.211717 -195.813091 
L 107.165652 -195.907392 
L 107.112739 -196.001693 
L 107.054163 -196.095994 
L 106.991162 -196.190295 
L 106.923279 -196.284596 
L 106.846899 -196.378898 
L 106.756264 -196.473199 
L 106.64701 -196.5675 
L 106.519335 -196.661801 
L 106.37772 -196.756102 
L 106.227317 -196.850403 
L 106.070138 -196.944704 
L 105.903665 -197.039005 
L 105.721832 -197.133306 
L 105.517085 -197.227608 
L 105.282964 -197.321909 
L 105.016525 -197.41621 
L 104.718888 -197.510511 
L 104.393292 -197.604812 
L 104.043205 -197.699113 
L 103.673784 -197.793414 
L 103.295798 -197.887715 
L 102.926435 -197.982016 
L 102.582532 -198.076317 
L 102.269215 -198.170619 
L 101.973806 -198.26492 
L 101.673256 -198.359221 
L 101.352348 -198.453522 
L 101.018685 -198.547823 
L 100.701182 -198.642124 
L 100.433005 -198.736425 
L 100.233654 -198.830726 
L 100.103451 -198.925027 
L 100.029971 -199.019328 
L 99.996727 -199.11363 
L 99.988636 -199.207931 
L 99.996602 -199.302232 
L 100.022533 -199.396533 
L 100.079886 -199.490834 
L 100.186026 -199.585135 
L 100.351739 -199.679436 
L 100.576612 -199.773737 
L 100.851615 -199.868038 
L 101.163399 -199.962339 
L 101.49762 -200.056641 
L 101.843095 -200.150942 
L 102.195925 -200.245243 
L 102.55865 -200.339544 
L 102.933198 -200.433845 
L 103.314165 -200.528146 
L 103.689882 -200.622447 
L 104.050426 -200.716748 
L 104.393961 -200.811049 
L 104.724639 -200.90535 
L 105.044834 -200.999652 
L 105.35041 -201.093953 
L 105.63354 -201.188254 
L 105.888901 -201.282555 
L 106.116369 -201.376856 
L 106.318565 -201.471157 
L 106.497448 -201.565458 
L 106.653793 -201.659759 
L 106.788891 -201.75406 
L 106.905454 -201.848361 
L 107.006517 -201.942663 
L 107.093749 -202.036964 
L 107.166996 -202.131265 
L 107.225323 -202.225566 
L 107.268513 -202.319867 
L 107.297933 -202.414168 
L 107.316466 -202.508469 
L 107.327751 -202.60277 
L 107.335236 -202.697071 
L 107.341507 -202.791373 
L 107.34809 -202.885674 
L 107.355524 -202.979975 
L 107.363492 -203.074276 
L 107.37109 -203.168577 
L 107.377341 -203.262878 
L 107.38171 -203.357179 
L 107.384288 -203.45148 
L 107.388439 -203.45148 
L 107.388439 -203.45148 
L 107.391017 -203.357179 
L 107.395386 -203.262878 
L 107.401637 -203.168577 
L 107.409236 -203.074276 
L 107.417203 -202.979975 
L 107.424637 -202.885674 
L 107.43122 -202.791373 
L 107.437491 -202.697071 
L 107.444976 -202.60277 
L 107.456262 -202.508469 
L 107.474794 -202.414168 
L 107.504214 -202.319867 
L 107.547404 -202.225566 
L 107.605732 -202.131265 
L 107.678978 -202.036964 
L 107.766211 -201.942663 
L 107.867273 -201.848361 
L 107.983836 -201.75406 
L 108.118934 -201.659759 
L 108.275279 -201.565458 
L 108.454162 -201.471157 
L 108.656358 -201.376856 
L 108.883827 -201.282555 
L 109.139188 -201.188254 
L 109.422317 -201.093953 
L 109.727894 -200.999652 
L 110.048088 -200.90535 
L 110.378766 -200.811049 
L 110.722302 -200.716748 
L 111.082846 -200.622447 
L 111.458562 -200.528146 
L 111.83953 -200.433845 
L 112.214077 -200.339544 
L 112.576803 -200.245243 
L 112.929633 -200.150942 
L 113.275108 -200.056641 
L 113.609329 -199.962339 
L 113.921112 -199.868038 
L 114.196115 -199.773737 
L 114.420988 -199.679436 
L 114.586701 -199.585135 
L 114.692842 -199.490834 
L 114.750194 -199.396533 
L 114.776125 -199.302232 
L 114.784091 -199.207931 
L 114.776 -199.11363 
L 114.742756 -199.019328 
L 114.669276 -198.925027 
L 114.539073 -198.830726 
L 114.339722 -198.736425 
L 114.071545 -198.642124 
L 113.754042 -198.547823 
L 113.420379 -198.453522 
L 113.099471 -198.359221 
L 112.798921 -198.26492 
L 112.503512 -198.170619 
L 112.190195 -198.076317 
L 111.846292 -197.982016 
L 111.476929 -197.887715 
L 111.098943 -197.793414 
L 110.729522 -197.699113 
L 110.379435 -197.604812 
L 110.053839 -197.510511 
L 109.756202 -197.41621 
L 109.489764 -197.321909 
L 109.255643 -197.227608 
L 109.050895 -197.133306 
L 108.869062 -197.039005 
L 108.702589 -196.944704 
L 108.54541 -196.850403 
L 108.395007 -196.756102 
L 108.253392 -196.661801 
L 108.125717 -196.5675 
L 108.016464 -196.473199 
L 107.925828 -196.378898 
L 107.849448 -196.284596 
L 107.781565 -196.190295 
L 107.718565 -196.095994 
L 107.659988 -196.001693 
L 107.607075 -195.907392 
L 107.56101 -195.813091 
L 107.522414 -195.71879 
L 107.491649 -195.624489 
L 107.468784 -195.530188 
L 107.453035 -195.435887 
L 107.442463 -195.341585 
L 107.434576 -195.247284 
L 107.427482 -195.152983 
L 107.420594 -195.058682 
L 107.414353 -194.964381 
L 107.409312 -194.87008 
L 107.405464 -194.775779 
L 107.402256 -194.681478 
L 107.399096 -194.587177 
L 107.395802 -194.492876 
L 107.392648 -194.398574 
L 107.390049 -194.304273 
L 107.388245 -194.209972 
L 107.387193 -194.115671 
z
" id="mb6a71f9a6c" style="stroke:#4c4c4c;stroke-width:0.4;"/>
    </defs>
    <g clip-path="url(#p03b965fbcb)">
     <use style="fill:#2020df;stroke:#4c4c4c;stroke-width:0.4;" x="0" xlink:href="#mb6a71f9a6c" y="489.6"/>
    </g>
   </g>
   <g id="PolyCollection_9">
    <defs>
     <path d="M 136.978795 -191.460001 
L 136.97575 -191.460001 
L 136.973798 -191.546079 
L 136.97035 -191.632158 
L 136.96512 -191.718236 
L 136.958204 -191.804314 
L 136.949942 -191.890392 
L 136.940473 -191.97647 
L 136.929423 -192.062548 
L 136.916139 -192.148626 
L 136.900285 -192.234704 
L 136.881998 -192.320782 
L 136.861282 -192.40686 
L 136.837265 -192.492938 
L 136.808248 -192.579016 
L 136.77256 -192.665095 
L 136.729242 -192.751173 
L 136.677632 -192.837251 
L 136.616042 -192.923329 
L 136.540834 -193.009407 
L 136.447196 -193.095485 
L 136.331544 -193.181563 
L 136.194016 -193.267641 
L 136.039207 -193.353719 
L 135.874193 -193.439797 
L 135.704453 -193.525875 
L 135.529903 -193.611953 
L 135.344022 -193.698031 
L 135.137401 -193.78411 
L 134.903576 -193.870188 
L 134.642737 -193.956266 
L 134.360442 -194.042344 
L 134.062727 -194.128422 
L 133.751851 -194.2145 
L 133.425902 -194.300578 
L 133.08192 -194.386656 
L 132.719711 -194.472734 
L 132.344058 -194.558812 
L 131.964771 -194.64489 
L 131.594834 -194.730968 
L 131.246979 -194.817047 
L 130.929753 -194.903125 
L 130.645513 -194.989203 
L 130.392509 -195.075281 
L 130.170038 -195.161359 
L 129.981909 -195.247437 
L 129.833875 -195.333515 
L 129.726841 -195.419593 
L 129.653656 -195.505671 
L 129.604975 -195.591749 
L 129.579545 -195.677827 
L 129.58804 -195.763905 
L 129.645917 -195.849984 
L 129.762497 -195.936062 
L 129.936149 -196.02214 
L 130.15719 -196.108218 
L 130.412585 -196.194296 
L 130.68842 -196.280374 
L 130.97199 -196.366452 
L 131.255811 -196.45253 
L 131.541194 -196.538608 
L 131.837002 -196.624686 
L 132.153217 -196.710764 
L 132.493763 -196.796842 
L 132.853246 -196.882921 
L 133.219023 -196.968999 
L 133.576846 -197.055077 
L 133.916696 -197.141155 
L 134.235289 -197.227233 
L 134.534037 -197.313311 
L 134.814682 -197.399389 
L 135.07632 -197.485467 
L 135.315618 -197.571545 
L 135.529191 -197.657623 
L 135.716155 -197.743701 
L 135.879344 -197.829779 
L 136.024395 -197.915858 
L 136.157096 -198.001936 
L 136.280745 -198.088014 
L 136.395375 -198.174092 
L 136.49904 -198.26017 
L 136.589731 -198.346248 
L 136.666561 -198.432326 
L 136.72994 -198.518404 
L 136.781254 -198.604482 
L 136.822437 -198.69056 
L 136.85554 -198.776638 
L 136.882345 -198.862716 
L 136.904092 -198.948795 
L 136.921418 -199.034873 
L 136.934554 -199.120951 
L 136.943778 -199.207029 
L 136.949824 -199.293107 
L 136.95393 -199.379185 
L 136.957419 -199.465263 
L 136.961143 -199.551341 
L 136.965204 -199.637419 
L 136.969154 -199.723497 
L 136.972433 -199.809575 
L 136.974741 -199.895653 
L 136.976117 -199.981731 
L 136.978428 -199.981731 
L 136.978428 -199.981731 
L 136.979805 -199.895653 
L 136.982112 -199.809575 
L 136.985392 -199.723497 
L 136.989341 -199.637419 
L 136.993403 -199.551341 
L 136.997126 -199.465263 
L 137.000616 -199.379185 
L 137.004722 -199.293107 
L 137.010767 -199.207029 
L 137.019991 -199.120951 
L 137.033128 -199.034873 
L 137.050453 -198.948795 
L 137.072201 -198.862716 
L 137.099005 -198.776638 
L 137.132108 -198.69056 
L 137.173291 -198.604482 
L 137.224606 -198.518404 
L 137.287984 -198.432326 
L 137.364814 -198.346248 
L 137.455506 -198.26017 
L 137.55917 -198.174092 
L 137.673801 -198.088014 
L 137.79745 -198.001936 
L 137.930151 -197.915858 
L 138.075201 -197.829779 
L 138.23839 -197.743701 
L 138.425355 -197.657623 
L 138.638928 -197.571545 
L 138.878226 -197.485467 
L 139.139864 -197.399389 
L 139.420508 -197.313311 
L 139.719257 -197.227233 
L 140.037849 -197.141155 
L 140.377699 -197.055077 
L 140.735523 -196.968999 
L 141.101299 -196.882921 
L 141.460783 -196.796842 
L 141.801328 -196.710764 
L 142.117543 -196.624686 
L 142.413351 -196.538608 
L 142.698735 -196.45253 
L 142.982555 -196.366452 
L 143.266125 -196.280374 
L 143.541961 -196.194296 
L 143.797355 -196.108218 
L 144.018396 -196.02214 
L 144.192048 -195.936062 
L 144.308628 -195.849984 
L 144.366506 -195.763905 
L 144.375 -195.677827 
L 144.349571 -195.591749 
L 144.30089 -195.505671 
L 144.227705 -195.419593 
L 144.12067 -195.333515 
L 143.972636 -195.247437 
L 143.784507 -195.161359 
L 143.562037 -195.075281 
L 143.309032 -194.989203 
L 143.024792 -194.903125 
L 142.707567 -194.817047 
L 142.359711 -194.730968 
L 141.989774 -194.64489 
L 141.610487 -194.558812 
L 141.234835 -194.472734 
L 140.872625 -194.386656 
L 140.528643 -194.300578 
L 140.202695 -194.2145 
L 139.891818 -194.128422 
L 139.594104 -194.042344 
L 139.311809 -193.956266 
L 139.050969 -193.870188 
L 138.817145 -193.78411 
L 138.610524 -193.698031 
L 138.424643 -193.611953 
L 138.250093 -193.525875 
L 138.080352 -193.439797 
L 137.915339 -193.353719 
L 137.76053 -193.267641 
L 137.623002 -193.181563 
L 137.507349 -193.095485 
L 137.413712 -193.009407 
L 137.338504 -192.923329 
L 137.276913 -192.837251 
L 137.225304 -192.751173 
L 137.181986 -192.665095 
L 137.146297 -192.579016 
L 137.11728 -192.492938 
L 137.093263 -192.40686 
L 137.072547 -192.320782 
L 137.05426 -192.234704 
L 137.038406 -192.148626 
L 137.025123 -192.062548 
L 137.014072 -191.97647 
L 137.004604 -191.890392 
L 136.996342 -191.804314 
L 136.989426 -191.718236 
L 136.984196 -191.632158 
L 136.980747 -191.546079 
L 136.978795 -191.460001 
z
" id="m6cc81097d1" style="stroke:#4c4c4c;stroke-width:0.4;"/>
    </defs>
    <g clip-path="url(#p03b965fbcb)">
     <use style="fill:#2020df;stroke:#4c4c4c;stroke-width:0.4;" x="0" xlink:href="#m6cc81097d1" y="489.6"/>
    </g>
   </g>
   <g id="PolyCollection_10">
    <defs>
     <path d="M 166.568753 -189.433364 
L 166.567611 -189.433364 
L 166.56688 -189.517003 
L 166.565593 -189.600641 
L 166.563613 -189.68428 
L 166.560891 -189.767918 
L 166.557511 -189.851557 
L 166.553793 -189.935195 
L 166.550344 -190.018834 
L 166.547861 -190.102472 
L 166.546612 -190.186111 
L 166.545936 -190.269749 
L 166.544189 -190.353388 
L 166.539145 -190.437026 
L 166.528547 -190.520665 
L 166.510527 -190.604303 
L 166.483719 -190.687942 
L 166.446938 -190.77158 
L 166.398656 -190.855219 
L 166.336976 -190.938857 
L 166.260582 -191.022496 
L 166.170042 -191.106134 
L 166.068005 -191.189773 
L 165.957386 -191.273411 
L 165.838502 -191.35705 
L 165.70777 -191.440688 
L 165.559725 -191.524327 
L 165.390637 -191.607965 
L 165.199298 -191.691604 
L 164.983393 -191.775242 
L 164.736292 -191.858881 
L 164.450724 -191.942519 
L 164.128028 -192.026157 
L 163.782913 -192.109796 
L 163.436248 -192.193434 
L 163.101182 -192.277073 
L 162.775513 -192.360711 
L 162.446409 -192.44435 
L 162.101377 -192.527988 
L 161.736158 -192.611627 
L 161.355885 -192.695265 
L 160.971425 -192.778904 
L 160.594518 -192.862542 
L 160.235517 -192.946181 
L 159.905419 -193.029819 
L 159.619108 -193.113458 
L 159.394321 -193.197096 
L 159.244841 -193.280735 
L 159.173292 -193.364373 
L 159.170455 -193.448012 
L 159.221616 -193.53165 
L 159.313419 -193.615289 
L 159.436012 -193.698927 
L 159.582587 -193.782566 
L 159.750428 -193.866204 
L 159.941918 -193.949843 
L 160.161146 -194.033481 
L 160.40766 -194.11712 
L 160.674573 -194.200758 
L 160.954276 -194.284397 
L 161.246182 -194.368035 
L 161.558279 -194.451674 
L 161.900399 -194.535312 
L 162.274696 -194.618951 
L 162.671152 -194.702589 
L 163.071476 -194.786228 
L 163.457804 -194.869866 
L 163.818839 -194.953505 
L 164.149082 -195.037143 
L 164.444098 -195.120781 
L 164.699117 -195.20442 
L 164.913977 -195.288058 
L 165.098284 -195.371697 
L 165.26846 -195.455335 
L 165.437297 -195.538974 
L 165.605743 -195.622612 
L 165.764536 -195.706251 
L 165.903276 -195.789889 
L 166.018365 -195.873528 
L 166.113974 -195.957166 
L 166.196972 -196.040805 
L 166.271023 -196.124443 
L 166.334638 -196.208082 
L 166.384131 -196.29172 
L 166.418359 -196.375359 
L 166.440954 -196.458997 
L 166.45835 -196.542636 
L 166.4757 -196.626274 
L 166.494321 -196.709913 
L 166.512428 -196.793551 
L 166.527727 -196.87719 
L 166.539252 -196.960828 
L 166.547402 -197.044467 
L 166.55308 -197.128105 
L 166.557098 -197.211744 
L 166.560066 -197.295382 
L 166.562412 -197.379021 
L 166.564347 -197.462659 
L 166.565885 -197.546298 
L 166.566977 -197.629936 
L 166.567638 -197.713575 
L 166.568726 -197.713575 
L 166.568726 -197.713575 
L 166.569387 -197.629936 
L 166.570478 -197.546298 
L 166.572016 -197.462659 
L 166.573951 -197.379021 
L 166.576297 -197.295382 
L 166.579265 -197.211744 
L 166.583283 -197.128105 
L 166.588962 -197.044467 
L 166.597112 -196.960828 
L 166.608636 -196.87719 
L 166.623935 -196.793551 
L 166.642043 -196.709913 
L 166.660664 -196.626274 
L 166.678013 -196.542636 
L 166.69541 -196.458997 
L 166.718005 -196.375359 
L 166.752233 -196.29172 
L 166.801726 -196.208082 
L 166.865341 -196.124443 
L 166.939392 -196.040805 
L 167.02239 -195.957166 
L 167.117999 -195.873528 
L 167.233087 -195.789889 
L 167.371828 -195.706251 
L 167.530621 -195.622612 
L 167.699067 -195.538974 
L 167.867904 -195.455335 
L 168.038079 -195.371697 
L 168.222387 -195.288058 
L 168.437247 -195.20442 
L 168.692265 -195.120781 
L 168.987281 -195.037143 
L 169.317525 -194.953505 
L 169.678559 -194.869866 
L 170.064888 -194.786228 
L 170.465212 -194.702589 
L 170.861667 -194.618951 
L 171.235965 -194.535312 
L 171.578084 -194.451674 
L 171.890182 -194.368035 
L 172.182088 -194.284397 
L 172.461791 -194.200758 
L 172.728704 -194.11712 
L 172.975218 -194.033481 
L 173.194446 -193.949843 
L 173.385935 -193.866204 
L 173.553777 -193.782566 
L 173.700352 -193.698927 
L 173.822945 -193.615289 
L 173.914748 -193.53165 
L 173.965909 -193.448012 
L 173.963072 -193.364373 
L 173.891523 -193.280735 
L 173.742043 -193.197096 
L 173.517256 -193.113458 
L 173.230945 -193.029819 
L 172.900846 -192.946181 
L 172.541846 -192.862542 
L 172.164938 -192.778904 
L 171.780479 -192.695265 
L 171.400206 -192.611627 
L 171.034986 -192.527988 
L 170.689955 -192.44435 
L 170.36085 -192.360711 
L 170.035182 -192.277073 
L 169.700115 -192.193434 
L 169.353451 -192.109796 
L 169.008336 -192.026157 
L 168.68564 -191.942519 
L 168.400072 -191.858881 
L 168.15297 -191.775242 
L 167.937066 -191.691604 
L 167.745727 -191.607965 
L 167.576638 -191.524327 
L 167.428594 -191.440688 
L 167.297862 -191.35705 
L 167.178978 -191.273411 
L 167.068358 -191.189773 
L 166.966322 -191.106134 
L 166.875782 -191.022496 
L 166.799387 -190.938857 
L 166.737707 -190.855219 
L 166.689426 -190.77158 
L 166.652645 -190.687942 
L 166.625837 -190.604303 
L 166.607817 -190.520665 
L 166.597219 -190.437026 
L 166.592175 -190.353388 
L 166.590428 -190.269749 
L 166.589752 -190.186111 
L 166.588502 -190.102472 
L 166.58602 -190.018834 
L 166.582571 -189.935195 
L 166.578852 -189.851557 
L 166.575473 -189.767918 
L 166.57275 -189.68428 
L 166.570771 -189.600641 
L 166.569484 -189.517003 
L 166.568753 -189.433364 
z
" id="md524fe7073" style="stroke:#4c4c4c;stroke-width:0.4;"/>
    </defs>
    <g clip-path="url(#p03b965fbcb)">
     <use style="fill:#2020df;stroke:#4c4c4c;stroke-width:0.4;" x="0" xlink:href="#md524fe7073" y="489.6"/>
    </g>
   </g>
   <g id="PolyCollection_11">
    <defs>
     <path d="M 196.161206 -188.812006 
L 196.156976 -188.812006 
L 196.153976 -188.892 
L 196.148669 -188.971993 
L 196.141001 -189.051987 
L 196.131746 -189.13198 
L 196.121625 -189.211974 
L 196.109574 -189.291967 
L 196.091864 -189.371961 
L 196.063687 -189.451954 
L 196.022474 -189.531948 
L 195.969753 -189.611941 
L 195.909039 -189.691935 
L 195.84129 -189.771928 
L 195.762709 -189.851922 
L 195.667871 -189.931915 
L 195.555449 -190.011909 
L 195.430296 -190.091903 
L 195.298617 -190.171896 
L 195.160118 -190.25189 
L 195.004868 -190.331883 
L 194.818579 -190.411877 
L 194.591709 -190.49187 
L 194.324139 -190.571864 
L 194.021867 -190.651857 
L 193.690447 -190.731851 
L 193.333188 -190.811844 
L 192.956184 -190.891838 
L 192.572462 -190.971831 
L 192.196625 -191.051825 
L 191.833117 -191.131818 
L 191.471468 -191.211812 
L 191.096235 -191.291805 
L 190.703247 -191.371799 
L 190.306526 -191.451792 
L 189.930518 -191.531786 
L 189.59684 -191.611779 
L 189.316711 -191.691773 
L 189.091816 -191.771766 
L 188.920834 -191.85176 
L 188.807275 -191.931753 
L 188.761364 -192.011747 
L 188.790575 -192.09174 
L 188.88604 -192.171734 
L 189.021788 -192.251727 
L 189.17292 -192.331721 
L 189.336096 -192.411714 
L 189.529609 -192.491708 
L 189.771603 -192.571701 
L 190.060078 -192.651695 
L 190.376059 -192.731688 
L 190.703404 -192.811682 
L 191.040859 -192.891675 
L 191.395583 -192.971669 
L 191.769714 -193.051662 
L 192.154439 -193.131656 
L 192.534257 -193.211649 
L 192.895678 -193.291643 
L 193.233329 -193.371636 
L 193.549434 -193.45163 
L 193.848224 -193.531623 
L 194.130857 -193.611617 
L 194.394635 -193.69161 
L 194.635748 -193.771604 
L 194.852577 -193.851597 
L 195.047151 -193.931591 
L 195.223716 -194.011584 
L 195.385341 -194.091578 
L 195.531426 -194.171571 
L 195.658529 -194.251565 
L 195.763937 -194.331558 
L 195.848665 -194.411552 
L 195.91701 -194.491545 
L 195.973245 -194.571539 
L 196.018983 -194.651532 
L 196.053625 -194.731526 
L 196.076762 -194.81152 
L 196.089976 -194.891513 
L 196.096947 -194.971507 
L 196.102219 -195.0515 
L 196.109266 -195.131494 
L 196.118945 -195.211487 
L 196.129617 -195.291481 
L 196.138878 -195.371474 
L 196.145336 -195.451468 
L 196.149085 -195.531461 
L 196.151057 -195.611455 
L 196.152245 -195.691448 
L 196.153318 -195.771442 
L 196.154536 -195.851435 
L 196.155778 -195.931429 
L 196.156696 -196.011422 
L 196.156981 -196.091416 
L 196.156603 -196.171409 
L 196.155885 -196.251403 
L 196.155351 -196.331396 
L 196.155409 -196.41139 
L 196.156087 -196.491383 
L 196.15707 -196.571377 
L 196.157971 -196.65137 
L 196.15858 -196.731364 
L 196.159602 -196.731364 
L 196.159602 -196.731364 
L 196.160211 -196.65137 
L 196.161112 -196.571377 
L 196.162095 -196.491383 
L 196.162773 -196.41139 
L 196.16283 -196.331396 
L 196.162297 -196.251403 
L 196.161579 -196.171409 
L 196.1612 -196.091416 
L 196.161486 -196.011422 
L 196.162404 -195.931429 
L 196.163646 -195.851435 
L 196.164863 -195.771442 
L 196.165937 -195.691448 
L 196.167125 -195.611455 
L 196.169097 -195.531461 
L 196.172846 -195.451468 
L 196.179304 -195.371474 
L 196.188565 -195.291481 
L 196.199237 -195.211487 
L 196.208916 -195.131494 
L 196.215963 -195.0515 
L 196.221235 -194.971507 
L 196.228206 -194.891513 
L 196.24142 -194.81152 
L 196.264557 -194.731526 
L 196.299199 -194.651532 
L 196.344937 -194.571539 
L 196.401171 -194.491545 
L 196.469516 -194.411552 
L 196.554245 -194.331558 
L 196.659652 -194.251565 
L 196.786756 -194.171571 
L 196.932841 -194.091578 
L 197.094466 -194.011584 
L 197.271031 -193.931591 
L 197.465605 -193.851597 
L 197.682434 -193.771604 
L 197.923547 -193.69161 
L 198.187324 -193.611617 
L 198.469957 -193.531623 
L 198.768748 -193.45163 
L 199.084853 -193.371636 
L 199.422504 -193.291643 
L 199.783924 -193.211649 
L 200.163743 -193.131656 
L 200.548468 -193.051662 
L 200.922599 -192.971669 
L 201.277323 -192.891675 
L 201.614778 -192.811682 
L 201.942123 -192.731688 
L 202.258104 -192.651695 
L 202.546578 -192.571701 
L 202.788573 -192.491708 
L 202.982086 -192.411714 
L 203.145262 -192.331721 
L 203.296394 -192.251727 
L 203.432142 -192.171734 
L 203.527607 -192.09174 
L 203.556818 -192.011747 
L 203.510907 -191.931753 
L 203.397348 -191.85176 
L 203.226365 -191.771766 
L 203.00147 -191.691773 
L 202.721341 -191.611779 
L 202.387663 -191.531786 
L 202.011656 -191.451792 
L 201.614935 -191.371799 
L 201.221946 -191.291805 
L 200.846714 -191.211812 
L 200.485065 -191.131818 
L 200.121556 -191.051825 
L 199.74572 -190.971831 
L 199.361997 -190.891838 
L 198.984994 -190.811844 
L 198.627735 -190.731851 
L 198.296315 -190.651857 
L 197.994043 -190.571864 
L 197.726473 -190.49187 
L 197.499603 -190.411877 
L 197.313313 -190.331883 
L 197.158064 -190.25189 
L 197.019565 -190.171896 
L 196.887886 -190.091903 
L 196.762733 -190.011909 
L 196.650311 -189.931915 
L 196.555473 -189.851922 
L 196.476892 -189.771928 
L 196.409143 -189.691935 
L 196.348429 -189.611941 
L 196.295708 -189.531948 
L 196.254495 -189.451954 
L 196.226318 -189.371961 
L 196.208608 -189.291967 
L 196.196557 -189.211974 
L 196.186436 -189.13198 
L 196.177181 -189.051987 
L 196.169512 -188.971993 
L 196.164206 -188.892 
L 196.161206 -188.812006 
z
" id="m8a627a6961" style="stroke:#4c4c4c;stroke-width:0.4;"/>
    </defs>
    <g clip-path="url(#p03b965fbcb)">
     <use style="fill:#2020df;stroke:#4c4c4c;stroke-width:0.4;" x="0" xlink:href="#m8a627a6961" y="489.6"/>
    </g>
   </g>
   <g id="PolyCollection_12">
    <defs>
     <path d="M 225.7514 -188.273242 
L 225.7486 -188.273242 
L 225.746383 -188.33742 
L 225.741529 -188.401597 
L 225.731971 -188.465774 
L 225.715039 -188.529951 
L 225.688066 -188.594128 
L 225.649419 -188.658305 
L 225.599513 -188.722482 
L 225.541115 -188.78666 
L 225.478396 -188.850837 
L 225.414946 -188.915014 
L 225.351764 -188.979191 
L 225.286425 -189.043368 
L 225.213892 -189.107545 
L 225.128362 -189.171722 
L 225.024943 -189.2359 
L 224.900279 -189.300077 
L 224.752128 -189.364254 
L 224.578585 -189.428431 
L 224.377847 -189.492608 
L 224.148917 -189.556785 
L 223.892648 -189.620962 
L 223.611945 -189.685139 
L 223.310571 -189.749317 
L 222.991763 -189.813494 
L 222.658545 -189.877671 
L 222.315937 -189.941848 
L 221.972497 -190.006025 
L 221.638485 -190.070202 
L 221.32142 -190.134379 
L 221.023008 -190.198557 
L 220.740354 -190.262734 
L 220.470046 -190.326911 
L 220.211024 -190.391088 
L 219.963761 -190.455265 
L 219.727099 -190.519442 
L 219.496558 -190.583619 
L 219.266741 -190.647797 
L 219.036739 -190.711974 
L 218.814488 -190.776151 
L 218.616641 -190.840328 
L 218.463777 -190.904505 
L 218.373213 -190.968682 
L 218.352273 -191.032859 
L 218.394778 -191.097037 
L 218.483222 -191.161214 
L 218.596824 -191.225391 
L 218.721735 -191.289568 
L 218.85745 -191.353745 
L 219.015702 -191.417922 
L 219.213082 -191.482099 
L 219.461913 -191.546276 
L 219.76366 -191.610454 
L 220.107148 -191.674631 
L 220.472207 -191.738808 
L 220.837579 -191.802985 
L 221.189434 -191.867162 
L 221.525448 -191.931339 
L 221.851596 -191.995516 
L 222.174061 -192.059694 
L 222.492526 -192.123871 
L 222.799847 -192.188048 
L 223.087501 -192.252225 
L 223.351391 -192.316402 
L 223.593023 -192.380579 
L 223.815941 -192.444756 
L 224.021568 -192.508934 
L 224.208327 -192.573111 
L 224.374232 -192.637288 
L 224.520072 -192.701465 
L 224.650343 -192.765642 
L 224.771331 -192.829819 
L 224.887937 -192.893996 
L 225.00154 -192.958173 
L 225.110227 -193.022351 
L 225.210817 -193.086528 
L 225.300896 -193.150705 
L 225.379571 -193.214882 
L 225.447123 -193.279059 
L 225.504453 -193.343236 
L 225.552761 -193.407413 
L 225.59331 -193.471591 
L 225.627175 -193.535768 
L 225.655135 -193.599945 
L 225.677784 -193.664122 
L 225.695674 -193.728299 
L 225.709332 -193.792476 
L 225.719238 -193.856653 
L 225.725907 -193.920831 
L 225.730053 -193.985008 
L 225.732619 -194.049185 
L 225.734571 -194.113362 
L 225.736589 -194.177539 
L 225.73892 -194.241716 
L 225.741449 -194.305893 
L 225.743903 -194.37007 
L 225.746023 -194.434248 
L 225.747651 -194.498425 
L 225.748756 -194.562602 
L 225.749415 -194.626779 
L 225.750585 -194.626779 
L 225.750585 -194.626779 
L 225.751244 -194.562602 
L 225.752349 -194.498425 
L 225.753977 -194.434248 
L 225.756097 -194.37007 
L 225.758551 -194.305893 
L 225.76108 -194.241716 
L 225.763411 -194.177539 
L 225.765429 -194.113362 
L 225.767381 -194.049185 
L 225.769947 -193.985008 
L 225.774093 -193.920831 
L 225.780762 -193.856653 
L 225.790668 -193.792476 
L 225.804326 -193.728299 
L 225.822216 -193.664122 
L 225.844865 -193.599945 
L 225.872825 -193.535768 
L 225.90669 -193.471591 
L 225.947239 -193.407413 
L 225.995547 -193.343236 
L 226.052877 -193.279059 
L 226.120429 -193.214882 
L 226.199104 -193.150705 
L 226.289183 -193.086528 
L 226.389773 -193.022351 
L 226.49846 -192.958173 
L 226.612063 -192.893996 
L 226.728669 -192.829819 
L 226.849657 -192.765642 
L 226.979928 -192.701465 
L 227.125768 -192.637288 
L 227.291673 -192.573111 
L 227.478432 -192.508934 
L 227.684059 -192.444756 
L 227.906977 -192.380579 
L 228.148609 -192.316402 
L 228.412499 -192.252225 
L 228.700153 -192.188048 
L 229.007474 -192.123871 
L 229.325939 -192.059694 
L 229.648404 -191.995516 
L 229.974552 -191.931339 
L 230.310566 -191.867162 
L 230.662421 -191.802985 
L 231.027793 -191.738808 
L 231.392852 -191.674631 
L 231.73634 -191.610454 
L 232.038087 -191.546276 
L 232.286918 -191.482099 
L 232.484298 -191.417922 
L 232.64255 -191.353745 
L 232.778265 -191.289568 
L 232.903176 -191.225391 
L 233.016778 -191.161214 
L 233.105222 -191.097037 
L 233.147727 -191.032859 
L 233.126787 -190.968682 
L 233.036223 -190.904505 
L 232.883359 -190.840328 
L 232.685512 -190.776151 
L 232.463261 -190.711974 
L 232.233259 -190.647797 
L 232.003442 -190.583619 
L 231.772901 -190.519442 
L 231.536239 -190.455265 
L 231.288976 -190.391088 
L 231.029954 -190.326911 
L 230.759646 -190.262734 
L 230.476992 -190.198557 
L 230.17858 -190.134379 
L 229.861515 -190.070202 
L 229.527503 -190.006025 
L 229.184063 -189.941848 
L 228.841455 -189.877671 
L 228.508237 -189.813494 
L 228.189429 -189.749317 
L 227.888055 -189.685139 
L 227.607352 -189.620962 
L 227.351083 -189.556785 
L 227.122153 -189.492608 
L 226.921415 -189.428431 
L 226.747872 -189.364254 
L 226.599721 -189.300077 
L 226.475057 -189.2359 
L 226.371638 -189.171722 
L 226.286108 -189.107545 
L 226.213575 -189.043368 
L 226.148236 -188.979191 
L 226.085054 -188.915014 
L 226.021604 -188.850837 
L 225.958885 -188.78666 
L 225.900487 -188.722482 
L 225.850581 -188.658305 
L 225.811934 -188.594128 
L 225.784961 -188.529951 
L 225.768029 -188.465774 
L 225.758471 -188.401597 
L 225.753617 -188.33742 
L 225.7514 -188.273242 
z
" id="m705a3b22bd" style="stroke:#4c4c4c;stroke-width:0.4;"/>
    </defs>
    <g clip-path="url(#p03b965fbcb)">
     <use style="fill:#2020df;stroke:#4c4c4c;stroke-width:0.4;" x="0" xlink:href="#m705a3b22bd" y="489.6"/>
    </g>
   </g>
   <g id="matplotlib.axis_1">
    <g id="xtick_1">
     <g id="line2d_1">
      <defs>
       <path d="M 0 0 
L 0 3.5 
" id="m19543e82d3" style="stroke:#000000;stroke-width:0.8;"/>
      </defs>
      <g>
       <use style="stroke:#000000;stroke-width:0.8;" x="77.795455" xlink:href="#m19543e82d3" y="302.688"/>
      </g>
     </g>
     <g id="text_1">
      <text style="font-family:DejaVu Sans;font-size:12px;font-style:normal;font-weight:normal;text-anchor:middle;" transform="rotate(-0, 77.795455, 318.806125)" x="77.795455" y="318.806125">1</text>
     </g>
    </g>
    <g id="xtick_2">
     <g id="line2d_2">
      <g>
       <use style="stroke:#000000;stroke-width:0.8;" x="107.386364" xlink:href="#m19543e82d3" y="302.688"/>
      </g>
     </g>
     <g id="text_2">
      <text style="font-family:DejaVu Sans;font-size:12px;font-style:normal;font-weight:normal;text-anchor:middle;" transform="rotate(-0, 107.386364, 318.806125)" x="107.386364" y="318.806125">2</text>
     </g>
    </g>
    <g id="xtick_3">
     <g id="line2d_3">
      <g>
       <use style="stroke:#000000;stroke-width:0.8;" x="136.977273" xlink:href="#m19543e82d3" y="302.688"/>
      </g>
     </g>
     <g id="text_3">
      <text style="font-family:DejaVu Sans;font-size:12px;font-style:normal;font-weight:normal;text-anchor:middle;" transform="rotate(-0, 136.977273, 318.806125)" x="136.977273" y="318.806125">3</text>
     </g>
    </g>
    <g id="xtick_4">
     <g id="line2d_4">
      <g>
       <use style="stroke:#000000;stroke-width:0.8;" x="166.568182" xlink:href="#m19543e82d3" y="302.688"/>
      </g>
     </g>
     <g id="text_4">
      <text style="font-family:DejaVu Sans;font-size:12px;font-style:normal;font-weight:normal;text-anchor:middle;" transform="rotate(-0, 166.568182, 318.806125)" x="166.568182" y="318.806125">4</text>
     </g>
    </g>
    <g id="xtick_5">
     <g id="line2d_5">
      <g>
       <use style="stroke:#000000;stroke-width:0.8;" x="196.159091" xlink:href="#m19543e82d3" y="302.688"/>
      </g>
     </g>
     <g id="text_5">
      <text style="font-family:DejaVu Sans;font-size:12px;font-style:normal;font-weight:normal;text-anchor:middle;" transform="rotate(-0, 196.159091, 318.806125)" x="196.159091" y="318.806125">5</text>
     </g>
    </g>
    <g id="xtick_6">
     <g id="line2d_6">
      <g>
       <use style="stroke:#000000;stroke-width:0.8;" x="225.75" xlink:href="#m19543e82d3" y="302.688"/>
      </g>
     </g>
     <g id="text_6">
      <text style="font-family:DejaVu Sans;font-size:12px;font-style:normal;font-weight:normal;text-anchor:middle;" transform="rotate(-0, 225.75, 318.806125)" x="225.75" y="318.806125">6</text>
     </g>
    </g>
    <g id="text_7">
     <!-- number of fields ($K$) -->
     <g transform="translate(92.132727 334.419875)">
      <text>
       <tspan style="font-family:DejaVu Sans;font-size:12px;font-style:book;font-weight:book;" x="0 7.605469 15.210938 26.900391 34.517578 41.900391 46.833984 50.648438 57.990234 62.214844 66.029297 70.253906 73.587891 80.970703 84.304688 91.921875 98.173828 101.988281 114.539062" y="-0.875">numberoffields()</tspan>
       <tspan style="font-family:DejaVu Sans;font-size:12px;font-style:oblique;font-weight:oblique;" x="106.669922" y="-0.875">K</tspan>
      </text>
     </g>
    </g>
   </g>
   <g id="matplotlib.axis_2">
    <g id="ytick_1">
     <g id="line2d_7">
      <defs>
       <path d="M 0 0 
L -3.5 0 
" id="m7fc2e3d7f3" style="stroke:#000000;stroke-width:0.8;"/>
      </defs>
      <g>
       <use style="stroke:#000000;stroke-width:0.8;" x="63" xlink:href="#m7fc2e3d7f3" y="302.688"/>
      </g>
     </g>
     <g id="text_8">
      <text style="font-family:DejaVu Sans;font-size:12px;font-style:normal;font-weight:normal;text-anchor:end;" transform="rotate(-0, 56, 307.247063)" x="56" y="307.247063">0.0</text>
     </g>
    </g>
    <g id="ytick_2">
     <g id="line2d_8">
      <g>
       <use style="stroke:#000000;stroke-width:0.8;" x="63" xlink:href="#m7fc2e3d7f3" y="247.248"/>
      </g>
     </g>
     <g id="text_9">
      <text style="font-family:DejaVu Sans;font-size:12px;font-style:normal;font-weight:normal;text-anchor:end;" transform="rotate(-0, 56, 251.807063)" x="56" y="251.807063">0.2</text>
     </g>
    </g>
    <g id="ytick_3">
     <g id="line2d_9">
      <g>
       <use style="stroke:#000000;stroke-width:0.8;" x="63" xlink:href="#m7fc2e3d7f3" y="191.808"/>
      </g>
     </g>
     <g id="text_10">
      <text style="font-family:DejaVu Sans;font-size:12px;font-style:normal;font-weight:normal;text-anchor:end;" transform="rotate(-0, 56, 196.367063)" x="56" y="196.367063">0.4</text>
     </g>
    </g>
    <g id="text_11">
     <text style="font-family:DejaVu Sans;font-size:12px;font-style:normal;font-weight:normal;text-anchor:middle;" transform="rotate(-90, 30.420625, 247.248)" x="30.420625" y="247.248">margin</text>
    </g>
   </g>
   <g id="line2d_10">
    <path clip-path="url(#p03b965fbcb)" d="M 68.918182 242.375413 
L 86.672727 242.375413 
" style="fill:none;stroke:#000000;stroke-linecap:square;stroke-width:1.5;"/>
   </g>
   <g id="line2d_11">
    <path clip-path="url(#p03b965fbcb)" d="M 98.509091 275.783708 
L 116.263636 275.783708 
" style="fill:none;stroke:#000000;stroke-linecap:square;stroke-width:1.5;"/>
   </g>
   <g id="line2d_12">
    <path clip-path="url(#p03b965fbcb)" d="M 98.509091 282.272142 
L 116.263636 282.272142 
" style="fill:none;stroke:#000000;stroke-linecap:square;stroke-width:1.5;"/>
   </g>
   <g id="line2d_13">
    <path clip-path="url(#p03b965fbcb)" d="M 128.1 282.917928 
L 145.854545 282.917928 
" style="fill:none;stroke:#000000;stroke-linecap:square;stroke-width:1.5;"/>
   </g>
   <g id="line2d_14">
    <path clip-path="url(#p03b965fbcb)" d="M 128.1 287.48727 
L 145.854545 287.48727 
" style="fill:none;stroke:#000000;stroke-linecap:square;stroke-width:1.5;"/>
   </g>
   <g id="line2d_15">
    <path clip-path="url(#p03b965fbcb)" d="M 128.1 289.12719 
L 145.854545 289.12719 
" style="fill:none;stroke:#000000;stroke-linecap:square;stroke-width:1.5;"/>
   </g>
   <g id="line2d_16">
    <path clip-path="url(#p03b965fbcb)" d="M 157.690909 287.109002 
L 175.445455 287.109002 
" style="fill:none;stroke:#000000;stroke-linecap:square;stroke-width:1.5;"/>
   </g>
   <g id="line2d_17">
    <path clip-path="url(#p03b965fbcb)" d="M 157.690909 287.522634 
L 175.445455 287.522634 
" style="fill:none;stroke:#000000;stroke-linecap:square;stroke-width:1.5;"/>
   </g>
   <g id="line2d_18">
    <path clip-path="url(#p03b965fbcb)" d="M 157.690909 289.207023 
L 175.445455 289.207023 
" style="fill:none;stroke:#000000;stroke-linecap:square;stroke-width:1.5;"/>
   </g>
   <g id="line2d_19">
    <path clip-path="url(#p03b965fbcb)" d="M 157.690909 292.818976 
L 175.445455 292.818976 
" style="fill:none;stroke:#000000;stroke-linecap:square;stroke-width:1.5;"/>
   </g>
   <g id="line2d_20">
    <path clip-path="url(#p03b965fbcb)" d="M 157.690909 295.084587 
L 175.445455 295.084587 
" style="fill:none;stroke:#000000;stroke-linecap:square;stroke-width:1.5;"/>
   </g>
   <g id="line2d_21">
    <path clip-path="url(#p03b965fbcb)" d="M 187.281818 290.129051 
L 205.036364 290.129051 
" style="fill:none;stroke:#000000;stroke-linecap:square;stroke-width:1.5;"/>
   </g>
   <g id="line2d_22">
    <path clip-path="url(#p03b965fbcb)" d="M 187.281818 286.895159 
L 205.036364 286.895159 
" style="fill:none;stroke:#000000;stroke-linecap:square;stroke-width:1.5;"/>
   </g>
   <g id="line2d_23">
    <path clip-path="url(#p03b965fbcb)" d="M 187.281818 287.60508 
L 205.036364 287.60508 
" style="fill:none;stroke:#000000;stroke-linecap:square;stroke-width:1.5;"/>
   </g>
   <g id="line2d_24">
    <path clip-path="url(#p03b965fbcb)" d="M 187.281818 292.245567 
L 205.036364 292.245567 
" style="fill:none;stroke:#000000;stroke-linecap:square;stroke-width:1.5;"/>
   </g>
   <g id="line2d_25">
    <path clip-path="url(#p03b965fbcb)" d="M 187.281818 294.823046 
L 205.036364 294.823046 
" style="fill:none;stroke:#000000;stroke-linecap:square;stroke-width:1.5;"/>
   </g>
   <g id="line2d_26">
    <path clip-path="url(#p03b965fbcb)" d="M 187.281818 296.868597 
L 205.036364 296.868597 
" style="fill:none;stroke:#000000;stroke-linecap:square;stroke-width:1.5;"/>
   </g>
   <g id="line2d_27">
    <path clip-path="url(#p03b965fbcb)" d="M 187.281818 295.67471 
L 205.036364 295.67471 
" style="fill:none;stroke:#000000;stroke-linecap:square;stroke-width:1.5;"/>
   </g>
   <g id="line2d_28">
    <path clip-path="url(#p03b965fbcb)" d="M 216.872727 291.98726 
L 234.627273 291.98726 
" style="fill:none;stroke:#000000;stroke-linecap:square;stroke-width:1.5;"/>
   </g>
   <g id="line2d_29">
    <path clip-path="url(#p03b965fbcb)" d="M 216.872727 288.901455 
L 234.627273 288.901455 
" style="fill:none;stroke:#000000;stroke-linecap:square;stroke-width:1.5;"/>
   </g>
   <g id="line2d_30">
    <path clip-path="url(#p03b965fbcb)" d="M 216.872727 283.49188 
L 234.627273 283.49188 
" style="fill:none;stroke:#000000;stroke-linecap:square;stroke-width:1.5;"/>
   </g>
   <g id="line2d_31">
    <path clip-path="url(#p03b965fbcb)" d="M 216.872727 287.288093 
L 234.627273 287.288093 
" style="fill:none;stroke:#000000;stroke-linecap:square;stroke-width:1.5;"/>
   </g>
   <g id="line2d_32">
    <path clip-path="url(#p03b965fbcb)" d="M 216.872727 294.018357 
L 234.627273 294.018357 
" style="fill:none;stroke:#000000;stroke-linecap:square;stroke-width:1.5;"/>
   </g>
   <g id="line2d_33">
    <path clip-path="url(#p03b965fbcb)" d="M 216.872727 295.959729 
L 234.627273 295.959729 
" style="fill:none;stroke:#000000;stroke-linecap:square;stroke-width:1.5;"/>
   </g>
   <g id="line2d_34">
    <path clip-path="url(#p03b965fbcb)" d="M 216.872727 297.217738 
L 234.627273 297.217738 
" style="fill:none;stroke:#000000;stroke-linecap:square;stroke-width:1.5;"/>
   </g>
   <g id="line2d_35">
    <path clip-path="url(#p03b965fbcb)" d="M 216.872727 296.783546 
L 234.627273 296.783546 
" style="fill:none;stroke:#000000;stroke-linecap:square;stroke-width:1.5;"/>
   </g>
   <g id="line2d_36">
    <path clip-path="url(#p03b965fbcb)" d="M 216.872727 295.682757 
L 234.627273 295.682757 
" style="fill:none;stroke:#000000;stroke-linecap:square;stroke-width:1.5;"/>
   </g>
   <g id="line2d_37">
    <path clip-path="url(#p03b965fbcb)" d="M 216.872727 298.744389 
L 234.627273 298.744389 
" style="fill:none;stroke:#000000;stroke-linecap:square;stroke-width:1.5;"/>
   </g>
   <g id="line2d_38">
    <path clip-path="url(#p03b965fbcb)" d="M 216.872727 298.010683 
L 234.627273 298.010683 
" style="fill:none;stroke:#000000;stroke-linecap:square;stroke-width:1.5;"/>
   </g>
   <g id="patch_3">
    <path d="M 63 302.688 
L 63 191.808 
" style="fill:none;stroke:#000000;stroke-linecap:square;stroke-linejoin:miter;stroke-width:0.8;"/>
   </g>
   <g id="patch_4">
    <path d="M 63 302.688 
L 240.545455 302.688 
" style="fill:none;stroke:#000000;stroke-linecap:square;stroke-linejoin:miter;stroke-width:0.8;"/>
   </g>
  </g>
  <g id="axes_2">
   <g id="patch_5">
    <path d="M 276.054545 302.688 
L 453.6 302.688 
L 453.6 191.808 
L 276.054545 191.808 
z
" style="fill:#ffffff;"/>
   </g>
   <g id="matplotlib.axis_3">
    <g id="xtick_7">
     <g id="line2d_39">
      <g>
       <use style="stroke:#000000;stroke-width:0.8;" x="276.054545" xlink:href="#m19543e82d3" y="302.688"/>
      </g>
     </g>
     <g id="text_12">
      <text style="font-family:DejaVu Sans;font-size:12px;font-style:normal;font-weight:normal;text-anchor:middle;" transform="rotate(-0, 276.054545, 318.806125)" x="276.054545" y="318.806125">0.0</text>
     </g>
    </g>
    <g id="xtick_8">
     <g id="line2d_40">
      <g>
       <use style="stroke:#000000;stroke-width:0.8;" x="320.440909" xlink:href="#m19543e82d3" y="302.688"/>
      </g>
     </g>
     <g id="text_13">
      <text style="font-family:DejaVu Sans;font-size:12px;font-style:normal;font-weight:normal;text-anchor:middle;" transform="rotate(-0, 320.440909, 318.806125)" x="320.440909" y="318.806125">0.1</text>
     </g>
    </g>
    <g id="xtick_9">
     <g id="line2d_41">
      <g>
       <use style="stroke:#000000;stroke-width:0.8;" x="364.827273" xlink:href="#m19543e82d3" y="302.688"/>
      </g>
     </g>
     <g id="text_14">
      <text style="font-family:DejaVu Sans;font-size:12px;font-style:normal;font-weight:normal;text-anchor:middle;" transform="rotate(-0, 364.827273, 318.806125)" x="364.827273" y="318.806125">0.2</text>
     </g>
    </g>
    <g id="xtick_10">
     <g id="line2d_42">
      <g>
       <use style="stroke:#000000;stroke-width:0.8;" x="409.213636" xlink:href="#m19543e82d3" y="302.688"/>
      </g>
     </g>
     <g id="text_15">
      <text style="font-family:DejaVu Sans;font-size:12px;font-style:normal;font-weight:normal;text-anchor:middle;" transform="rotate(-0, 409.213636, 318.806125)" x="409.213636" y="318.806125">0.3</text>
     </g>
    </g>
    <g id="xtick_11">
     <g id="line2d_43">
      <g>
       <use style="stroke:#000000;stroke-width:0.8;" x="453.6" xlink:href="#m19543e82d3" y="302.688"/>
      </g>
     </g>
     <g id="text_16">
      <text style="font-family:DejaVu Sans;font-size:12px;font-style:normal;font-weight:normal;text-anchor:middle;" transform="rotate(-0, 453.6, 318.806125)" x="453.6" y="318.806125">0.4</text>
     </g>
    </g>
    <g id="text_17">
     <!-- margin $\kappa$ -->
     <g transform="translate(338.067273 334.42175)">
      <text>
       <tspan style="font-family:DejaVu Sans;font-size:12px;font-style:book;font-weight:book;" x="0 11.689453 19.042969 23.976562 31.59375 34.927734 42.533203" y="-0.875">margin</tspan>
       <tspan style="font-family:DejaVu Sans;font-size:12px;font-style:oblique;font-weight:oblique;" x="46.347656" y="-0.875"></tspan>
      </text>
     </g>
    </g>
   </g>
   <g id="matplotlib.axis_4">
    <g id="ytick_4">
     <g id="line2d_44">
      <g>
       <use style="stroke:#000000;stroke-width:0.8;" x="276.054545" xlink:href="#m7fc2e3d7f3" y="302.688"/>
      </g>
     </g>
     <g id="text_18">
      <text style="font-family:DejaVu Sans;font-size:12px;font-style:normal;font-weight:normal;text-anchor:end;" transform="rotate(-0, 269.054545, 307.247063)" x="269.054545" y="307.247063">0.00</text>
     </g>
    </g>
    <g id="ytick_5">
     <g id="line2d_45">
      <g>
       <use style="stroke:#000000;stroke-width:0.8;" x="276.054545" xlink:href="#m7fc2e3d7f3" y="274.968"/>
      </g>
     </g>
     <g id="text_19">
      <text style="font-family:DejaVu Sans;font-size:12px;font-style:normal;font-weight:normal;text-anchor:end;" transform="rotate(-0, 269.054545, 279.527063)" x="269.054545" y="279.527063">0.25</text>
     </g>
    </g>
    <g id="ytick_6">
     <g id="line2d_46">
      <g>
       <use style="stroke:#000000;stroke-width:0.8;" x="276.054545" xlink:href="#m7fc2e3d7f3" y="247.248"/>
      </g>
     </g>
     <g id="text_20">
      <text style="font-family:DejaVu Sans;font-size:12px;font-style:normal;font-weight:normal;text-anchor:end;" transform="rotate(-0, 269.054545, 251.807063)" x="269.054545" y="251.807063">0.50</text>
     </g>
    </g>
    <g id="ytick_7">
     <g id="line2d_47">
      <g>
       <use style="stroke:#000000;stroke-width:0.8;" x="276.054545" xlink:href="#m7fc2e3d7f3" y="219.528"/>
      </g>
     </g>
     <g id="text_21">
      <text style="font-family:DejaVu Sans;font-size:12px;font-style:normal;font-weight:normal;text-anchor:end;" transform="rotate(-0, 269.054545, 224.087063)" x="269.054545" y="224.087063">0.75</text>
     </g>
    </g>
    <g id="ytick_8">
     <g id="line2d_48">
      <g>
       <use style="stroke:#000000;stroke-width:0.8;" x="276.054545" xlink:href="#m7fc2e3d7f3" y="191.808"/>
      </g>
     </g>
     <g id="text_22">
      <text style="font-family:DejaVu Sans;font-size:12px;font-style:normal;font-weight:normal;text-anchor:end;" transform="rotate(-0, 269.054545, 196.367063)" x="269.054545" y="196.367063">1.00</text>
     </g>
    </g>
    <g id="text_23">
     <text style="font-family:DejaVu Sans;font-size:12px;font-style:normal;font-weight:normal;text-anchor:middle;" transform="rotate(-90, 235.84017, 247.248)" x="235.84017" y="247.248">CDF</text>
    </g>
   </g>
   <g id="line2d_49">
    <path clip-path="url(#p1fbe53f403)" d="M 276.054545 283.073328 
L 280.493182 283.073328 
L 284.931818 283.073328 
L 289.370455 283.073328 
L 293.809091 283.073328 
L 298.247727 283.097352 
L 302.686364 283.193448 
L 307.125 283.193448 
L 311.563636 283.786656 
L 316.002273 283.786656 
L 320.440909 284.208 
L 324.879545 284.208 
L 329.318182 284.208 
L 333.756818 284.208 
L 338.195455 284.208 
L 342.634091 284.208 
L 347.072727 284.208 
L 351.511364 284.208 
L 355.95 284.208 
L 360.388636 284.208 
L 364.827273 284.208 
L 369.265909 284.208 
L 373.704545 302.688 
L 378.143182 302.688 
L 382.581818 302.688 
L 387.020455 302.688 
L 391.459091 302.688 
L 395.897727 302.688 
L 400.336364 302.688 
L 404.775 302.688 
L 409.213636 302.688 
L 413.652273 302.688 
L 418.090909 302.688 
L 422.529545 302.688 
L 426.968182 302.688 
L 431.406818 302.688 
L 435.845455 302.688 
L 440.284091 302.688 
L 444.722727 302.688 
L 449.161364 302.688 
L 453.6 302.688 
L 458.038636 302.688 
L 462.477273 302.688 
L 466.915909 302.688 
L 471.354545 302.688 
L 475.793182 302.688 
L 480.231818 302.688 
L 484.670455 302.688 
L 489.109091 302.688 
L 493.547727 302.688 
L 497.986364 302.688 
L 502.425 302.688 
L 505 302.688 
" style="fill:none;stroke:#000000;stroke-linecap:square;stroke-width:1.5;"/>
   </g>
   <g id="line2d_50">
    <path clip-path="url(#p1fbe53f403)" d="M 276.054545 193.040616 
L 280.493182 207.139008 
L 284.931818 255.079824 
L 289.370455 277.39812 
L 293.809091 285.60324 
L 298.247727 296.48796 
L 302.686364 302.335032 
L 307.125 302.684304 
L 311.563636 302.688 
L 316.002273 302.688 
L 320.440909 302.688 
L 324.879545 302.688 
L 329.318182 302.688 
L 333.756818 302.688 
L 338.195455 302.688 
L 342.634091 302.688 
L 347.072727 302.688 
L 351.511364 302.688 
L 355.95 302.688 
L 360.388636 302.688 
L 364.827273 302.688 
L 369.265909 302.688 
L 373.704545 302.688 
L 378.143182 302.688 
L 382.581818 302.688 
L 387.020455 302.688 
L 391.459091 302.688 
L 395.897727 302.688 
L 400.336364 302.688 
L 404.775 302.688 
L 409.213636 302.688 
L 413.652273 302.688 
L 418.090909 302.688 
L 422.529545 302.688 
L 426.968182 302.688 
L 431.406818 302.688 
L 435.845455 302.688 
L 440.284091 302.688 
L 444.722727 302.688 
L 449.161364 302.688 
L 453.6 302.688 
L 458.038636 302.688 
L 462.477273 302.688 
L 466.915909 302.688 
L 471.354545 302.688 
L 475.793182 302.688 
L 480.231818 302.688 
L 484.670455 302.688 
L 489.109091 302.688 
L 493.547727 302.688 
L 497.986364 302.688 
L 502.425 302.688 
L 505 302.688 
" style="fill:none;stroke:#bf00bf;stroke-linecap:square;stroke-width:1.5;"/>
   </g>
   <g id="line2d_51">
    <path clip-path="url(#p1fbe53f403)" d="M 276.054545 191.822784 
L 280.493182 192.761568 
L 284.931818 223.8708 
L 289.370455 252.891792 
L 293.809091 268.359552 
L 298.247727 282.7296 
L 302.686364 284.208 
L 307.125 285.117216 
L 311.563636 302.688 
L 316.002273 302.688 
L 320.440909 302.688 
L 324.879545 302.688 
L 329.318182 302.688 
L 333.756818 302.688 
L 338.195455 302.688 
L 342.634091 302.688 
L 347.072727 302.688 
L 351.511364 302.688 
L 355.95 302.688 
L 360.388636 302.688 
L 364.827273 302.688 
L 369.265909 302.688 
L 373.704545 302.688 
L 378.143182 302.688 
L 382.581818 302.688 
L 387.020455 302.688 
L 391.459091 302.688 
L 395.897727 302.688 
L 400.336364 302.688 
L 404.775 302.688 
L 409.213636 302.688 
L 413.652273 302.688 
L 418.090909 302.688 
L 422.529545 302.688 
L 426.968182 302.688 
L 431.406818 302.688 
L 435.845455 302.688 
L 440.284091 302.688 
L 444.722727 302.688 
L 449.161364 302.688 
L 453.6 302.688 
L 458.038636 302.688 
L 462.477273 302.688 
L 466.915909 302.688 
L 471.354545 302.688 
L 475.793182 302.688 
L 480.231818 302.688 
L 484.670455 302.688 
L 489.109091 302.688 
L 493.547727 302.688 
L 497.986364 302.688 
L 502.425 302.688 
L 505 302.688 
" style="fill:none;stroke:#0000ff;stroke-linecap:square;stroke-width:1.5;"/>
   </g>
   <g id="line2d_52">
    <path clip-path="url(#p1fbe53f403)" d="M 276.054545 191.808 
L 505 191.808 
" style="fill:none;stroke:#000000;stroke-dasharray:3.7,1.6;stroke-dashoffset:0;"/>
   </g>
   <g id="patch_6">
    <path d="M 276.054545 302.688 
L 276.054545 191.808 
" style="fill:none;stroke:#000000;stroke-linecap:square;stroke-linejoin:miter;stroke-width:0.8;"/>
   </g>
   <g id="patch_7">
    <path d="M 276.054545 302.688 
L 453.6 302.688 
" style="fill:none;stroke:#000000;stroke-linecap:square;stroke-linejoin:miter;stroke-width:0.8;"/>
   </g>
  </g>
  <g id="text_24">
   <text style="font-family:DejaVu Sans;font-size:16px;font-style:normal;font-weight:normal;text-anchor:start;" transform="rotate(-0, 10.08, 171.36)" x="10.08" y="171.36">A</text>
  </g>
  <g id="text_25">
   <text style="font-family:DejaVu Sans;font-size:16px;font-style:normal;font-weight:normal;text-anchor:start;" transform="rotate(-0, 241.92, 171.36)" x="241.92" y="171.36">B</text>
  </g>
  <g id="text_26">
   <text style="font-family:DejaVu Sans;font-size:16px;font-style:normal;font-weight:normal;text-anchor:start;" transform="rotate(-0, 10.08, 342.72)" x="10.08" y="342.72">C</text>
  </g>
  <g id="text_27">
   <text style="font-family:DejaVu Sans;font-size:16px;font-style:normal;font-weight:normal;text-anchor:start;" transform="rotate(-0, 241.92, 342.72)" x="241.92" y="342.72">D</text>
  </g>
 </g>
 <defs>
  <clipPath id="p03b965fbcb">
   <rect height="110.88" width="177.545455" x="63" y="191.808"/>
  </clipPath>
  <clipPath id="p1fbe53f403">
   <rect height="110.88" width="177.545455" x="276.054545" y="191.808"/>
  </clipPath>
 </defs>
</svg>
